<svg id="svg" version="1.1" xmlns="http://www.w3.org/2000/svg" xmlns:xlink="http://www.w3.org/1999/xlink" width="400" height="400" viewBox="0, 0, 400,400"><g id="svgg"><path id="path0" d="M98.000 132.967 C 98.000 133.343,97.771 133.487,97.400 133.345 C 97.055 133.212,96.800 133.337,96.800 133.637 C 96.800 134.044,96.693 134.053,96.320 133.680 C 95.805 133.165,93.431 133.000,93.734 133.500 C 93.986 133.915,93.162 134.574,92.200 134.728 C 91.760 134.798,91.220 135.084,91.000 135.363 C 90.780 135.642,90.369 135.793,90.088 135.698 C 89.806 135.603,89.602 135.677,89.635 135.863 C 89.783 136.695,89.564 137.225,89.173 136.983 C 88.938 136.838,88.647 137.097,88.526 137.560 C 88.406 138.022,88.058 138.400,87.753 138.400 C 87.449 138.400,87.200 138.750,87.200 139.177 C 87.200 139.745,86.980 139.912,86.379 139.796 C 85.705 139.666,85.605 139.786,85.822 140.469 C 86.001 141.032,85.941 141.211,85.636 141.022 C 85.360 140.852,84.904 141.375,84.458 142.370 C 84.057 143.265,83.649 143.916,83.551 143.817 C 83.142 143.408,83.236 145.762,83.649 146.259 C 83.985 146.664,83.974 146.800,83.606 146.800 C 83.333 146.800,83.217 147.067,83.345 147.400 C 83.492 147.785,83.337 148.000,82.911 148.000 C 82.340 148.000,82.356 148.088,83.024 148.633 C 83.687 149.173,83.698 149.233,83.100 149.045 C 82.596 148.887,82.400 149.045,82.400 149.613 C 82.400 150.046,82.580 150.400,82.800 150.400 C 83.020 150.400,83.200 150.591,83.200 150.824 C 83.200 151.057,83.020 151.136,82.800 151.000 C 82.580 150.864,82.400 151.039,82.400 151.389 C 82.400 151.739,82.669 152.128,82.998 152.254 C 83.326 152.381,83.496 152.645,83.374 152.842 C 83.252 153.039,83.379 153.200,83.656 153.200 C 84.048 153.200,84.053 153.307,83.680 153.680 C 83.099 154.261,83.026 156.555,83.600 156.200 C 83.820 156.064,84.000 156.244,84.000 156.600 C 84.000 156.987,84.185 157.133,84.462 156.962 C 84.754 156.781,84.815 156.852,84.627 157.156 C 84.280 157.717,85.126 158.893,85.645 158.572 C 85.840 158.451,86.000 158.543,86.000 158.776 C 86.000 159.009,85.826 159.200,85.613 159.200 C 85.399 159.200,85.332 159.478,85.462 159.817 C 85.593 160.158,86.063 160.381,86.512 160.317 C 86.971 160.251,87.399 160.461,87.493 160.800 C 87.642 161.333,87.614 161.333,87.237 160.800 C 87.003 160.470,86.809 160.403,86.806 160.651 C 86.798 161.286,87.810 162.053,88.186 161.697 C 88.359 161.533,88.383 161.780,88.241 162.244 C 87.973 163.115,88.480 163.748,90.143 164.617 C 90.614 164.864,90.955 165.276,90.900 165.533 C 90.845 165.790,91.081 166.000,91.424 166.000 C 91.767 166.000,91.968 166.135,91.871 166.300 C 91.775 166.465,92.349 167.134,93.148 167.786 C 93.946 168.438,95.455 169.925,96.500 171.091 C 97.545 172.256,98.400 173.104,98.400 172.976 C 98.400 172.625,99.627 173.923,99.638 174.286 C 99.643 174.459,99.997 174.729,100.424 174.887 C 100.851 175.045,101.200 175.461,101.200 175.811 C 101.200 176.161,101.380 176.336,101.600 176.200 C 101.820 176.064,102.000 176.263,102.000 176.643 C 102.000 177.023,102.119 177.214,102.264 177.069 C 102.410 176.924,102.739 177.209,102.997 177.702 C 103.255 178.196,103.676 178.555,103.933 178.500 C 104.190 178.445,104.355 178.625,104.300 178.900 C 104.245 179.175,104.425 179.355,104.700 179.300 C 104.975 179.245,105.155 179.410,105.100 179.667 C 105.045 179.924,105.404 180.345,105.898 180.603 C 106.391 180.861,106.676 181.190,106.531 181.336 C 106.386 181.481,106.597 181.600,107.000 181.600 C 107.403 181.600,107.622 181.711,107.486 181.848 C 107.176 182.158,108.185 183.200,108.795 183.200 C 109.044 183.200,109.136 183.380,109.000 183.600 C 108.864 183.820,108.933 184.000,109.152 184.000 C 109.372 184.000,111.002 185.451,112.776 187.224 C 114.549 188.998,116.000 190.628,116.000 190.848 C 116.000 191.067,116.180 191.136,116.400 191.000 C 116.620 190.864,116.800 190.956,116.800 191.205 C 116.800 191.815,117.842 192.824,118.152 192.514 C 118.289 192.378,118.400 192.597,118.400 193.000 C 118.400 193.403,118.519 193.614,118.664 193.469 C 118.810 193.324,119.139 193.609,119.397 194.102 C 119.655 194.596,120.076 194.955,120.333 194.900 C 120.590 194.845,120.755 195.025,120.700 195.300 C 120.645 195.575,120.825 195.755,121.100 195.700 C 121.375 195.645,121.555 195.810,121.500 196.067 C 121.445 196.324,121.804 196.745,122.298 197.003 C 122.791 197.261,123.076 197.590,122.931 197.736 C 122.786 197.881,122.977 198.000,123.357 198.000 C 123.737 198.000,123.936 198.180,123.800 198.400 C 123.664 198.620,123.839 198.800,124.189 198.800 C 124.539 198.800,124.955 199.149,125.113 199.576 C 125.271 200.003,125.541 200.357,125.714 200.362 C 126.077 200.373,127.375 201.600,127.024 201.600 C 126.896 201.600,127.744 202.455,128.909 203.500 C 130.075 204.545,131.562 206.054,132.214 206.852 C 132.866 207.651,133.535 208.225,133.700 208.129 C 133.865 208.032,134.000 208.233,134.000 208.576 C 134.000 208.919,134.202 209.155,134.448 209.100 C 134.695 209.045,135.213 209.540,135.600 210.200 C 135.987 210.860,136.505 211.355,136.752 211.300 C 136.998 211.245,137.155 211.425,137.100 211.700 C 137.045 211.975,137.225 212.155,137.500 212.100 C 137.775 212.045,137.955 212.225,137.900 212.500 C 137.845 212.775,138.025 212.955,138.300 212.900 C 138.575 212.845,138.755 213.002,138.700 213.248 C 138.645 213.495,139.140 214.013,139.800 214.400 C 140.460 214.787,140.955 215.305,140.900 215.552 C 140.845 215.798,141.081 216.000,141.424 216.000 C 141.767 216.000,141.968 216.135,141.871 216.300 C 141.775 216.465,142.349 217.134,143.148 217.786 C 143.946 218.438,145.455 219.925,146.500 221.091 C 147.545 222.256,148.400 223.104,148.400 222.976 C 148.400 222.848,148.715 223.058,149.100 223.443 C 149.485 223.828,149.742 224.237,149.670 224.352 C 149.599 224.466,149.914 224.699,150.370 224.867 C 150.827 225.036,151.200 225.444,151.200 225.775 C 151.200 226.142,151.431 226.286,151.797 226.146 C 152.161 226.006,152.483 226.205,152.625 226.658 C 153.026 227.938,153.510 228.604,153.963 228.500 C 154.203 228.445,154.355 228.625,154.300 228.900 C 154.245 229.175,154.425 229.355,154.700 229.300 C 154.975 229.245,155.155 229.410,155.100 229.667 C 155.045 229.924,155.404 230.345,155.898 230.603 C 156.391 230.861,156.676 231.190,156.531 231.336 C 156.386 231.481,156.597 231.600,157.000 231.600 C 157.403 231.600,157.622 231.711,157.486 231.848 C 157.176 232.158,158.185 233.200,158.795 233.200 C 159.044 233.200,159.136 233.380,159.000 233.600 C 158.864 233.820,158.933 234.000,159.152 234.000 C 159.673 234.000,166.000 240.327,166.000 240.848 C 166.000 241.067,166.180 241.136,166.400 241.000 C 166.620 240.864,166.800 240.956,166.800 241.205 C 166.800 241.815,167.842 242.824,168.152 242.514 C 168.289 242.378,168.400 242.597,168.400 243.000 C 168.400 243.403,168.519 243.614,168.664 243.469 C 168.810 243.324,169.139 243.609,169.397 244.102 C 169.655 244.596,170.076 244.955,170.333 244.900 C 170.590 244.845,170.755 245.025,170.700 245.300 C 170.645 245.575,170.825 245.755,171.100 245.700 C 171.375 245.645,171.555 245.810,171.500 246.067 C 171.445 246.324,171.804 246.745,172.298 247.003 C 172.791 247.261,173.076 247.590,172.931 247.736 C 172.786 247.881,172.977 248.000,173.357 248.000 C 173.737 248.000,173.936 248.180,173.800 248.400 C 173.664 248.620,173.839 248.800,174.189 248.800 C 174.539 248.800,174.976 249.205,175.159 249.700 C 175.342 250.195,175.612 250.549,175.760 250.486 C 175.908 250.423,176.305 250.648,176.643 250.986 C 176.981 251.324,177.152 251.600,177.024 251.600 C 176.896 251.600,177.744 252.455,178.909 253.500 C 180.075 254.545,181.562 256.054,182.214 256.852 C 182.866 257.651,183.535 258.225,183.700 258.129 C 183.865 258.032,184.000 258.233,184.000 258.576 C 184.000 258.919,184.202 259.155,184.448 259.100 C 184.695 259.045,185.198 259.528,185.566 260.174 C 185.935 260.820,186.867 261.720,187.638 262.174 C 189.657 263.364,190.798 264.478,190.503 264.971 C 190.362 265.207,190.538 265.163,190.895 264.874 C 191.450 264.425,191.615 264.481,192.035 265.265 C 192.508 266.149,192.536 266.154,192.820 265.391 C 193.090 264.666,193.138 264.658,193.399 265.298 C 193.556 265.681,193.845 265.896,194.042 265.774 C 194.239 265.652,194.403 265.878,194.406 266.276 C 194.411 266.890,194.471 266.909,194.800 266.400 C 195.058 266.000,195.190 265.967,195.194 266.300 C 195.197 266.575,195.391 266.800,195.624 266.800 C 195.857 266.800,195.928 266.607,195.782 266.370 C 195.596 266.070,195.740 266.062,196.258 266.341 C 198.060 267.314,200.605 267.855,200.186 267.177 C 199.957 266.807,200.186 266.751,202.600 266.591 C 203.260 266.547,204.126 266.486,204.524 266.455 C 204.989 266.420,205.140 266.222,204.947 265.900 C 204.743 265.560,204.863 265.576,205.323 265.949 C 205.904 266.420,206.000 266.410,206.000 265.873 C 206.000 265.529,206.208 265.119,206.462 264.962 C 206.731 264.795,206.816 264.851,206.664 265.096 C 206.396 265.529,207.551 266.183,207.924 265.809 C 208.039 265.694,207.913 265.600,207.643 265.600 C 207.373 265.600,207.266 265.417,207.404 265.193 C 207.542 264.970,207.819 264.888,208.019 265.012 C 208.658 265.407,209.710 264.574,214.555 259.835 C 217.162 257.286,219.464 255.200,219.671 255.200 C 219.878 255.200,219.936 255.020,219.800 254.800 C 219.664 254.580,219.833 254.400,220.176 254.400 C 220.519 254.400,220.800 254.220,220.800 253.999 C 220.800 253.779,223.320 251.066,226.400 247.972 C 229.480 244.877,232.000 242.178,232.000 241.973 C 232.000 241.768,232.240 241.600,232.533 241.600 C 232.826 241.600,233.648 240.876,234.358 239.992 C 235.069 239.108,235.774 238.459,235.925 238.550 C 236.206 238.720,236.983 238.039,237.122 237.500 C 237.165 237.335,237.249 237.245,237.310 237.300 C 237.530 237.501,238.711 236.192,238.550 235.925 C 238.459 235.774,239.108 235.069,239.992 234.358 C 240.876 233.648,241.600 232.826,241.600 232.533 C 241.600 232.240,241.768 232.000,241.973 232.000 C 242.178 232.000,244.877 229.480,247.972 226.400 C 251.066 223.320,253.779 220.800,253.999 220.800 C 254.220 220.800,254.400 220.519,254.400 220.176 C 254.400 219.833,254.580 219.664,254.800 219.800 C 255.020 219.936,255.200 219.863,255.200 219.638 C 255.200 219.103,269.103 205.200,269.638 205.200 C 269.863 205.200,269.936 205.020,269.800 204.800 C 269.664 204.580,269.833 204.400,270.176 204.400 C 270.519 204.400,270.800 204.220,270.800 203.999 C 270.800 203.779,273.320 201.066,276.400 197.972 C 279.480 194.877,282.000 192.178,282.000 191.973 C 282.000 191.768,282.240 191.600,282.533 191.600 C 282.826 191.600,283.648 190.876,284.358 189.992 C 285.069 189.108,285.774 188.459,285.925 188.550 C 286.192 188.711,287.501 187.530,287.300 187.310 C 287.245 187.249,287.249 187.245,287.310 187.300 C 287.530 187.501,288.711 186.192,288.550 185.925 C 288.459 185.774,289.108 185.069,289.992 184.358 C 290.876 183.648,291.600 182.826,291.600 182.533 C 291.600 182.240,291.768 182.000,291.973 182.000 C 292.178 182.000,294.877 179.480,297.972 176.400 C 301.066 173.320,303.779 170.800,303.999 170.800 C 304.220 170.800,304.400 170.519,304.400 170.176 C 304.400 169.833,304.580 169.664,304.800 169.800 C 305.020 169.936,305.200 169.882,305.200 169.680 C 305.200 169.478,306.733 167.734,308.606 165.805 C 311.499 162.826,311.937 162.205,311.506 161.683 C 311.062 161.144,311.109 161.127,311.891 161.544 C 312.666 161.957,312.748 161.930,312.523 161.344 C 312.334 160.851,312.408 160.757,312.795 160.997 C 313.193 161.243,313.270 161.110,313.100 160.463 C 312.928 159.802,313.053 159.600,313.637 159.600 C 314.141 159.600,314.400 159.320,314.400 158.776 C 314.400 158.224,314.565 158.052,314.900 158.253 C 315.234 158.454,315.216 158.327,314.846 157.871 C 314.363 157.276,314.402 157.092,315.146 156.447 C 315.991 155.714,316.388 153.713,315.590 154.206 C 315.169 154.466,315.211 153.559,315.637 153.200 C 315.768 153.090,315.992 152.370,316.137 151.600 C 316.292 150.770,316.259 150.417,316.055 150.734 C 315.778 151.164,315.664 151.144,315.468 150.634 C 315.335 150.285,315.398 150.000,315.610 150.000 C 316.041 150.000,315.949 148.876,315.454 148.082 C 315.276 147.798,315.317 147.340,315.545 147.066 C 315.846 146.704,315.734 146.426,315.138 146.054 C 314.462 145.632,314.369 145.635,314.617 146.070 C 314.865 146.508,314.820 146.509,314.359 146.075 C 313.883 145.628,313.904 145.492,314.503 145.154 C 315.095 144.819,315.129 144.619,314.718 143.879 C 314.449 143.395,314.278 142.835,314.338 142.632 C 314.397 142.430,314.120 142.514,313.723 142.819 C 313.325 143.124,313.135 143.214,313.301 143.019 C 313.466 142.824,313.302 142.334,312.937 141.930 C 312.571 141.526,312.384 141.083,312.522 140.945 C 312.900 140.566,312.048 139.200,311.433 139.200 C 311.136 139.200,310.799 138.840,310.684 138.400 C 310.569 137.960,310.267 137.600,310.014 137.600 C 309.760 137.600,309.645 137.750,309.759 137.933 C 309.872 138.117,309.713 138.267,309.405 138.267 C 309.097 138.267,308.856 138.162,308.870 138.033 C 308.996 136.865,308.759 136.244,308.400 136.800 C 308.097 137.268,308.011 137.280,308.006 136.853 C 308.002 136.498,307.675 136.369,307.069 136.485 C 306.268 136.638,306.163 136.528,306.321 135.702 C 306.448 135.037,306.334 134.770,305.952 134.835 C 305.649 134.886,304.893 134.719,304.274 134.464 C 302.734 133.830,302.387 133.880,302.645 134.700 C 302.844 135.331,302.813 135.337,302.333 134.765 C 302.040 134.416,301.440 134.090,301.000 134.042 C 299.139 133.838,295.378 134.086,294.949 134.443 C 294.693 134.655,294.330 134.800,294.142 134.767 C 292.941 134.551,291.600 134.873,291.600 135.376 C 291.600 135.693,291.392 136.081,291.138 136.238 C 290.852 136.415,290.785 136.348,290.962 136.061 C 291.745 134.794,288.152 137.603,284.663 140.984 C 282.498 143.083,280.563 144.800,280.363 144.800 C 280.163 144.800,280.045 145.025,280.100 145.300 C 280.155 145.575,279.975 145.755,279.700 145.700 C 279.425 145.645,279.200 145.881,279.200 146.224 C 279.200 146.567,279.020 146.736,278.800 146.600 C 278.580 146.464,278.400 146.552,278.400 146.795 C 278.400 147.039,277.926 147.677,277.347 148.214 C 276.420 149.073,276.360 149.275,276.847 149.895 C 277.351 150.538,277.337 150.551,276.687 150.041 C 275.958 149.468,274.581 150.523,275.056 151.291 C 275.158 151.456,274.962 151.484,274.621 151.353 C 274.006 151.117,273.722 151.778,274.300 152.101 C 274.465 152.193,274.362 152.209,274.070 152.136 C 273.465 151.983,272.678 152.675,272.290 153.700 C 272.144 154.085,271.728 154.400,271.366 154.400 C 270.912 154.400,270.769 154.640,270.908 155.170 C 271.058 155.742,270.950 155.879,270.489 155.702 C 270.048 155.533,269.963 155.617,270.196 155.994 C 270.415 156.348,270.369 156.428,270.059 156.236 C 269.454 155.862,268.262 157.054,268.636 157.659 C 268.817 157.951,268.749 158.016,268.452 157.832 C 268.172 157.659,267.383 158.137,266.518 159.002 C 265.628 159.892,265.224 160.569,265.484 160.732 C 265.767 160.909,265.698 161.199,265.280 161.587 C 264.720 162.107,264.678 162.096,264.911 161.487 C 265.281 160.524,264.699 160.629,264.069 161.639 C 263.780 162.100,263.448 162.381,263.330 162.263 C 263.042 161.975,262.038 162.924,262.253 163.280 C 262.346 163.434,262.057 163.755,261.611 163.994 C 260.620 164.525,260.527 165.280,261.499 164.907 C 261.961 164.729,261.839 164.997,261.140 165.697 C 260.558 166.278,259.998 166.990,259.896 167.277 C 259.793 167.565,259.555 167.655,259.366 167.478 C 259.178 167.301,259.283 166.996,259.600 166.800 C 259.917 166.604,260.051 166.318,259.898 166.165 C 259.482 165.748,258.333 166.848,258.561 167.444 C 258.685 167.767,258.543 167.876,258.180 167.737 C 257.808 167.594,257.600 167.769,257.600 168.224 C 257.600 168.614,257.486 168.819,257.347 168.680 C 256.994 168.328,255.496 170.308,255.775 170.759 C 255.899 170.960,255.641 171.031,255.201 170.916 C 254.662 170.775,254.400 170.903,254.400 171.307 C 254.400 171.638,253.905 172.232,253.300 172.627 C 251.691 173.680,251.116 174.340,251.404 174.807 C 251.545 175.034,251.421 175.170,251.130 175.110 C 250.838 175.049,250.649 175.238,250.710 175.530 C 250.770 175.821,250.634 175.945,250.407 175.804 C 250.180 175.664,249.696 175.847,249.332 176.211 C 248.904 176.639,248.819 176.966,249.091 177.136 C 249.364 177.307,249.289 177.606,248.880 177.987 C 248.320 178.507,248.278 178.496,248.511 177.887 C 248.656 177.509,248.595 177.200,248.375 177.200 C 248.155 177.200,247.871 177.470,247.745 177.800 C 247.618 178.130,247.341 178.400,247.129 178.400 C 246.599 178.400,245.600 179.442,245.600 179.995 C 245.600 180.244,245.420 180.336,245.200 180.200 C 244.980 180.064,244.800 180.147,244.800 180.383 C 244.800 180.620,244.158 181.438,243.372 182.201 C 242.534 183.015,242.064 183.780,242.234 184.055 C 242.393 184.313,242.359 184.422,242.157 184.297 C 241.685 184.005,240.625 184.800,240.288 185.700 C 240.143 186.085,239.727 186.400,239.364 186.400 C 238.793 186.400,238.777 186.493,239.251 187.077 C 239.593 187.498,239.617 187.644,239.315 187.462 C 238.677 187.079,237.079 188.677,237.462 189.315 C 237.644 189.617,237.498 189.593,237.077 189.251 C 236.493 188.777,236.400 188.793,236.400 189.364 C 236.400 189.727,236.085 190.143,235.700 190.288 C 234.800 190.625,234.005 191.685,234.297 192.157 C 234.422 192.359,234.313 192.393,234.055 192.234 C 233.780 192.064,233.015 192.534,232.201 193.372 C 231.438 194.158,230.620 194.800,230.383 194.800 C 230.147 194.800,230.064 194.980,230.200 195.200 C 230.336 195.420,230.244 195.600,229.995 195.600 C 229.442 195.600,228.400 196.599,228.400 197.129 C 228.400 197.341,228.130 197.618,227.800 197.745 C 227.470 197.871,227.200 198.155,227.200 198.375 C 227.200 198.595,227.509 198.656,227.887 198.511 C 228.496 198.278,228.507 198.320,227.987 198.880 C 227.606 199.289,227.307 199.364,227.136 199.091 C 226.966 198.819,226.639 198.904,226.211 199.332 C 225.847 199.696,225.664 200.180,225.804 200.407 C 225.945 200.634,225.821 200.770,225.530 200.710 C 225.238 200.649,225.049 200.838,225.110 201.130 C 225.170 201.421,225.034 201.545,224.807 201.404 C 224.340 201.116,223.680 201.691,222.627 203.300 C 222.232 203.905,221.638 204.400,221.307 204.400 C 220.903 204.400,220.775 204.662,220.916 205.201 C 221.031 205.641,220.960 205.899,220.759 205.775 C 220.308 205.496,218.328 206.994,218.680 207.347 C 218.819 207.486,218.614 207.600,218.224 207.600 C 217.769 207.600,217.594 207.808,217.737 208.180 C 217.876 208.543,217.767 208.685,217.444 208.561 C 216.848 208.333,215.748 209.482,216.165 209.898 C 216.318 210.051,216.604 209.917,216.800 209.600 C 216.996 209.283,217.301 209.178,217.478 209.366 C 217.655 209.555,217.565 209.793,217.277 209.896 C 216.990 209.998,216.278 210.558,215.697 211.140 C 214.997 211.839,214.729 211.961,214.907 211.499 C 215.280 210.527,214.525 210.620,213.994 211.611 C 213.755 212.057,213.434 212.346,213.280 212.253 C 212.927 212.040,211.974 213.040,212.258 213.325 C 212.374 213.441,212.093 213.736,211.634 213.982 C 210.626 214.521,210.514 215.285,211.499 214.907 C 211.961 214.729,211.839 214.997,211.140 215.697 C 210.558 216.278,209.998 216.990,209.896 217.277 C 209.793 217.565,209.555 217.655,209.366 217.478 C 209.178 217.301,209.283 216.996,209.600 216.800 C 209.917 216.604,210.051 216.318,209.898 216.165 C 209.482 215.748,208.333 216.848,208.561 217.444 C 208.685 217.767,208.543 217.876,208.180 217.737 C 207.808 217.594,207.600 217.769,207.600 218.224 C 207.600 218.614,207.486 218.819,207.347 218.680 C 206.994 218.328,205.496 220.308,205.775 220.759 C 205.899 220.960,205.641 221.031,205.201 220.916 C 204.662 220.775,204.400 220.903,204.400 221.307 C 204.400 221.638,203.905 222.232,203.300 222.627 C 201.737 223.650,201.114 224.338,201.373 224.757 C 201.497 224.957,201.062 225.083,200.406 225.038 C 199.751 224.992,199.136 225.145,199.039 225.378 C 198.942 225.610,198.836 225.350,198.803 224.800 C 198.748 223.878,198.717 223.862,198.400 224.600 C 198.100 225.299,198.053 225.255,198.028 224.253 C 198.005 223.309,197.859 223.144,197.200 223.316 C 196.761 223.431,196.308 223.375,196.196 223.193 C 196.083 223.010,196.307 222.778,196.695 222.677 C 197.353 222.505,197.351 222.490,196.676 222.446 C 196.237 222.418,196.065 222.218,196.238 221.938 C 196.411 221.658,196.348 221.585,196.078 221.752 C 195.597 222.049,194.000 221.221,194.000 220.675 C 194.000 220.100,192.911 219.225,192.561 219.519 C 192.377 219.674,192.461 219.492,192.749 219.116 C 193.208 218.515,193.166 218.452,192.400 218.600 C 191.698 218.735,191.618 218.661,191.986 218.217 C 192.351 217.777,192.162 217.566,191.035 217.158 C 190.070 216.809,189.744 216.508,189.999 216.201 C 190.456 215.651,189.048 214.313,188.541 214.816 C 188.269 215.087,184.000 211.508,184.000 211.009 C 184.000 210.935,184.315 210.922,184.700 210.980 C 185.085 211.038,185.173 211.007,184.895 210.912 C 184.617 210.817,184.485 210.586,184.602 210.397 C 184.718 210.209,184.626 209.939,184.397 209.798 C 184.168 209.656,184.030 209.756,184.090 210.020 C 184.151 210.284,183.946 210.592,183.636 210.705 C 183.248 210.845,183.150 210.708,183.320 210.265 C 183.457 209.907,183.322 209.483,183.016 209.311 C 182.713 209.140,182.405 208.737,182.332 208.416 C 182.148 207.602,181.460 206.848,181.100 207.066 C 180.935 207.165,180.800 207.027,180.800 206.757 C 180.800 206.487,180.689 206.378,180.552 206.514 C 180.197 206.869,179.200 205.774,179.200 205.029 C 179.200 204.661,178.858 204.400,178.376 204.400 C 177.923 204.400,177.664 204.220,177.800 204.000 C 177.936 203.780,177.869 203.600,177.651 203.600 C 177.432 203.600,177.140 203.240,177.000 202.800 C 176.860 202.360,176.478 202.000,176.149 202.000 C 175.821 202.000,175.657 201.831,175.785 201.624 C 175.913 201.417,175.384 200.742,174.609 200.124 C 173.834 199.506,173.200 198.852,173.200 198.671 C 173.200 198.248,172.156 197.201,171.729 197.196 C 171.548 197.194,170.972 196.651,170.449 195.989 C 169.651 194.979,169.400 194.867,168.884 195.293 C 168.349 195.734,168.326 195.694,168.703 194.985 C 169.069 194.298,168.959 194.029,168.003 193.268 C 167.380 192.772,165.374 190.837,163.545 188.968 C 161.717 187.099,159.811 185.467,159.310 185.342 C 158.810 185.216,158.400 184.942,158.400 184.733 C 158.400 184.524,158.220 184.464,158.000 184.600 C 157.780 184.736,157.600 184.496,157.600 184.066 C 157.600 183.637,157.311 183.175,156.958 183.039 C 156.606 182.904,156.412 182.545,156.529 182.242 C 156.676 181.856,156.508 181.751,155.970 181.892 C 155.127 182.112,154.893 181.392,155.700 181.063 C 155.975 180.951,155.623 180.912,154.918 180.975 C 154.213 181.039,153.650 180.980,153.666 180.845 C 153.771 179.956,153.542 179.189,153.229 179.382 C 152.929 179.567,152.132 178.060,152.340 177.701 C 152.506 177.415,150.575 175.600,150.104 175.600 C 149.801 175.600,149.664 175.420,149.800 175.200 C 149.936 174.980,149.756 174.800,149.400 174.800 C 149.008 174.800,148.867 174.616,149.042 174.332 C 149.240 174.011,149.108 173.950,148.621 174.137 C 148.093 174.339,147.971 174.254,148.143 173.805 C 148.271 173.472,148.189 173.200,147.961 173.200 C 147.734 173.200,146.694 172.323,145.650 171.251 C 143.868 169.422,142.306 168.500,141.411 168.750 C 141.197 168.810,141.310 168.531,141.662 168.130 C 142.255 167.454,142.232 167.326,141.351 166.408 C 140.828 165.863,140.400 165.638,140.400 165.908 C 140.400 166.179,140.580 166.400,140.800 166.400 C 141.020 166.400,141.200 166.611,141.200 166.870 C 141.200 167.128,140.748 166.915,140.196 166.396 C 139.449 165.695,139.321 165.370,139.696 165.132 C 140.054 164.905,139.986 164.810,139.463 164.806 C 139.057 164.803,138.631 164.442,138.517 164.004 C 138.403 163.567,138.150 163.308,137.955 163.428 C 137.760 163.549,137.600 163.449,137.600 163.206 C 137.600 162.964,137.142 162.278,136.583 161.683 C 136.023 161.087,135.675 160.897,135.810 161.260 C 135.944 161.622,135.862 162.038,135.627 162.183 C 135.268 162.405,135.004 161.421,135.136 160.349 C 135.189 159.923,132.495 157.639,132.240 157.893 C 132.108 158.025,132.000 157.910,132.000 157.638 C 132.000 157.062,128.441 153.200,127.910 153.200 C 127.714 153.200,127.664 153.380,127.800 153.600 C 128.227 154.290,127.809 154.037,127.040 153.139 C 126.357 152.341,126.355 152.297,127.008 152.548 C 127.600 152.775,127.633 152.722,127.211 152.214 C 126.935 151.881,126.545 151.710,126.345 151.834 C 126.144 151.958,126.030 151.821,126.090 151.530 C 126.151 151.238,125.975 151.045,125.700 151.100 C 125.425 151.155,125.200 150.941,125.200 150.624 C 125.200 150.307,124.992 149.919,124.738 149.762 C 124.427 149.569,124.384 149.659,124.607 150.038 C 124.789 150.347,124.551 150.261,124.078 149.847 C 123.606 149.432,123.327 148.918,123.460 148.704 C 123.608 148.463,123.338 148.429,122.753 148.615 C 121.873 148.894,121.847 148.862,122.390 148.158 C 122.711 147.741,122.837 147.512,122.671 147.649 C 122.369 147.898,117.776 143.415,117.105 142.216 C 116.910 141.868,116.582 141.688,116.375 141.815 C 116.169 141.943,115.997 141.722,115.994 141.324 C 115.989 140.710,115.929 140.691,115.600 141.200 C 115.288 141.683,115.211 141.619,115.206 140.876 C 115.203 140.338,115.026 140.060,114.782 140.211 C 114.186 140.579,113.206 139.651,113.468 138.966 C 113.629 138.548,113.495 138.465,112.979 138.663 C 112.496 138.849,112.360 138.788,112.555 138.473 C 112.749 138.158,112.609 138.093,112.121 138.268 C 111.724 138.411,111.533 138.380,111.697 138.201 C 112.051 137.810,111.291 136.797,110.651 136.806 C 110.403 136.809,110.470 137.003,110.800 137.237 C 111.333 137.614,111.333 137.642,110.800 137.487 C 110.470 137.392,110.218 137.058,110.241 136.746 C 110.263 136.434,110.038 135.951,109.741 135.674 C 109.424 135.378,109.200 135.341,109.200 135.584 C 109.200 135.813,109.009 136.000,108.776 136.000 C 108.543 136.000,108.451 135.840,108.572 135.645 C 108.893 135.126,107.717 134.280,107.156 134.627 C 106.852 134.815,106.781 134.754,106.962 134.462 C 107.133 134.185,106.987 134.000,106.600 134.000 C 106.244 134.000,106.050 133.843,106.169 133.650 C 106.471 133.161,104.310 133.199,103.700 133.693 C 103.354 133.974,103.200 133.953,103.200 133.625 C 103.200 133.365,103.039 133.252,102.842 133.374 C 102.645 133.496,102.398 133.371,102.293 133.098 C 101.993 132.320,98.000 132.198,98.000 132.967 M243.767 183.343 C 243.534 183.948,242.800 184.283,242.800 183.783 C 242.800 183.498,243.768 182.451,243.909 182.583 C 243.970 182.639,243.905 182.981,243.767 183.343 M234.000 193.200 C 234.000 193.420,233.925 193.600,233.833 193.600 C 233.741 193.600,233.342 193.724,232.946 193.876 C 232.303 194.123,232.289 194.082,232.813 193.491 C 233.481 192.739,234.000 192.612,234.000 193.200 M170.163 196.800 C 170.440 196.800,170.667 197.071,170.667 197.402 C 170.667 197.915,170.559 197.906,169.933 197.340 C 169.530 196.975,169.221 196.389,169.246 196.038 C 169.284 195.520,169.327 195.531,169.476 196.100 C 169.576 196.485,169.885 196.800,170.163 196.800 M185.778 211.635 C 185.339 212.346,186.307 213.054,186.900 212.456 C 187.301 212.052,187.248 212.011,186.631 212.246 C 186.019 212.479,185.914 212.401,186.118 211.869 C 186.406 211.118,186.190 210.969,185.778 211.635 M187.376 213.238 C 187.227 213.479,187.372 213.943,187.698 214.269 C 188.221 214.793,188.318 214.791,188.525 214.251 C 188.694 213.811,188.578 213.710,188.110 213.890 C 187.624 214.076,187.526 213.971,187.718 213.469 C 188.007 212.716,187.790 212.569,187.376 213.238 " stroke="none" fill="#acdcdc" fill-rule="evenodd"></path><path id="path1" d="M96.319 132.850 C 95.911 133.102,95.908 133.268,96.303 133.663 C 96.699 134.059,96.800 134.054,96.800 133.637 C 96.800 133.337,97.055 133.212,97.400 133.345 C 97.744 133.477,98.000 133.353,98.000 133.054 C 98.000 132.473,97.105 132.365,96.319 132.850 M100.000 132.828 C 99.244 133.071,99.415 133.116,100.700 133.009 C 101.635 132.932,102.400 133.044,102.400 133.258 C 102.400 133.472,102.580 133.536,102.800 133.400 C 103.020 133.264,103.200 133.379,103.200 133.656 C 103.200 134.044,103.309 134.051,103.673 133.687 C 104.624 132.736,102.108 132.148,100.000 132.828 M306.349 135.631 C 306.163 136.538,306.250 136.641,307.069 136.485 C 307.652 136.373,308.000 136.498,308.000 136.820 C 308.000 137.102,308.094 137.239,308.209 137.124 C 308.611 136.722,307.930 135.652,307.402 135.855 C 307.102 135.970,306.802 135.740,306.715 135.329 C 306.597 134.771,306.511 134.842,306.349 135.631 M289.527 136.292 C 289.063 136.855,289.095 136.880,289.800 136.505 C 290.240 136.271,290.750 136.076,290.933 136.073 C 291.632 136.060,291.531 135.765,290.810 135.711 C 290.394 135.679,289.816 135.941,289.527 136.292 M89.086 136.278 C 87.492 136.693,85.342 139.867,86.655 139.867 C 86.955 139.867,87.200 139.537,87.200 139.133 C 87.200 138.730,87.449 138.400,87.753 138.400 C 88.058 138.400,88.406 138.022,88.526 137.560 C 88.647 137.098,88.919 136.827,89.131 136.957 C 89.343 137.088,89.619 136.926,89.746 136.598 C 89.872 136.269,89.936 136.021,89.887 136.046 C 89.839 136.072,89.479 136.176,89.086 136.278 M110.092 136.875 C 110.179 137.136,110.509 137.420,110.825 137.505 C 111.293 137.632,111.288 137.582,110.800 137.237 C 110.470 137.003,110.403 136.809,110.651 136.806 C 111.178 136.799,112.266 137.994,111.749 138.012 C 111.557 138.019,111.729 138.215,112.130 138.449 C 113.197 139.069,113.387 138.603,112.539 137.440 C 111.796 136.420,109.785 135.956,110.092 136.875 M308.886 137.333 C 308.929 137.847,309.189 138.267,309.464 138.267 C 309.740 138.267,309.872 138.117,309.759 137.933 C 309.645 137.750,309.756 137.600,310.005 137.600 C 310.276 137.600,310.216 137.359,309.857 137.000 C 309.026 136.169,308.796 136.247,308.886 137.333 M113.495 139.055 C 113.178 139.558,114.267 140.666,114.676 140.257 C 114.818 140.116,114.737 140.000,114.496 140.000 C 114.255 140.000,113.996 139.685,113.920 139.300 C 113.829 138.842,113.682 138.757,113.495 139.055 M312.500 140.614 C 312.500 141.148,312.746 141.789,313.046 142.038 C 313.346 142.287,313.475 142.678,313.334 142.907 C 313.190 143.140,313.268 143.205,313.511 143.055 C 313.749 142.908,314.058 142.970,314.196 143.193 C 314.334 143.417,314.662 143.595,314.924 143.588 C 315.186 143.581,315.081 143.390,314.692 143.163 C 314.302 142.936,314.088 142.582,314.215 142.375 C 314.343 142.169,314.147 142.000,313.781 142.000 C 313.339 142.000,313.196 141.788,313.356 141.370 C 313.489 141.024,313.351 140.494,313.049 140.192 C 312.584 139.727,312.500 139.791,312.500 140.614 M314.367 145.220 C 313.889 145.516,313.888 145.643,314.362 146.083 C 314.821 146.511,314.862 146.496,314.600 146.000 C 314.342 145.512,314.384 145.494,314.821 145.900 C 315.531 146.558,315.867 146.532,315.867 145.817 C 315.867 145.077,315.095 144.770,314.367 145.220 M82.769 146.300 C 82.753 146.465,82.678 146.915,82.605 147.300 C 82.530 147.693,82.713 148.000,83.023 148.000 C 83.349 148.000,83.481 147.755,83.345 147.400 C 83.218 147.070,83.324 146.800,83.581 146.800 C 83.837 146.800,83.936 146.620,83.800 146.400 C 83.511 145.932,82.814 145.865,82.769 146.300 M121.215 146.200 C 121.221 146.420,121.484 146.942,121.800 147.359 C 122.116 147.776,122.280 148.271,122.164 148.459 C 122.048 148.647,122.143 148.800,122.376 148.800 C 122.991 148.800,122.898 148.355,122.000 147.000 C 121.563 146.340,121.210 145.980,121.215 146.200 M315.600 150.800 C 315.835 151.240,316.202 151.600,316.414 151.600 C 316.626 151.600,316.800 151.240,316.800 150.800 C 316.800 150.262,316.533 150.000,315.986 150.000 C 315.296 150.000,315.237 150.122,315.600 150.800 M82.406 152.513 C 82.419 153.551,83.135 154.225,83.663 153.697 C 84.059 153.301,84.057 153.200,83.656 153.200 C 83.379 153.200,83.252 153.039,83.374 152.842 C 83.496 152.645,83.326 152.381,82.998 152.254 C 82.668 152.128,82.403 152.244,82.406 152.513 M313.000 160.000 C 313.136 160.220,313.507 160.400,313.824 160.400 C 314.141 160.400,314.400 160.220,314.400 160.000 C 314.400 159.780,314.029 159.600,313.576 159.600 C 313.123 159.600,312.864 159.780,313.000 160.000 M86.656 160.278 C 86.153 160.780,86.413 161.815,87.157 162.280 C 87.922 162.758,88.400 162.599,88.400 161.867 C 88.400 161.647,88.282 161.585,88.137 161.730 C 87.803 162.064,86.798 161.250,86.806 160.651 C 86.809 160.403,86.987 160.470,87.200 160.800 C 87.433 161.161,87.590 161.210,87.594 160.924 C 87.601 160.339,87.005 159.928,86.656 160.278 M135.200 161.667 C 135.200 162.070,135.284 162.400,135.386 162.400 C 135.488 162.400,135.748 162.070,135.964 161.667 C 136.261 161.113,136.215 160.933,135.778 160.933 C 135.460 160.933,135.200 161.263,135.200 161.667 M136.800 161.938 C 136.800 162.192,136.967 162.400,137.171 162.400 C 137.375 162.400,137.604 162.715,137.680 163.100 C 137.769 163.548,137.920 163.639,138.100 163.353 C 138.255 163.108,138.025 162.585,137.591 162.191 C 137.139 161.783,136.800 161.674,136.800 161.938 M260.233 166.034 C 259.629 166.712,259.263 167.387,259.422 167.534 C 259.580 167.680,259.793 167.565,259.896 167.277 C 259.998 166.990,260.522 166.315,261.059 165.777 C 261.597 165.240,261.878 164.800,261.684 164.800 C 261.491 164.800,260.838 165.355,260.233 166.034 M139.999 166.198 C 140.514 166.748,141.041 167.083,141.168 166.944 C 141.296 166.804,141.175 166.610,140.900 166.512 C 140.625 166.414,140.400 166.078,140.400 165.767 C 140.400 165.455,140.099 165.200,139.730 165.200 C 139.176 165.200,139.222 165.372,139.999 166.198 M141.562 168.300 C 141.267 168.685,141.179 168.871,141.366 168.714 C 141.552 168.557,142.031 168.602,142.428 168.815 C 142.904 169.070,143.238 169.062,143.405 168.791 C 143.545 168.565,143.511 168.406,143.330 168.437 C 142.289 168.618,141.800 168.388,142.400 168.000 C 142.730 167.787,142.797 167.609,142.549 167.606 C 142.301 167.603,141.857 167.915,141.562 168.300 M152.293 177.440 C 151.942 177.791,152.856 179.613,153.258 179.364 C 153.545 179.187,153.762 179.961,153.670 180.831 C 153.650 181.021,154.482 181.021,155.598 180.833 C 155.707 180.815,155.047 180.095,154.132 179.233 C 153.217 178.371,152.573 177.561,152.701 177.433 C 152.829 177.305,152.843 177.200,152.733 177.200 C 152.623 177.200,152.425 177.308,152.293 177.440 M155.200 181.600 C 155.200 181.820,155.470 182.000,155.800 182.000 C 156.130 182.000,156.400 181.820,156.400 181.600 C 156.400 181.380,156.130 181.200,155.800 181.200 C 155.470 181.200,155.200 181.380,155.200 181.600 M156.564 182.058 C 156.407 182.313,156.575 182.739,156.939 183.005 C 157.303 183.271,157.600 183.794,157.600 184.168 C 157.600 184.541,157.765 184.745,157.966 184.621 C 158.167 184.497,158.392 184.552,158.466 184.745 C 158.683 185.310,160.400 185.717,160.400 185.203 C 160.400 184.956,160.220 184.864,160.000 185.000 C 159.780 185.136,159.600 184.956,159.600 184.600 C 159.600 184.244,159.420 184.064,159.200 184.200 C 158.980 184.336,158.797 184.122,158.794 183.724 C 158.789 183.110,158.729 183.091,158.400 183.600 C 158.072 184.108,158.011 184.088,158.006 183.471 C 157.998 182.469,156.947 181.439,156.564 182.058 M243.300 183.023 C 242.711 183.663,242.662 184.000,243.157 184.000 C 243.498 184.000,244.137 182.796,243.909 182.583 C 243.849 182.527,243.575 182.725,243.300 183.023 M232.813 193.491 C 232.289 194.082,232.303 194.123,232.946 193.876 C 233.342 193.724,233.741 193.600,233.833 193.600 C 233.925 193.600,234.000 193.420,234.000 193.200 C 234.000 192.612,233.481 192.739,232.813 193.491 M168.634 195.057 C 168.432 195.582,168.493 195.621,168.940 195.250 C 169.384 194.881,169.694 195.033,170.449 195.989 C 170.972 196.651,171.570 197.194,171.778 197.196 C 171.987 197.198,171.546 196.570,170.800 195.800 C 169.269 194.220,168.991 194.125,168.634 195.057 M169.246 196.038 C 169.221 196.389,169.530 196.975,169.933 197.340 C 170.559 197.906,170.667 197.915,170.667 197.402 C 170.667 197.071,170.440 196.800,170.163 196.800 C 169.885 196.800,169.576 196.485,169.476 196.100 C 169.327 195.531,169.284 195.520,169.246 196.038 M179.200 204.934 C 179.200 205.752,180.175 206.892,180.552 206.514 C 180.689 206.378,180.800 206.487,180.800 206.757 C 180.800 207.027,180.935 207.165,181.100 207.066 C 181.460 206.848,182.148 207.602,182.332 208.416 C 182.405 208.737,182.713 209.140,183.016 209.311 C 183.322 209.483,183.457 209.907,183.320 210.265 C 183.150 210.708,183.248 210.845,183.636 210.705 C 183.946 210.592,184.151 210.284,184.090 210.020 C 184.030 209.756,184.168 209.656,184.397 209.798 C 184.626 209.939,184.718 210.209,184.602 210.397 C 184.485 210.586,184.617 210.817,184.895 210.912 C 185.173 211.007,185.085 211.038,184.700 210.980 C 183.707 210.831,183.763 210.917,186.095 213.142 C 187.337 214.326,188.355 215.006,188.595 214.810 C 189.106 214.394,189.902 215.226,189.781 216.050 C 189.724 216.436,190.211 216.860,191.066 217.169 C 192.168 217.568,192.351 217.777,191.986 218.217 C 191.618 218.661,191.698 218.735,192.400 218.600 C 193.166 218.452,193.208 218.515,192.749 219.116 C 192.461 219.492,192.377 219.674,192.561 219.519 C 192.914 219.222,194.000 220.102,194.000 220.685 C 194.000 220.873,194.510 221.329,195.133 221.697 C 197.495 223.092,196.248 221.228,192.098 217.156 C 188.809 213.931,187.847 213.187,187.538 213.634 C 187.253 214.047,187.216 213.957,187.401 213.300 C 187.615 212.537,187.513 212.415,186.727 212.500 C 186.018 212.576,185.800 212.401,185.800 211.752 C 185.800 211.228,184.542 209.629,182.500 207.558 C 180.284 205.310,179.200 204.448,179.200 204.934 M215.900 210.327 C 215.295 210.922,214.800 211.550,214.800 211.722 C 214.800 211.895,215.258 211.578,215.818 211.018 C 216.378 210.458,217.008 210.000,217.218 210.000 C 217.428 210.000,217.600 209.820,217.600 209.600 C 217.600 208.950,217.071 209.176,215.900 210.327 M210.233 216.034 C 209.629 216.712,209.263 217.387,209.422 217.534 C 209.580 217.680,209.793 217.565,209.896 217.277 C 209.998 216.990,210.522 216.315,211.059 215.777 C 211.597 215.240,211.878 214.800,211.684 214.800 C 211.491 214.800,210.838 215.355,210.233 216.034 M152.081 226.782 C 152.633 227.666,153.022 227.555,152.662 226.617 C 152.532 226.278,152.238 226.000,152.009 226.000 C 151.746 226.000,151.772 226.287,152.081 226.782 M187.674 262.769 C 187.938 263.192,188.487 263.514,188.893 263.483 C 189.555 263.433,189.536 263.354,188.716 262.723 C 187.510 261.795,187.077 261.814,187.674 262.769 M190.200 264.497 C 191.220 265.099,192.072 265.240,191.774 264.758 C 191.648 264.554,191.390 264.483,191.200 264.600 C 191.010 264.717,190.742 264.630,190.604 264.407 C 190.466 264.183,190.138 264.005,189.876 264.012 C 189.614 264.019,189.760 264.237,190.200 264.497 M204.981 265.970 C 205.107 266.173,204.893 266.423,204.505 266.525 C 204.117 266.627,204.285 266.692,204.878 266.670 C 205.709 266.638,205.858 266.511,205.529 266.115 C 205.038 265.523,204.640 265.418,204.981 265.970 M200.600 266.798 C 199.957 267.052,199.918 267.161,200.400 267.350 C 201.214 267.671,203.333 267.400,203.480 266.957 C 203.632 266.497,201.641 266.387,200.600 266.798 " stroke="none" fill="#a4dcdc" fill-rule="evenodd"></path><path id="path2" d="M117.200 142.324 C 117.200 142.748,118.745 144.197,118.949 143.964 C 119.028 143.874,118.667 143.389,118.146 142.886 C 117.626 142.383,117.200 142.130,117.200 142.324 M119.999 145.398 C 120.514 145.948,121.028 146.306,121.139 146.194 C 121.365 145.969,119.798 144.400,119.347 144.400 C 119.189 144.400,119.483 144.849,119.999 145.398 M143.477 168.710 C 143.390 168.869,144.274 169.941,145.442 171.090 C 146.609 172.240,147.636 173.050,147.723 172.890 C 147.810 172.731,146.926 171.659,145.758 170.510 C 144.591 169.360,143.564 168.550,143.477 168.710 M94.400 169.352 C 94.400 169.782,96.795 172.138,97.012 171.921 C 97.109 171.825,96.561 171.137,95.794 170.394 C 95.027 169.651,94.400 169.182,94.400 169.352 M98.590 173.848 C 98.947 174.204,99.359 174.374,99.507 174.226 C 99.656 174.078,99.512 173.789,99.188 173.584 C 98.243 172.987,97.887 173.144,98.590 173.848 M163.228 188.742 C 164.862 190.470,166.470 192.008,166.800 192.161 C 167.130 192.314,165.874 190.900,164.009 189.020 C 159.758 184.734,159.272 184.560,163.228 188.742 M111.600 186.530 C 111.600 186.918,113.235 188.499,113.432 188.302 C 113.523 188.211,113.148 187.714,112.598 187.199 C 112.049 186.683,111.600 186.382,111.600 186.530 M176.027 201.600 C 177.555 203.140,178.934 204.400,179.092 204.400 C 179.250 204.400,178.128 203.140,176.600 201.600 C 175.072 200.060,173.693 198.800,173.536 198.800 C 173.378 198.800,174.500 200.060,176.027 201.600 M125.600 200.629 C 125.600 200.754,125.870 201.127,126.200 201.457 C 126.851 202.108,126.933 202.011,126.557 201.033 C 126.329 200.438,125.600 200.130,125.600 200.629 M128.000 202.952 C 128.000 203.382,130.395 205.738,130.612 205.521 C 130.709 205.425,130.161 204.737,129.394 203.994 C 128.627 203.251,128.000 202.782,128.000 202.952 M144.400 219.352 C 144.400 219.782,146.795 222.138,147.012 221.921 C 147.109 221.825,146.561 221.137,145.794 220.394 C 145.027 219.651,144.400 219.182,144.400 219.352 M148.590 223.848 C 148.947 224.204,149.359 224.374,149.507 224.226 C 149.656 224.078,149.512 223.789,149.188 223.584 C 148.243 222.987,147.887 223.144,148.590 223.848 M161.600 236.530 C 161.600 236.918,163.235 238.499,163.432 238.302 C 163.523 238.211,163.148 237.714,162.598 237.199 C 162.049 236.683,161.600 236.382,161.600 236.530 M175.600 250.629 C 175.600 250.754,175.870 251.127,176.200 251.457 C 176.851 252.108,176.933 252.011,176.557 251.033 C 176.329 250.438,175.600 250.130,175.600 250.629 M178.000 252.952 C 178.000 253.382,180.395 255.738,180.612 255.521 C 180.709 255.425,180.161 254.737,179.394 253.994 C 178.627 253.251,178.000 252.782,178.000 252.952 " stroke="none" fill="#b0dcdc" fill-rule="evenodd"></path><path id="path3" d="M117.200 142.324 C 117.200 142.748,118.745 144.197,118.949 143.964 C 119.028 143.874,118.667 143.389,118.146 142.886 C 117.626 142.383,117.200 142.130,117.200 142.324 M119.999 145.398 C 120.514 145.948,121.028 146.306,121.139 146.194 C 121.365 145.969,119.798 144.400,119.347 144.400 C 119.189 144.400,119.483 144.849,119.999 145.398 M143.477 168.710 C 143.390 168.869,144.274 169.941,145.442 171.090 C 146.609 172.240,147.636 173.050,147.723 172.890 C 147.810 172.731,146.926 171.659,145.758 170.510 C 144.591 169.360,143.564 168.550,143.477 168.710 M94.400 169.352 C 94.400 169.782,96.795 172.138,97.012 171.921 C 97.109 171.825,96.561 171.137,95.794 170.394 C 95.027 169.651,94.400 169.182,94.400 169.352 M98.590 173.848 C 98.947 174.204,99.359 174.374,99.507 174.226 C 99.656 174.078,99.512 173.789,99.188 173.584 C 98.243 172.987,97.887 173.144,98.590 173.848 M163.228 188.742 C 164.862 190.470,166.470 192.008,166.800 192.161 C 167.130 192.314,165.874 190.900,164.009 189.020 C 159.758 184.734,159.272 184.560,163.228 188.742 M111.600 186.530 C 111.600 186.918,113.235 188.499,113.432 188.302 C 113.523 188.211,113.148 187.714,112.598 187.199 C 112.049 186.683,111.600 186.382,111.600 186.530 M176.027 201.600 C 177.555 203.140,178.934 204.400,179.092 204.400 C 179.250 204.400,178.128 203.140,176.600 201.600 C 175.072 200.060,173.693 198.800,173.536 198.800 C 173.378 198.800,174.500 200.060,176.027 201.600 M125.600 200.629 C 125.600 200.754,125.870 201.127,126.200 201.457 C 126.851 202.108,126.933 202.011,126.557 201.033 C 126.329 200.438,125.600 200.130,125.600 200.629 M128.000 202.952 C 128.000 203.382,130.395 205.738,130.612 205.521 C 130.709 205.425,130.161 204.737,129.394 203.994 C 128.627 203.251,128.000 202.782,128.000 202.952 M144.400 219.352 C 144.400 219.782,146.795 222.138,147.012 221.921 C 147.109 221.825,146.561 221.137,145.794 220.394 C 145.027 219.651,144.400 219.182,144.400 219.352 M148.590 223.848 C 148.947 224.204,149.359 224.374,149.507 224.226 C 149.656 224.078,149.512 223.789,149.188 223.584 C 148.243 222.987,147.887 223.144,148.590 223.848 M161.600 236.530 C 161.600 236.918,163.235 238.499,163.432 238.302 C 163.523 238.211,163.148 237.714,162.598 237.199 C 162.049 236.683,161.600 236.382,161.600 236.530 M175.600 250.629 C 175.600 250.754,175.870 251.127,176.200 251.457 C 176.851 252.108,176.933 252.011,176.557 251.033 C 176.329 250.438,175.600 250.130,175.600 250.629 M178.000 252.952 C 178.000 253.382,180.395 255.738,180.612 255.521 C 180.709 255.425,180.161 254.737,179.394 253.994 C 178.627 253.251,178.000 252.782,178.000 252.952 " stroke="none" fill="#b0dcdc" fill-rule="evenodd"></path><path id="path4" d="M117.200 142.324 C 117.200 142.748,118.745 144.197,118.949 143.964 C 119.028 143.874,118.667 143.389,118.146 142.886 C 117.626 142.383,117.200 142.130,117.200 142.324 M119.999 145.398 C 120.514 145.948,121.028 146.306,121.139 146.194 C 121.365 145.969,119.798 144.400,119.347 144.400 C 119.189 144.400,119.483 144.849,119.999 145.398 M143.477 168.710 C 143.390 168.869,144.274 169.941,145.442 171.090 C 146.609 172.240,147.636 173.050,147.723 172.890 C 147.810 172.731,146.926 171.659,145.758 170.510 C 144.591 169.360,143.564 168.550,143.477 168.710 M94.400 169.352 C 94.400 169.782,96.795 172.138,97.012 171.921 C 97.109 171.825,96.561 171.137,95.794 170.394 C 95.027 169.651,94.400 169.182,94.400 169.352 M98.590 173.848 C 98.947 174.204,99.359 174.374,99.507 174.226 C 99.656 174.078,99.512 173.789,99.188 173.584 C 98.243 172.987,97.887 173.144,98.590 173.848 M163.228 188.742 C 164.862 190.470,166.470 192.008,166.800 192.161 C 167.130 192.314,165.874 190.900,164.009 189.020 C 159.758 184.734,159.272 184.560,163.228 188.742 M111.600 186.530 C 111.600 186.918,113.235 188.499,113.432 188.302 C 113.523 188.211,113.148 187.714,112.598 187.199 C 112.049 186.683,111.600 186.382,111.600 186.530 M176.027 201.600 C 177.555 203.140,178.934 204.400,179.092 204.400 C 179.250 204.400,178.128 203.140,176.600 201.600 C 175.072 200.060,173.693 198.800,173.536 198.800 C 173.378 198.800,174.500 200.060,176.027 201.600 M125.600 200.629 C 125.600 200.754,125.870 201.127,126.200 201.457 C 126.851 202.108,126.933 202.011,126.557 201.033 C 126.329 200.438,125.600 200.130,125.600 200.629 M128.000 202.952 C 128.000 203.382,130.395 205.738,130.612 205.521 C 130.709 205.425,130.161 204.737,129.394 203.994 C 128.627 203.251,128.000 202.782,128.000 202.952 M144.400 219.352 C 144.400 219.782,146.795 222.138,147.012 221.921 C 147.109 221.825,146.561 221.137,145.794 220.394 C 145.027 219.651,144.400 219.182,144.400 219.352 M148.590 223.848 C 148.947 224.204,149.359 224.374,149.507 224.226 C 149.656 224.078,149.512 223.789,149.188 223.584 C 148.243 222.987,147.887 223.144,148.590 223.848 M161.600 236.530 C 161.600 236.918,163.235 238.499,163.432 238.302 C 163.523 238.211,163.148 237.714,162.598 237.199 C 162.049 236.683,161.600 236.382,161.600 236.530 M175.600 250.629 C 175.600 250.754,175.870 251.127,176.200 251.457 C 176.851 252.108,176.933 252.011,176.557 251.033 C 176.329 250.438,175.600 250.130,175.600 250.629 M178.000 252.952 C 178.000 253.382,180.395 255.738,180.612 255.521 C 180.709 255.425,180.161 254.737,179.394 253.994 C 178.627 253.251,178.000 252.782,178.000 252.952 " stroke="none" fill="#b0dcdc" fill-rule="evenodd"></path></g></svg>