<svg id="svg" version="1.1" xmlns="http://www.w3.org/2000/svg" xmlns:xlink="http://www.w3.org/1999/xlink" width="400" height="400" viewBox="0, 0, 400,400"><g id="svgg"><path id="path0" d="M17.233 90.161 C 16.939 90.515,16.287 90.658,15.482 90.546 C 14.508 90.410,14.344 90.467,14.800 90.784 C 15.534 91.296,14.132 91.184,13.300 90.665 C 13.018 90.489,12.800 90.538,12.800 90.776 C 12.800 91.009,12.485 91.214,12.100 91.232 C 11.682 91.250,11.601 91.344,11.900 91.465 C 12.827 91.839,12.409 92.417,11.395 92.163 C 10.346 91.900,9.040 92.618,9.428 93.245 C 9.549 93.440,9.176 93.600,8.600 93.600 C 8.004 93.600,7.659 93.772,7.800 94.000 C 8.040 94.389,7.517 94.562,6.500 94.430 C 6.225 94.394,6.000 94.653,6.000 95.006 C 6.000 95.394,5.815 95.533,5.532 95.358 C 5.219 95.165,5.147 95.285,5.315 95.722 C 5.452 96.081,5.401 96.476,5.200 96.600 C 4.999 96.724,4.947 97.135,5.084 97.513 C 5.247 97.964,5.069 97.883,4.563 97.276 L 3.794 96.352 3.330 97.579 C 3.076 98.253,3.002 98.722,3.167 98.620 C 3.332 98.519,3.467 98.689,3.467 99.000 C 3.467 99.311,3.317 99.472,3.133 99.359 C 2.950 99.245,2.787 99.388,2.772 99.676 C 2.756 99.964,2.589 99.840,2.400 99.400 C 2.069 98.629,2.055 98.631,2.028 99.476 C 2.013 99.958,1.817 100.466,1.593 100.604 C 1.370 100.742,1.278 101.002,1.389 101.182 C 1.500 101.362,1.327 101.729,1.004 101.997 C 0.680 102.265,0.428 102.871,0.443 103.342 C 0.458 103.814,0.344 104.605,0.189 105.100 C 0.034 105.595,0.069 106.000,0.268 106.000 C 0.467 106.000,0.657 106.364,0.691 106.809 C 0.724 107.253,0.594 107.520,0.402 107.401 C 0.210 107.283,0.068 107.723,0.087 108.379 C 0.107 109.069,0.290 109.468,0.522 109.324 C 0.752 109.183,0.799 109.277,0.634 109.546 C 0.220 110.215,-0.048 113.999,0.281 114.531 C 0.433 114.776,0.545 115.567,0.530 116.289 C 0.516 117.010,0.660 117.600,0.852 117.600 C 1.043 117.600,1.200 117.866,1.200 118.191 C 1.200 118.516,1.656 119.080,2.212 119.445 C 2.769 119.810,3.133 120.201,3.020 120.314 C 2.907 120.427,3.306 120.963,3.907 121.507 C 4.508 122.050,4.787 122.380,4.528 122.240 C 4.268 122.101,3.939 122.174,3.798 122.403 C 3.656 122.632,3.779 122.770,4.070 122.710 C 4.362 122.649,4.555 122.825,4.500 123.100 C 4.445 123.375,4.625 123.555,4.900 123.500 C 5.175 123.445,5.357 123.619,5.305 123.886 C 5.252 124.154,5.460 124.275,5.769 124.157 C 6.111 124.025,6.547 124.380,6.891 125.071 C 7.200 125.692,7.666 126.155,7.927 126.100 C 8.187 126.045,8.355 126.225,8.300 126.500 C 8.245 126.775,8.525 126.973,8.921 126.941 C 9.394 126.902,9.598 127.110,9.512 127.541 C 9.441 127.903,9.746 128.395,10.191 128.633 C 10.636 128.871,10.955 129.276,10.900 129.533 C 10.845 129.790,11.070 130.000,11.400 130.000 C 11.730 130.000,11.955 130.225,11.900 130.500 C 11.845 130.775,12.025 130.955,12.300 130.900 C 12.575 130.845,12.755 130.962,12.700 131.160 C 12.645 131.358,12.698 131.493,12.818 131.460 C 13.162 131.366,15.010 133.327,15.307 134.101 C 15.454 134.485,15.769 134.800,16.006 134.800 C 16.448 134.800,18.346 136.537,18.509 137.091 C 18.559 137.261,18.735 137.355,18.900 137.300 C 19.065 137.245,19.155 137.425,19.100 137.700 C 19.045 137.975,19.225 138.155,19.500 138.100 C 19.775 138.045,20.000 138.270,20.000 138.600 C 20.000 138.930,20.210 139.155,20.467 139.100 C 20.724 139.045,21.129 139.364,21.367 139.809 C 21.605 140.254,22.097 140.559,22.459 140.488 C 22.890 140.402,23.098 140.606,23.059 141.079 C 23.027 141.475,23.225 141.755,23.500 141.700 C 23.775 141.645,23.955 141.813,23.900 142.073 C 23.845 142.334,24.308 142.800,24.929 143.109 C 25.620 143.453,25.975 143.889,25.843 144.231 C 25.725 144.539,25.757 144.748,25.914 144.695 C 26.071 144.643,26.234 144.758,26.275 144.951 C 26.316 145.143,26.746 145.503,27.230 145.751 C 27.714 145.998,28.040 146.320,27.955 146.468 C 27.768 146.790,29.598 148.800,30.078 148.800 C 30.441 148.800,34.744 152.987,34.904 153.496 C 34.957 153.663,35.135 153.755,35.300 153.700 C 35.465 153.645,35.555 153.825,35.500 154.100 C 35.445 154.375,35.625 154.555,35.900 154.500 C 36.175 154.445,36.355 154.625,36.300 154.900 C 36.245 155.175,36.425 155.355,36.700 155.300 C 36.975 155.245,37.200 155.470,37.200 155.800 C 37.200 156.130,37.425 156.355,37.700 156.300 C 37.975 156.245,38.151 156.438,38.090 156.730 C 38.030 157.021,38.136 157.163,38.326 157.045 C 38.517 156.928,39.070 157.369,39.557 158.027 C 40.046 158.689,40.637 159.101,40.882 158.949 C 41.141 158.789,41.211 158.859,41.051 159.118 C 40.899 159.363,41.311 159.954,41.973 160.443 C 42.631 160.930,43.072 161.483,42.955 161.674 C 42.837 161.864,42.979 161.970,43.270 161.910 C 43.562 161.849,43.755 162.025,43.700 162.300 C 43.645 162.575,43.870 162.800,44.200 162.800 C 44.530 162.800,44.755 163.025,44.700 163.300 C 44.645 163.575,44.825 163.755,45.100 163.700 C 45.375 163.645,45.555 163.825,45.500 164.100 C 45.445 164.375,45.625 164.555,45.900 164.500 C 46.175 164.445,46.355 164.535,46.300 164.700 C 46.245 164.865,46.294 165.000,46.409 165.000 C 46.761 165.000,51.200 169.560,51.200 169.922 C 51.200 170.402,53.210 172.232,53.532 172.045 C 53.680 171.960,54.002 172.286,54.249 172.770 C 54.497 173.254,54.857 173.684,55.049 173.725 C 55.242 173.766,55.357 173.929,55.305 174.086 C 55.252 174.243,55.461 174.275,55.769 174.157 C 56.111 174.025,56.547 174.380,56.891 175.071 C 57.200 175.692,57.666 176.155,57.927 176.100 C 58.187 176.045,58.355 176.225,58.300 176.500 C 58.245 176.775,58.525 176.973,58.921 176.941 C 59.394 176.902,59.598 177.110,59.512 177.541 C 59.441 177.903,59.746 178.395,60.191 178.633 C 60.636 178.871,60.955 179.276,60.900 179.533 C 60.845 179.790,61.070 180.000,61.400 180.000 C 61.730 180.000,61.955 180.225,61.900 180.500 C 61.845 180.775,62.025 180.955,62.300 180.900 C 62.575 180.845,62.755 180.935,62.700 181.100 C 62.645 181.265,62.698 181.400,62.818 181.400 C 63.219 181.400,65.200 183.558,65.200 183.994 C 65.200 184.231,65.515 184.546,65.899 184.693 C 66.620 184.970,68.600 186.794,68.600 187.182 C 68.600 187.302,68.735 187.355,68.900 187.300 C 69.065 187.245,69.155 187.425,69.100 187.700 C 69.045 187.975,69.225 188.155,69.500 188.100 C 69.775 188.045,70.000 188.270,70.000 188.600 C 70.000 188.930,70.210 189.155,70.467 189.100 C 70.724 189.045,71.129 189.364,71.367 189.809 C 71.605 190.254,72.097 190.559,72.459 190.488 C 72.890 190.402,73.098 190.606,73.059 191.079 C 73.027 191.475,73.225 191.755,73.500 191.700 C 73.775 191.645,73.955 191.813,73.900 192.073 C 73.845 192.334,74.308 192.800,74.929 193.109 C 75.620 193.453,75.975 193.889,75.843 194.231 C 75.725 194.539,75.757 194.748,75.914 194.695 C 76.071 194.643,76.234 194.758,76.275 194.951 C 76.316 195.143,76.746 195.503,77.230 195.751 C 77.714 195.998,78.096 196.380,78.079 196.600 C 78.042 197.083,79.602 198.800,80.078 198.800 C 80.441 198.800,84.744 202.987,84.904 203.496 C 84.957 203.663,85.135 203.755,85.300 203.700 C 85.465 203.645,85.555 203.825,85.500 204.100 C 85.445 204.375,85.625 204.555,85.900 204.500 C 86.175 204.445,86.355 204.625,86.300 204.900 C 86.245 205.175,86.425 205.355,86.700 205.300 C 86.975 205.245,87.200 205.470,87.200 205.800 C 87.200 206.130,87.425 206.355,87.700 206.300 C 87.975 206.245,88.151 206.438,88.090 206.730 C 88.030 207.021,88.136 207.163,88.326 207.045 C 88.517 206.928,89.070 207.369,89.557 208.027 C 90.046 208.689,90.637 209.101,90.882 208.949 C 91.141 208.789,91.211 208.859,91.051 209.118 C 90.899 209.363,91.311 209.954,91.973 210.443 C 92.631 210.930,93.072 211.483,92.955 211.674 C 92.837 211.864,92.979 211.970,93.270 211.910 C 93.562 211.849,93.755 212.025,93.700 212.300 C 93.645 212.575,93.870 212.800,94.200 212.800 C 94.530 212.800,94.755 213.025,94.700 213.300 C 94.645 213.575,94.825 213.755,95.100 213.700 C 95.375 213.645,95.555 213.825,95.500 214.100 C 95.445 214.375,95.625 214.555,95.900 214.500 C 96.175 214.445,96.355 214.625,96.300 214.900 C 96.245 215.175,96.425 215.355,96.700 215.300 C 96.975 215.245,97.200 215.402,97.200 215.649 C 97.200 215.970,97.362 215.964,97.769 215.626 C 98.235 215.239,98.298 215.302,98.122 215.977 C 97.968 216.566,98.097 216.800,98.577 216.800 C 98.946 216.800,99.170 216.935,99.076 217.100 C 98.828 217.537,100.472 218.977,101.403 219.138 C 102.438 219.317,102.721 219.600,101.867 219.600 C 101.500 219.600,101.200 219.749,101.200 219.930 C 101.200 220.405,103.213 222.230,103.532 222.045 C 103.680 221.960,104.002 222.286,104.249 222.770 C 104.497 223.254,104.857 223.684,105.049 223.725 C 105.242 223.766,105.361 223.917,105.314 224.059 C 105.266 224.201,105.581 224.225,106.014 224.112 C 106.596 223.960,106.800 224.108,106.800 224.684 C 106.800 225.697,108.585 227.380,109.233 226.979 C 109.586 226.761,109.662 226.920,109.500 227.537 C 109.345 228.131,109.458 228.400,109.861 228.400 C 110.183 228.400,110.333 228.584,110.194 228.810 C 110.055 229.035,110.179 229.170,110.470 229.110 C 110.762 229.049,110.955 229.225,110.900 229.500 C 110.845 229.775,111.081 230.000,111.424 230.000 C 111.767 230.000,111.951 230.156,111.833 230.347 C 111.715 230.537,111.975 231.015,112.409 231.409 C 112.844 231.802,113.200 231.998,113.200 231.844 C 113.200 231.393,115.013 233.335,115.307 234.101 C 115.454 234.485,115.769 234.800,116.006 234.800 C 116.243 234.800,116.886 235.250,117.436 235.800 C 117.986 236.350,118.310 236.800,118.156 236.800 C 118.002 236.800,118.198 237.156,118.591 237.591 C 118.985 238.025,119.463 238.285,119.653 238.167 C 119.844 238.049,120.000 238.233,120.000 238.576 C 120.000 238.919,120.225 239.155,120.500 239.100 C 120.775 239.045,120.951 239.238,120.890 239.530 C 120.830 239.821,120.965 239.945,121.190 239.806 C 121.416 239.667,121.600 239.817,121.600 240.139 C 121.600 240.542,121.869 240.655,122.463 240.500 C 123.080 240.338,123.239 240.414,123.021 240.767 C 122.620 241.415,124.303 243.200,125.316 243.200 C 125.892 243.200,126.040 243.404,125.888 243.986 C 125.775 244.419,125.799 244.734,125.941 244.686 C 126.083 244.639,126.234 244.758,126.275 244.951 C 126.316 245.143,126.746 245.503,127.230 245.751 C 127.714 245.998,128.096 246.380,128.079 246.600 C 128.042 247.078,129.600 248.800,130.070 248.800 C 130.251 248.800,130.400 248.500,130.400 248.133 C 130.400 247.279,130.683 247.562,130.862 248.597 C 131.023 249.528,132.463 251.172,132.900 250.924 C 133.065 250.830,133.200 251.054,133.200 251.423 C 133.200 251.903,133.434 252.032,134.023 251.878 C 134.698 251.702,134.761 251.765,134.374 252.231 C 134.036 252.638,134.030 252.800,134.351 252.800 C 134.598 252.800,134.755 253.025,134.700 253.300 C 134.645 253.575,134.825 253.755,135.100 253.700 C 135.375 253.645,135.555 253.825,135.500 254.100 C 135.445 254.375,135.625 254.555,135.900 254.500 C 136.175 254.445,136.355 254.625,136.300 254.900 C 136.245 255.175,136.425 255.355,136.700 255.300 C 136.975 255.245,137.200 255.460,137.200 255.777 C 137.200 256.147,137.500 256.296,138.036 256.193 C 138.735 256.059,138.791 256.129,138.379 256.625 C 137.973 257.115,138.001 257.174,138.543 256.966 C 138.966 256.804,139.200 256.921,139.200 257.295 C 139.200 257.974,140.541 259.295,140.932 259.001 C 141.080 258.890,141.110 258.920,140.999 259.068 C 140.705 259.459,142.026 260.800,142.705 260.800 C 143.079 260.800,143.196 261.034,143.034 261.457 C 142.826 261.999,142.885 262.027,143.375 261.621 C 143.871 261.209,143.941 261.265,143.807 261.964 C 143.704 262.500,143.853 262.800,144.223 262.800 C 144.540 262.800,144.755 263.025,144.700 263.300 C 144.645 263.575,144.825 263.755,145.100 263.700 C 145.375 263.645,145.555 263.825,145.500 264.100 C 145.445 264.375,145.625 264.555,145.900 264.500 C 146.175 264.445,146.355 264.625,146.300 264.900 C 146.245 265.175,146.425 265.355,146.700 265.300 C 146.975 265.245,147.200 265.402,147.200 265.649 C 147.200 265.970,147.362 265.964,147.769 265.626 C 148.235 265.239,148.298 265.302,148.122 265.977 C 147.968 266.566,148.097 266.800,148.577 266.800 C 148.946 266.800,149.170 266.935,149.076 267.100 C 148.828 267.537,150.472 268.977,151.403 269.138 C 152.438 269.317,152.721 269.600,151.867 269.600 C 151.500 269.600,151.200 269.749,151.200 269.930 C 151.200 270.405,153.213 272.230,153.532 272.045 C 153.680 271.960,154.002 272.286,154.249 272.770 C 154.497 273.254,154.857 273.684,155.049 273.725 C 155.242 273.766,155.361 273.917,155.314 274.059 C 155.266 274.201,155.581 274.225,156.014 274.112 C 156.596 273.960,156.800 274.108,156.800 274.684 C 156.800 275.697,158.585 277.380,159.233 276.979 C 159.586 276.761,159.662 276.920,159.500 277.537 C 159.345 278.131,159.458 278.400,159.861 278.400 C 160.183 278.400,160.333 278.584,160.194 278.810 C 160.055 279.035,160.179 279.170,160.470 279.110 C 160.762 279.049,160.955 279.225,160.900 279.500 C 160.845 279.775,161.081 280.000,161.424 280.000 C 161.767 280.000,161.951 280.156,161.833 280.347 C 161.715 280.537,161.975 281.015,162.409 281.409 C 162.844 281.802,163.200 281.998,163.200 281.844 C 163.200 281.393,165.013 283.335,165.307 284.101 C 165.454 284.485,165.769 284.800,166.006 284.800 C 166.243 284.800,166.886 285.250,167.436 285.800 C 167.986 286.350,168.310 286.800,168.156 286.800 C 168.002 286.800,168.198 287.156,168.591 287.591 C 168.985 288.025,169.463 288.285,169.653 288.167 C 169.844 288.049,170.000 288.233,170.000 288.576 C 170.000 288.919,170.225 289.155,170.500 289.100 C 170.775 289.045,170.951 289.238,170.890 289.530 C 170.830 289.821,170.965 289.945,171.190 289.806 C 171.416 289.667,171.600 289.817,171.600 290.139 C 171.600 290.542,171.869 290.655,172.463 290.500 C 173.080 290.338,173.239 290.414,173.021 290.767 C 172.620 291.415,174.303 293.200,175.316 293.200 C 175.892 293.200,176.040 293.404,175.888 293.986 C 175.775 294.419,175.799 294.734,175.941 294.686 C 176.083 294.639,176.234 294.758,176.275 294.951 C 176.316 295.143,176.746 295.503,177.230 295.751 C 177.714 295.998,178.040 296.320,177.955 296.468 C 177.770 296.787,179.595 298.800,180.070 298.800 C 180.251 298.800,180.400 298.500,180.400 298.133 C 180.400 297.279,180.683 297.562,180.862 298.597 C 181.023 299.528,182.463 301.172,182.900 300.924 C 183.065 300.830,183.200 301.054,183.200 301.423 C 183.200 301.903,183.434 302.032,184.023 301.878 C 184.698 301.702,184.761 301.765,184.374 302.231 C 184.011 302.668,184.012 302.800,184.375 302.800 C 184.635 302.800,184.752 302.954,184.636 303.142 C 184.520 303.330,184.909 303.915,185.500 304.442 C 186.092 304.969,186.347 305.101,186.068 304.736 C 185.723 304.283,185.696 303.988,185.984 303.810 C 186.217 303.666,186.574 303.965,186.778 304.474 C 186.982 304.983,187.161 305.173,187.175 304.897 C 187.195 304.500,187.363 304.495,187.972 304.875 C 188.582 305.256,188.658 305.519,188.333 306.125 C 188.016 306.717,188.045 306.851,188.461 306.711 C 188.758 306.611,189.200 306.801,189.443 307.132 C 189.687 307.463,190.310 307.798,190.826 307.877 C 191.343 307.956,191.905 308.241,192.077 308.510 C 192.318 308.890,192.389 308.884,192.394 308.486 C 192.398 308.108,192.598 308.078,193.147 308.372 C 193.558 308.592,194.008 308.658,194.147 308.519 C 194.286 308.380,194.400 308.462,194.400 308.700 C 194.400 308.938,194.175 309.227,193.900 309.341 C 193.625 309.456,193.850 309.495,194.400 309.429 C 194.950 309.363,195.805 309.460,196.300 309.644 C 196.870 309.857,197.200 309.828,197.200 309.566 C 197.200 309.339,197.383 309.266,197.607 309.404 C 197.830 309.542,197.909 309.823,197.783 310.028 C 197.651 310.240,198.506 310.400,199.776 310.400 C 201.486 310.400,202.000 310.261,202.000 309.800 C 202.000 309.470,202.180 309.200,202.400 309.200 C 202.620 309.200,202.800 309.389,202.800 309.620 C 202.800 309.892,203.031 309.910,203.457 309.672 C 203.818 309.470,204.476 309.399,204.919 309.515 C 205.415 309.645,205.627 309.567,205.469 309.312 C 205.323 309.075,205.736 308.793,206.433 308.653 C 207.104 308.519,207.551 308.244,207.426 308.042 C 207.301 307.840,207.559 307.769,207.999 307.884 C 208.481 308.010,208.800 307.896,208.800 307.600 C 208.800 307.310,209.117 307.190,209.568 307.308 C 210.149 307.459,210.302 307.329,210.195 306.774 C 210.077 306.161,210.203 306.097,210.966 306.387 C 211.877 306.733,213.200 305.790,213.200 304.795 C 213.200 304.578,213.391 304.400,213.624 304.400 C 213.857 304.400,213.936 304.580,213.800 304.800 C 213.398 305.451,213.857 305.256,214.451 304.523 C 214.753 304.151,214.794 303.970,214.542 304.121 C 214.081 304.397,213.399 303.267,213.791 302.876 C 213.906 302.761,214.000 302.884,214.000 303.149 C 214.000 303.510,214.140 303.501,214.556 303.116 C 214.958 302.742,214.986 302.519,214.656 302.306 C 214.368 302.121,214.467 302.010,214.924 302.006 C 215.368 302.002,215.537 301.822,215.362 301.538 C 215.191 301.261,215.251 301.185,215.514 301.347 C 215.754 301.495,215.878 302.018,215.789 302.508 C 215.653 303.254,215.816 303.172,216.781 302.004 C 217.416 301.236,217.922 300.516,217.905 300.404 C 217.829 299.913,218.523 298.800,218.905 298.800 C 219.135 298.800,218.998 299.160,218.600 299.600 C 217.780 300.506,218.151 300.706,219.027 299.830 C 219.341 299.516,219.498 298.999,219.376 298.681 C 219.251 298.357,219.445 297.991,219.819 297.848 C 220.215 297.696,220.387 297.344,220.246 296.976 C 220.111 296.623,220.178 296.463,220.405 296.603 C 220.622 296.737,220.800 296.646,220.800 296.400 C 220.800 296.154,220.966 296.055,221.168 296.180 C 221.370 296.305,221.903 295.941,222.352 295.370 C 222.801 294.800,223.343 294.441,223.556 294.573 C 223.770 294.705,224.075 294.602,224.234 294.345 C 224.415 294.052,224.350 293.984,224.062 294.162 C 223.808 294.319,223.603 294.302,223.606 294.124 C 223.615 293.645,224.250 292.726,224.545 292.766 C 224.685 292.785,224.763 292.755,224.718 292.700 C 224.510 292.445,226.182 290.865,226.471 291.044 C 226.652 291.156,226.800 291.077,226.800 290.868 C 226.800 290.660,227.115 290.514,227.500 290.544 C 227.885 290.575,228.151 290.364,228.092 290.076 C 227.939 289.334,229.270 287.200,229.886 287.200 C 230.169 287.200,230.400 287.391,230.400 287.624 C 230.400 287.857,230.240 287.949,230.045 287.828 C 229.850 287.707,229.468 287.877,229.196 288.204 C 228.896 288.566,228.865 288.800,229.118 288.800 C 229.346 288.800,229.624 288.575,229.735 288.300 C 229.892 287.910,229.944 287.914,229.968 288.316 C 229.994 288.737,230.103 288.737,230.563 288.316 C 231.044 287.874,231.030 287.690,230.463 287.031 C 230.098 286.608,230.010 286.385,230.268 286.535 C 230.821 286.857,232.108 285.699,231.783 285.172 C 231.659 284.973,231.837 284.916,232.177 285.046 C 232.517 285.177,232.696 285.445,232.574 285.642 C 232.091 286.423,232.786 285.920,234.353 284.353 C 235.920 282.786,236.423 282.091,235.642 282.574 C 235.445 282.696,235.177 282.517,235.046 282.177 C 234.916 281.837,234.973 281.659,235.172 281.783 C 235.699 282.108,236.857 280.821,236.535 280.268 C 236.385 280.010,236.608 280.098,237.031 280.463 C 237.669 281.012,237.883 281.034,238.288 280.592 C 238.673 280.172,238.673 280.017,238.288 279.861 C 237.912 279.708,237.915 279.656,238.300 279.632 C 238.575 279.614,238.800 279.398,238.800 279.151 C 238.800 278.839,238.618 278.853,238.204 279.196 C 237.877 279.468,237.707 279.850,237.828 280.045 C 237.949 280.240,237.857 280.400,237.624 280.400 C 237.391 280.400,237.200 280.169,237.200 279.886 C 237.200 279.270,239.334 277.939,240.076 278.092 C 240.364 278.151,240.575 277.885,240.544 277.500 C 240.514 277.115,240.660 276.800,240.868 276.800 C 241.077 276.800,241.156 276.652,241.044 276.471 C 240.865 276.182,242.445 274.510,242.700 274.718 C 242.755 274.763,242.785 274.685,242.766 274.545 C 242.726 274.250,243.645 273.615,244.124 273.606 C 244.302 273.603,244.319 273.808,244.162 274.062 C 243.984 274.350,244.052 274.415,244.345 274.234 C 244.602 274.075,244.705 273.770,244.573 273.556 C 244.441 273.343,244.800 272.801,245.370 272.352 C 245.941 271.903,246.305 271.370,246.180 271.168 C 246.055 270.966,246.154 270.800,246.400 270.800 C 246.646 270.800,246.737 270.622,246.603 270.405 C 246.463 270.178,246.623 270.111,246.976 270.246 C 247.344 270.387,247.696 270.215,247.848 269.819 C 247.991 269.445,248.357 269.251,248.681 269.376 C 248.999 269.498,249.516 269.341,249.830 269.027 C 250.706 268.151,250.506 267.780,249.600 268.600 C 249.160 268.998,248.800 269.135,248.800 268.905 C 248.800 268.523,249.913 267.829,250.404 267.905 C 250.516 267.922,251.236 267.416,252.004 266.781 C 253.172 265.816,253.254 265.653,252.508 265.789 C 252.018 265.878,251.495 265.754,251.347 265.514 C 251.185 265.251,251.261 265.191,251.538 265.362 C 251.822 265.537,252.002 265.368,252.006 264.924 C 252.011 264.310,252.071 264.291,252.400 264.800 C 252.703 265.268,252.789 265.280,252.794 264.853 C 252.798 264.512,253.089 264.382,253.570 264.508 C 254.113 264.650,254.277 264.544,254.126 264.150 C 253.996 263.812,254.126 263.646,254.455 263.730 C 254.755 263.806,254.865 263.793,254.700 263.701 C 254.535 263.609,254.400 263.268,254.400 262.943 C 254.400 262.618,254.580 262.464,254.800 262.600 C 255.020 262.736,255.200 262.583,255.200 262.261 C 255.200 261.870,255.500 261.731,256.100 261.842 C 256.595 261.934,256.785 261.905,256.522 261.779 C 256.260 261.652,256.150 261.275,256.278 260.941 C 256.467 260.447,256.575 260.433,256.850 260.866 C 257.090 261.245,257.190 261.129,257.194 260.463 C 257.198 259.853,257.491 259.449,258.031 259.308 C 258.488 259.188,259.023 258.665,259.221 258.145 C 259.452 257.537,259.905 257.198,260.490 257.194 C 261.141 257.189,261.248 257.091,260.866 256.850 C 260.433 256.575,260.447 256.467,260.941 256.278 C 261.275 256.150,261.652 256.260,261.779 256.522 C 261.905 256.785,261.934 256.595,261.842 256.100 C 261.731 255.500,261.870 255.200,262.261 255.200 C 262.583 255.200,262.736 255.020,262.600 254.800 C 262.464 254.580,262.618 254.400,262.943 254.400 C 263.268 254.400,263.609 254.535,263.701 254.700 C 263.793 254.865,263.806 254.755,263.730 254.455 C 263.646 254.126,263.812 253.996,264.150 254.126 C 264.544 254.277,264.650 254.113,264.508 253.570 C 264.382 253.089,264.512 252.798,264.853 252.794 C 265.280 252.789,265.268 252.703,264.800 252.400 C 264.291 252.071,264.310 252.011,264.924 252.006 C 265.368 252.002,265.537 251.822,265.362 251.538 C 265.191 251.261,265.251 251.185,265.514 251.347 C 265.754 251.495,265.878 252.018,265.789 252.508 C 265.653 253.254,265.816 253.172,266.781 252.004 C 267.416 251.236,267.922 250.516,267.905 250.404 C 267.829 249.913,268.523 248.800,268.905 248.800 C 269.135 248.800,268.998 249.160,268.600 249.600 C 267.780 250.506,268.151 250.706,269.027 249.830 C 269.341 249.516,269.498 248.999,269.376 248.681 C 269.251 248.357,269.445 247.991,269.819 247.848 C 270.215 247.696,270.387 247.344,270.246 246.976 C 270.111 246.623,270.178 246.463,270.405 246.603 C 270.622 246.737,270.800 246.646,270.800 246.400 C 270.800 246.154,270.966 246.055,271.168 246.180 C 271.370 246.305,271.903 245.941,272.352 245.370 C 272.801 244.800,273.343 244.441,273.556 244.573 C 273.770 244.705,274.075 244.602,274.234 244.345 C 274.415 244.052,274.350 243.984,274.062 244.162 C 273.808 244.319,273.603 244.302,273.606 244.124 C 273.615 243.645,274.250 242.726,274.545 242.766 C 274.685 242.785,274.763 242.755,274.718 242.700 C 274.510 242.445,276.182 240.865,276.471 241.044 C 276.652 241.156,276.800 241.077,276.800 240.868 C 276.800 240.660,277.115 240.514,277.500 240.544 C 277.885 240.575,278.151 240.364,278.092 240.076 C 277.939 239.334,279.270 237.200,279.886 237.200 C 280.169 237.200,280.400 237.391,280.400 237.624 C 280.400 237.857,280.240 237.949,280.045 237.828 C 279.850 237.707,279.468 237.877,279.196 238.204 C 278.896 238.566,278.865 238.800,279.118 238.800 C 279.346 238.800,279.624 238.575,279.735 238.300 C 279.892 237.910,279.944 237.914,279.968 238.316 C 279.994 238.737,280.103 238.737,280.563 238.316 C 281.044 237.874,281.030 237.690,280.463 237.031 C 280.098 236.608,280.010 236.385,280.268 236.535 C 280.821 236.857,282.108 235.699,281.783 235.172 C 281.659 234.973,281.837 234.916,282.177 235.046 C 282.517 235.177,282.696 235.445,282.574 235.642 C 282.091 236.423,282.786 235.920,284.353 234.353 C 285.920 232.786,286.423 232.091,285.642 232.574 C 285.445 232.696,285.177 232.517,285.046 232.177 C 284.916 231.837,284.973 231.659,285.172 231.783 C 285.699 232.108,286.857 230.821,286.535 230.268 C 286.385 230.010,286.608 230.098,287.031 230.463 C 287.669 231.012,287.883 231.034,288.288 230.592 C 288.673 230.172,288.673 230.017,288.288 229.861 C 287.912 229.708,287.915 229.656,288.300 229.632 C 288.575 229.614,288.800 229.398,288.800 229.151 C 288.800 228.839,288.618 228.853,288.204 229.196 C 287.877 229.468,287.707 229.850,287.828 230.045 C 287.949 230.240,287.857 230.400,287.624 230.400 C 287.391 230.400,287.200 230.169,287.200 229.886 C 287.200 229.270,289.334 227.939,290.076 228.092 C 290.364 228.151,290.575 227.885,290.544 227.500 C 290.514 227.115,290.660 226.800,290.868 226.800 C 291.077 226.800,291.156 226.652,291.044 226.471 C 290.853 226.162,291.844 225.085,292.500 224.890 C 292.665 224.840,292.785 224.685,292.766 224.545 C 292.726 224.250,293.645 223.615,294.124 223.606 C 294.302 223.603,294.319 223.808,294.162 224.062 C 293.984 224.350,294.052 224.415,294.345 224.234 C 294.602 224.075,294.705 223.770,294.573 223.556 C 294.441 223.343,294.800 222.801,295.370 222.352 C 295.941 221.903,296.305 221.370,296.180 221.168 C 296.055 220.966,296.154 220.800,296.400 220.800 C 296.646 220.800,296.737 220.622,296.603 220.405 C 296.463 220.178,296.623 220.111,296.976 220.246 C 297.344 220.387,297.696 220.215,297.848 219.819 C 297.991 219.445,298.357 219.251,298.681 219.376 C 298.999 219.498,299.516 219.341,299.830 219.027 C 300.706 218.151,300.506 217.780,299.600 218.600 C 299.160 218.998,298.800 219.135,298.800 218.905 C 298.800 218.523,299.913 217.829,300.404 217.905 C 300.516 217.922,301.236 217.416,302.004 216.781 C 303.172 215.816,303.254 215.653,302.508 215.789 C 302.018 215.878,301.495 215.754,301.347 215.514 C 301.185 215.251,301.261 215.191,301.538 215.362 C 301.822 215.537,302.002 215.368,302.006 214.924 C 302.011 214.310,302.071 214.291,302.400 214.800 C 302.703 215.268,302.789 215.280,302.794 214.853 C 302.798 214.512,303.089 214.382,303.570 214.508 C 304.113 214.650,304.277 214.544,304.126 214.150 C 303.996 213.812,304.126 213.646,304.455 213.730 C 304.755 213.806,304.865 213.793,304.700 213.701 C 304.535 213.609,304.400 213.268,304.400 212.943 C 304.400 212.618,304.580 212.464,304.800 212.600 C 305.020 212.736,305.200 212.583,305.200 212.261 C 305.200 211.870,305.500 211.731,306.100 211.842 C 306.595 211.934,306.785 211.905,306.522 211.779 C 306.260 211.652,306.150 211.275,306.278 210.941 C 306.467 210.447,306.575 210.433,306.850 210.866 C 307.091 211.248,307.189 211.141,307.194 210.490 C 307.198 209.905,307.537 209.452,308.145 209.221 C 308.665 209.023,309.188 208.488,309.308 208.031 C 309.449 207.491,309.853 207.198,310.463 207.194 C 311.129 207.190,311.245 207.090,310.866 206.850 C 310.433 206.575,310.447 206.467,310.941 206.278 C 311.275 206.150,311.652 206.260,311.779 206.522 C 311.905 206.785,311.934 206.595,311.842 206.100 C 311.731 205.500,311.870 205.200,312.261 205.200 C 312.583 205.200,312.736 205.020,312.600 204.800 C 312.464 204.580,312.618 204.400,312.943 204.400 C 313.268 204.400,313.609 204.535,313.701 204.700 C 313.793 204.865,313.806 204.755,313.730 204.455 C 313.646 204.126,313.812 203.996,314.150 204.126 C 314.544 204.277,314.650 204.113,314.508 203.570 C 314.382 203.089,314.512 202.798,314.853 202.794 C 315.280 202.789,315.268 202.703,314.800 202.400 C 314.291 202.071,314.310 202.011,314.924 202.006 C 315.368 202.002,315.537 201.822,315.362 201.538 C 315.191 201.261,315.251 201.185,315.514 201.347 C 315.754 201.495,315.878 202.018,315.789 202.508 C 315.653 203.254,315.816 203.172,316.781 202.004 C 317.416 201.236,317.922 200.516,317.905 200.404 C 317.829 199.913,318.523 198.800,318.905 198.800 C 319.135 198.800,318.998 199.160,318.600 199.600 C 317.780 200.506,318.151 200.706,319.027 199.830 C 319.341 199.516,319.498 198.999,319.376 198.681 C 319.251 198.357,319.445 197.991,319.819 197.848 C 320.215 197.696,320.387 197.344,320.246 196.976 C 320.111 196.623,320.178 196.463,320.405 196.603 C 320.622 196.737,320.800 196.646,320.800 196.400 C 320.800 196.154,320.966 196.055,321.168 196.180 C 321.370 196.305,321.903 195.941,322.352 195.370 C 322.801 194.800,323.343 194.441,323.556 194.573 C 323.770 194.705,324.075 194.602,324.234 194.345 C 324.415 194.052,324.350 193.984,324.062 194.162 C 323.808 194.319,323.603 194.302,323.606 194.124 C 323.615 193.645,324.250 192.726,324.545 192.766 C 324.685 192.785,324.840 192.665,324.890 192.500 C 325.085 191.844,326.162 190.853,326.471 191.044 C 326.652 191.156,326.800 191.077,326.800 190.868 C 326.800 190.660,327.115 190.514,327.500 190.544 C 327.885 190.575,328.151 190.364,328.092 190.076 C 327.939 189.334,329.270 187.200,329.886 187.200 C 330.169 187.200,330.400 187.391,330.400 187.624 C 330.400 187.857,330.240 187.949,330.045 187.828 C 329.850 187.707,329.468 187.877,329.196 188.204 C 328.896 188.566,328.865 188.800,329.118 188.800 C 329.346 188.800,329.624 188.575,329.735 188.300 C 329.892 187.910,329.944 187.914,329.968 188.316 C 329.994 188.737,330.103 188.737,330.563 188.316 C 331.044 187.874,331.030 187.690,330.463 187.031 C 330.098 186.608,330.010 186.385,330.268 186.535 C 330.821 186.857,332.108 185.699,331.783 185.172 C 331.659 184.973,331.837 184.916,332.177 185.046 C 332.517 185.177,332.696 185.445,332.574 185.642 C 332.091 186.423,332.786 185.920,334.353 184.353 C 335.920 182.786,336.423 182.091,335.642 182.574 C 335.445 182.696,335.177 182.517,335.046 182.177 C 334.916 181.837,334.973 181.659,335.172 181.783 C 335.699 182.108,336.857 180.821,336.535 180.268 C 336.385 180.010,336.608 180.098,337.031 180.463 C 337.669 181.012,337.883 181.034,338.288 180.592 C 338.673 180.172,338.673 180.017,338.288 179.861 C 337.912 179.708,337.915 179.656,338.300 179.632 C 338.575 179.614,338.800 179.398,338.800 179.151 C 338.800 178.839,338.618 178.853,338.204 179.196 C 337.877 179.468,337.707 179.850,337.828 180.045 C 337.949 180.240,337.857 180.400,337.624 180.400 C 337.391 180.400,337.200 180.169,337.200 179.886 C 337.200 179.270,339.334 177.939,340.076 178.092 C 340.364 178.151,340.575 177.885,340.544 177.500 C 340.514 177.115,340.660 176.800,340.868 176.800 C 341.077 176.800,341.156 176.652,341.044 176.471 C 340.853 176.162,341.844 175.085,342.500 174.890 C 342.665 174.840,342.785 174.685,342.766 174.545 C 342.726 174.250,343.645 173.615,344.124 173.606 C 344.302 173.603,344.319 173.808,344.162 174.062 C 343.984 174.350,344.052 174.415,344.345 174.234 C 344.602 174.075,344.705 173.770,344.573 173.556 C 344.441 173.343,344.800 172.801,345.370 172.352 C 345.941 171.903,346.305 171.370,346.180 171.168 C 346.055 170.966,346.154 170.800,346.400 170.800 C 346.646 170.800,346.737 170.622,346.603 170.405 C 346.463 170.178,346.623 170.111,346.976 170.246 C 347.344 170.387,347.696 170.215,347.848 169.819 C 347.991 169.445,348.357 169.251,348.681 169.376 C 348.999 169.498,349.516 169.341,349.830 169.027 C 350.706 168.151,350.506 167.780,349.600 168.600 C 349.160 168.998,348.800 169.135,348.800 168.905 C 348.800 168.523,349.913 167.829,350.404 167.905 C 350.516 167.922,351.236 167.416,352.004 166.781 C 353.172 165.816,353.254 165.653,352.508 165.789 C 352.018 165.878,351.495 165.754,351.347 165.514 C 351.185 165.251,351.261 165.191,351.538 165.362 C 351.822 165.537,352.002 165.368,352.006 164.924 C 352.011 164.310,352.071 164.291,352.400 164.800 C 352.703 165.268,352.789 165.280,352.794 164.853 C 352.798 164.512,353.089 164.382,353.570 164.508 C 354.113 164.650,354.277 164.544,354.126 164.150 C 353.996 163.812,354.126 163.646,354.455 163.730 C 354.755 163.806,354.865 163.793,354.700 163.701 C 354.535 163.609,354.400 163.268,354.400 162.943 C 354.400 162.618,354.580 162.464,354.800 162.600 C 355.020 162.736,355.200 162.583,355.200 162.261 C 355.200 161.870,355.500 161.731,356.100 161.842 C 356.595 161.934,356.785 161.905,356.522 161.779 C 356.260 161.652,356.150 161.275,356.278 160.941 C 356.467 160.447,356.575 160.433,356.850 160.866 C 357.091 161.248,357.189 161.141,357.194 160.490 C 357.198 159.905,357.537 159.452,358.145 159.221 C 358.665 159.023,359.188 158.488,359.308 158.031 C 359.449 157.491,359.853 157.198,360.463 157.194 C 361.129 157.190,361.245 157.090,360.866 156.850 C 360.433 156.575,360.447 156.467,360.941 156.278 C 361.275 156.150,361.652 156.260,361.779 156.522 C 361.905 156.785,361.934 156.595,361.842 156.100 C 361.731 155.500,361.870 155.200,362.261 155.200 C 362.583 155.200,362.736 155.020,362.600 154.800 C 362.464 154.580,362.618 154.400,362.943 154.400 C 363.268 154.400,363.609 154.535,363.701 154.700 C 363.793 154.865,363.806 154.755,363.730 154.455 C 363.646 154.126,363.812 153.996,364.150 154.126 C 364.544 154.277,364.650 154.113,364.508 153.570 C 364.382 153.089,364.512 152.798,364.853 152.794 C 365.280 152.789,365.268 152.703,364.800 152.400 C 364.291 152.071,364.310 152.011,364.924 152.006 C 365.368 152.002,365.537 151.822,365.362 151.538 C 365.191 151.261,365.251 151.185,365.514 151.347 C 365.754 151.495,365.878 152.018,365.789 152.508 C 365.653 153.254,365.816 153.172,366.781 152.004 C 367.416 151.236,367.922 150.516,367.905 150.404 C 367.829 149.913,368.523 148.800,368.905 148.800 C 369.135 148.800,368.998 149.160,368.600 149.600 C 367.780 150.506,368.151 150.706,369.027 149.830 C 369.341 149.516,369.498 148.999,369.376 148.681 C 369.251 148.357,369.445 147.991,369.819 147.848 C 370.215 147.696,370.387 147.344,370.246 146.976 C 370.111 146.623,370.178 146.463,370.405 146.603 C 370.622 146.737,370.800 146.646,370.800 146.400 C 370.800 146.154,370.966 146.055,371.168 146.180 C 371.370 146.305,371.903 145.941,372.352 145.370 C 372.801 144.800,373.343 144.441,373.556 144.573 C 373.770 144.705,374.075 144.602,374.234 144.345 C 374.415 144.052,374.350 143.984,374.062 144.162 C 373.808 144.319,373.603 144.302,373.606 144.124 C 373.615 143.645,374.250 142.726,374.545 142.766 C 374.685 142.785,374.840 142.665,374.890 142.500 C 375.085 141.844,376.162 140.853,376.471 141.044 C 376.652 141.156,376.800 141.077,376.800 140.868 C 376.800 140.660,377.115 140.514,377.500 140.544 C 377.885 140.575,378.151 140.364,378.092 140.076 C 377.939 139.334,379.270 137.200,379.886 137.200 C 380.169 137.200,380.400 137.391,380.400 137.624 C 380.400 137.857,380.240 137.949,380.045 137.828 C 379.850 137.707,379.468 137.877,379.196 138.204 C 378.896 138.566,378.865 138.800,379.118 138.800 C 379.346 138.800,379.624 138.575,379.735 138.300 C 379.892 137.910,379.944 137.914,379.968 138.316 C 379.994 138.737,380.103 138.737,380.563 138.316 C 381.044 137.874,381.030 137.690,380.463 137.031 C 380.098 136.608,380.010 136.385,380.268 136.535 C 380.821 136.857,382.108 135.699,381.783 135.172 C 381.659 134.973,381.837 134.916,382.177 135.046 C 382.517 135.177,382.696 135.445,382.574 135.642 C 382.091 136.423,382.786 135.920,384.353 134.353 C 385.920 132.786,386.423 132.091,385.642 132.574 C 385.445 132.696,385.177 132.517,385.046 132.177 C 384.916 131.837,384.973 131.659,385.172 131.783 C 385.699 132.108,386.857 130.821,386.535 130.268 C 386.385 130.010,386.608 130.098,387.031 130.463 C 387.669 131.012,387.883 131.034,388.288 130.592 C 388.673 130.172,388.673 130.017,388.288 129.861 C 387.912 129.708,387.915 129.656,388.300 129.632 C 388.575 129.614,388.800 129.398,388.800 129.151 C 388.800 128.839,388.618 128.853,388.204 129.196 C 387.877 129.468,387.707 129.850,387.828 130.045 C 387.949 130.240,387.857 130.400,387.624 130.400 C 387.391 130.400,387.200 130.169,387.200 129.886 C 387.200 129.270,389.334 127.939,390.076 128.092 C 390.364 128.151,390.575 127.885,390.544 127.500 C 390.514 127.115,390.660 126.800,390.868 126.800 C 391.077 126.800,391.156 126.652,391.044 126.471 C 390.850 126.157,392.384 124.591,392.800 124.678 C 392.910 124.701,392.955 124.558,392.900 124.360 C 392.845 124.162,392.968 124.000,393.173 124.000 C 393.378 124.000,393.661 123.637,393.802 123.194 C 393.943 122.751,394.228 122.493,394.435 122.622 C 394.643 122.750,394.689 123.068,394.538 123.328 C 394.386 123.587,394.623 123.485,395.064 123.099 C 395.504 122.714,396.011 122.534,396.190 122.699 C 396.369 122.865,396.399 122.370,396.258 121.600 C 396.117 120.830,396.137 120.410,396.303 120.666 C 396.801 121.434,398.147 120.204,397.889 119.218 C 397.771 118.767,397.838 118.500,398.037 118.623 C 398.237 118.746,398.400 118.457,398.400 117.981 C 398.400 117.406,398.587 117.186,398.955 117.327 C 399.384 117.492,399.506 117.090,399.493 115.565 C 399.484 114.479,399.594 113.472,399.738 113.328 C 400.125 112.942,400.056 109.990,399.626 108.490 C 399.393 107.679,399.393 107.272,399.626 107.416 C 399.832 107.543,400.000 107.292,400.000 106.857 C 400.000 106.422,399.775 105.984,399.500 105.883 C 399.126 105.746,399.114 105.578,399.454 105.216 C 400.052 104.579,399.679 103.195,398.981 103.463 C 398.587 103.614,398.491 103.389,398.628 102.635 C 398.827 101.536,397.467 98.400,396.792 98.400 C 396.576 98.400,396.400 97.939,396.400 97.376 C 396.400 96.796,396.227 96.460,396.000 96.600 C 395.780 96.736,395.597 96.522,395.594 96.124 C 395.589 95.565,395.509 95.524,395.244 95.943 C 395.000 96.327,394.819 96.354,394.622 96.036 C 394.470 95.789,394.179 95.689,393.977 95.814 C 393.775 95.939,393.714 95.769,393.841 95.437 C 394.013 94.989,393.853 94.874,393.226 94.995 C 392.758 95.085,392.484 94.988,392.613 94.779 C 392.742 94.571,392.662 94.400,392.436 94.400 C 392.210 94.400,392.124 94.143,392.244 93.829 C 392.407 93.404,392.236 93.318,391.569 93.492 C 390.952 93.654,390.764 93.583,390.961 93.263 C 391.133 92.985,390.988 92.800,390.600 92.800 C 390.244 92.800,390.052 92.639,390.174 92.442 C 390.514 91.892,389.357 91.603,388.849 92.111 C 388.517 92.443,388.400 92.376,388.400 91.856 C 388.400 91.469,388.240 91.251,388.045 91.372 C 387.850 91.493,387.493 91.353,387.251 91.061 C 387.009 90.770,386.044 90.502,385.106 90.465 C 384.168 90.428,383.341 90.220,383.268 90.002 C 383.034 89.304,17.813 89.462,17.233 90.161 M113.600 230.600 C 113.600 230.930,113.330 231.200,113.000 231.200 C 112.670 231.200,112.400 231.009,112.400 230.776 C 112.400 230.543,112.580 230.464,112.800 230.600 C 113.020 230.736,113.200 230.657,113.200 230.424 C 113.200 230.191,113.290 230.000,113.400 230.000 C 113.510 230.000,113.600 230.270,113.600 230.600 M119.698 236.666 C 119.421 236.777,119.297 237.033,119.421 237.234 C 119.545 237.435,119.457 237.600,119.224 237.600 C 118.991 237.600,118.800 237.330,118.800 237.000 C 118.800 236.670,119.115 236.414,119.500 236.432 C 119.922 236.451,120.001 236.544,119.698 236.666 M163.600 280.600 C 163.600 280.930,163.330 281.200,163.000 281.200 C 162.670 281.200,162.400 281.009,162.400 280.776 C 162.400 280.543,162.580 280.464,162.800 280.600 C 163.020 280.736,163.200 280.657,163.200 280.424 C 163.200 280.191,163.290 280.000,163.400 280.000 C 163.510 280.000,163.600 280.270,163.600 280.600 M169.698 286.666 C 169.421 286.777,169.297 287.033,169.421 287.234 C 169.545 287.435,169.457 287.600,169.224 287.600 C 168.991 287.600,168.800 287.330,168.800 287.000 C 168.800 286.670,169.115 286.414,169.500 286.432 C 169.922 286.451,170.001 286.544,169.698 286.666 " stroke="none" fill="#acdcdc" fill-rule="evenodd"></path><path id="path1" d="M10.989 91.617 C 10.859 91.828,10.839 92.000,10.944 92.000 C 11.049 92.000,11.419 92.109,11.767 92.243 C 12.115 92.376,12.400 92.306,12.400 92.086 C 12.400 91.526,11.276 91.153,10.989 91.617 M388.400 91.733 C 388.400 92.027,388.653 92.267,388.962 92.267 C 389.271 92.267,389.432 92.027,389.319 91.733 C 389.207 91.440,388.954 91.200,388.757 91.200 C 388.561 91.200,388.400 91.440,388.400 91.733 M8.400 92.800 C 8.400 93.020,8.040 93.200,7.600 93.200 C 7.071 93.200,6.800 93.467,6.800 93.987 C 6.800 94.522,6.992 94.701,7.398 94.546 C 7.726 94.419,7.896 94.155,7.774 93.958 C 7.652 93.761,8.008 93.600,8.564 93.600 C 9.298 93.600,9.512 93.436,9.345 93.000 C 9.087 92.327,8.400 92.182,8.400 92.800 M392.368 93.361 C 392.725 93.792,392.713 93.970,392.317 94.130 C 391.899 94.297,391.900 94.343,392.324 94.368 C 392.612 94.386,392.746 94.564,392.622 94.765 C 392.367 95.178,393.428 95.105,393.853 94.681 C 394.004 94.529,393.712 94.044,393.203 93.603 C 392.132 92.674,391.692 92.546,392.368 93.361 M393.822 95.488 C 393.676 95.866,393.686 96.048,393.842 95.891 C 393.998 95.735,394.368 95.807,394.663 96.052 C 395.253 96.542,395.325 96.391,394.957 95.433 C 394.639 94.605,394.151 94.628,393.822 95.488 M4.628 96.670 C 4.688 97.221,4.870 97.790,5.032 97.935 C 5.195 98.081,5.223 97.907,5.095 97.549 C 4.967 97.191,5.041 96.719,5.258 96.502 C 5.519 96.241,5.460 96.032,5.086 95.888 C 4.674 95.730,4.548 95.945,4.628 96.670 M2.900 98.665 C 2.625 98.776,2.414 99.167,2.432 99.533 C 2.451 99.953,2.538 100.014,2.666 99.698 C 2.777 99.421,3.003 99.278,3.167 99.380 C 3.332 99.482,3.467 99.303,3.467 98.982 C 3.467 98.662,3.452 98.414,3.433 98.432 C 3.415 98.449,3.175 98.554,2.900 98.665 M398.588 102.239 C 398.581 103.006,398.756 103.548,398.988 103.471 C 399.552 103.283,399.593 101.692,399.045 101.238 C 398.733 100.979,398.596 101.279,398.588 102.239 M0.000 106.576 C 0.000 106.893,0.169 107.257,0.376 107.385 C 0.582 107.513,0.724 107.253,0.691 106.809 C 0.622 105.895,-0.000 105.686,0.000 106.576 M399.474 113.500 C 399.378 113.665,399.445 114.160,399.622 114.600 C 399.903 115.298,399.947 115.260,399.972 114.300 C 400.000 113.215,399.812 112.914,399.474 113.500 M398.400 118.024 C 398.400 118.544,398.230 118.742,397.938 118.562 C 397.650 118.384,397.585 118.452,397.766 118.745 C 397.925 119.002,398.201 119.123,398.379 119.013 C 398.862 118.715,399.182 117.200,398.763 117.200 C 398.563 117.200,398.400 117.571,398.400 118.024 M2.087 120.047 C 2.263 120.863,3.533 122.143,4.274 122.252 C 4.719 122.317,4.551 122.011,3.773 121.343 C 3.128 120.789,2.659 120.219,2.730 120.078 C 2.802 119.936,2.661 119.754,2.418 119.672 C 2.174 119.591,2.026 119.760,2.087 120.047 M396.006 120.651 C 396.003 120.899,396.305 121.349,396.677 121.651 C 397.071 121.971,397.234 122.001,397.068 121.725 C 396.908 121.456,397.092 121.069,397.492 120.837 C 397.881 120.610,397.986 120.419,397.724 120.412 C 397.462 120.405,397.124 120.599,396.974 120.843 C 396.783 121.151,396.596 121.121,396.356 120.743 C 396.153 120.423,396.010 120.385,396.006 120.651 M393.807 123.179 C 393.663 123.631,393.378 124.000,393.173 124.000 C 392.968 124.000,392.845 124.135,392.900 124.300 C 392.955 124.465,392.820 124.685,392.600 124.790 C 391.742 125.196,390.851 126.159,391.044 126.471 C 391.156 126.652,391.062 126.800,390.836 126.800 C 390.610 126.800,390.522 127.052,390.640 127.361 C 390.791 127.753,391.358 127.366,392.528 126.072 C 393.448 125.054,394.477 123.946,394.816 123.611 C 395.155 123.275,395.351 123.043,395.253 123.097 C 395.154 123.150,394.847 123.005,394.570 122.775 C 394.200 122.468,393.999 122.574,393.807 123.179 M5.483 123.927 C 5.969 124.352,6.239 124.842,6.083 125.014 C 5.927 125.187,6.025 125.199,6.300 125.041 C 6.984 124.647,6.954 124.586,5.700 123.822 L 4.600 123.153 5.483 123.927 M8.857 127.163 C 8.455 127.413,8.436 127.575,8.784 127.790 C 9.333 128.129,9.745 127.829,9.542 127.238 C 9.458 126.996,9.176 126.965,8.857 127.163 M388.700 128.488 C 387.875 128.966,387.200 129.602,387.200 129.902 C 387.200 130.212,387.001 130.324,386.738 130.162 C 386.464 129.993,386.385 130.051,386.542 130.306 C 386.864 130.827,385.684 132.099,385.172 131.783 C 384.973 131.659,384.915 131.833,385.044 132.169 C 385.254 132.716,385.403 132.716,386.471 132.163 C 387.273 131.749,387.587 131.343,387.428 130.928 C 387.259 130.488,387.370 130.380,387.816 130.551 C 388.176 130.689,388.338 130.623,388.197 130.395 C 388.063 130.178,388.246 130.000,388.605 130.000 C 389.422 130.000,390.183 129.217,390.256 128.300 C 390.286 127.915,390.286 127.604,390.256 127.609 C 390.225 127.614,389.525 128.010,388.700 128.488 M381.783 135.172 C 382.099 135.684,380.827 136.864,380.306 136.542 C 380.051 136.385,379.993 136.464,380.162 136.738 C 380.325 137.002,380.211 137.200,379.897 137.200 C 379.595 137.200,378.954 137.900,378.473 138.756 C 377.682 140.163,377.665 140.306,378.299 140.256 C 379.217 140.183,380.000 139.422,380.000 138.605 C 380.000 138.246,380.178 138.063,380.395 138.197 C 380.623 138.338,380.689 138.176,380.551 137.816 C 380.380 137.370,380.488 137.259,380.928 137.428 C 381.343 137.587,381.749 137.273,382.163 136.471 C 382.716 135.403,382.716 135.254,382.169 135.044 C 381.833 134.915,381.659 134.973,381.783 135.172 M22.000 140.776 C 22.000 141.447,22.709 141.613,22.946 140.998 C 23.085 140.635,22.944 140.400,22.587 140.400 C 22.264 140.400,22.000 140.569,22.000 140.776 M376.800 140.836 C 376.800 141.062,376.652 141.156,376.471 141.044 C 376.142 140.841,375.093 141.847,374.850 142.600 C 374.778 142.820,374.558 142.955,374.360 142.900 C 374.162 142.845,374.000 142.952,374.000 143.138 C 374.000 143.324,373.529 143.999,372.953 144.638 C 372.377 145.277,372.046 145.530,372.217 145.200 C 372.401 144.846,372.379 144.736,372.164 144.933 C 371.964 145.117,371.792 145.477,371.782 145.733 C 371.772 145.990,371.547 146.155,371.282 146.100 C 371.017 146.045,370.800 146.191,370.800 146.424 C 370.800 146.657,370.592 146.719,370.338 146.562 C 370.049 146.383,369.985 146.452,370.168 146.748 C 370.340 147.027,369.878 147.802,369.040 148.640 C 368.259 149.421,367.637 150.181,367.657 150.330 C 367.764 151.103,367.543 151.331,367.200 150.800 C 366.855 150.267,366.811 150.267,366.800 150.800 C 366.789 151.333,366.745 151.333,366.400 150.800 C 366.187 150.470,366.009 150.403,366.006 150.651 C 365.985 152.175,367.952 151.816,368.471 150.200 C 368.542 149.980,368.748 149.849,368.930 149.910 C 369.111 149.970,369.150 149.843,369.017 149.627 C 368.883 149.411,369.318 148.952,369.984 148.608 C 370.650 148.264,371.150 147.761,371.097 147.491 C 371.044 147.221,371.225 147.045,371.500 147.100 C 371.775 147.155,372.000 147.020,372.000 146.800 C 372.000 146.580,372.255 146.400,372.567 146.400 C 372.878 146.400,373.283 145.979,373.467 145.465 C 373.650 144.951,374.734 143.706,375.876 142.699 C 377.344 141.403,377.783 140.802,377.376 140.646 C 377.059 140.525,376.800 140.610,376.800 140.836 M24.959 143.700 C 24.801 143.975,24.813 144.073,24.986 143.917 C 25.158 143.761,25.648 144.031,26.073 144.517 L 26.847 145.400 26.178 144.300 C 25.414 143.046,25.353 143.016,24.959 143.700 M365.362 151.538 C 365.537 151.822,365.368 152.002,364.924 152.006 C 364.310 152.011,364.291 152.071,364.800 152.400 C 365.200 152.658,365.233 152.790,364.900 152.794 C 364.625 152.797,364.400 153.067,364.400 153.392 C 364.400 153.718,363.951 154.097,363.403 154.235 C 362.854 154.373,362.496 154.633,362.608 154.812 C 362.719 154.992,362.529 155.198,362.185 155.270 C 361.625 155.387,361.627 155.483,362.213 156.200 C 362.778 156.893,362.835 156.904,362.637 156.279 C 362.496 155.832,362.569 155.657,362.832 155.819 C 363.064 155.963,363.352 155.704,363.472 155.245 C 363.593 154.785,363.816 154.486,363.969 154.581 C 364.305 154.788,365.730 152.957,365.846 152.168 C 365.891 151.857,365.737 151.485,365.503 151.340 C 365.251 151.184,365.193 151.266,365.362 151.538 M37.398 156.403 C 37.256 156.632,37.321 156.770,37.542 156.710 C 37.763 156.649,38.236 156.960,38.594 157.400 C 39.233 158.187,39.237 158.185,38.820 157.322 C 38.288 156.222,37.732 155.863,37.398 156.403 M360.855 156.364 C 360.394 156.650,360.394 156.737,360.855 156.920 C 361.159 157.041,360.986 157.151,360.463 157.168 C 359.880 157.188,359.446 157.501,359.317 157.996 C 359.203 158.433,358.922 158.675,358.693 158.534 C 358.464 158.392,358.392 158.464,358.534 158.693 C 358.675 158.922,358.433 159.203,357.996 159.317 C 357.490 159.449,357.198 159.866,357.194 160.463 C 357.190 161.129,357.090 161.245,356.850 160.866 C 356.577 160.437,356.464 160.456,356.268 160.966 C 355.772 162.259,357.060 161.523,359.340 159.211 C 361.439 157.081,362.298 155.468,360.855 156.364 M42.600 161.406 C 43.040 161.764,43.351 162.237,43.290 162.458 C 43.230 162.679,43.368 162.744,43.597 162.602 C 44.137 162.268,43.778 161.712,42.678 161.180 C 41.815 160.763,41.813 160.767,42.600 161.406 M355.200 162.210 C 355.200 162.560,355.039 162.748,354.843 162.626 C 354.646 162.505,354.373 162.854,354.235 163.403 C 354.097 163.951,353.718 164.400,353.392 164.400 C 353.067 164.400,352.797 164.625,352.794 164.900 C 352.790 165.233,352.658 165.200,352.400 164.800 C 352.071 164.291,352.011 164.310,352.006 164.924 C 352.002 165.368,351.822 165.537,351.538 165.362 C 351.266 165.193,351.184 165.251,351.340 165.503 C 351.485 165.737,351.857 165.891,352.168 165.846 C 352.957 165.730,354.788 164.305,354.581 163.969 C 354.486 163.816,354.785 163.593,355.245 163.472 C 355.704 163.352,355.963 163.064,355.819 162.832 C 355.661 162.575,355.802 162.503,356.179 162.647 C 357.077 162.992,356.942 162.504,356.000 162.000 C 355.356 161.655,355.200 161.696,355.200 162.210 M350.800 166.400 C 351.333 166.745,351.333 166.789,350.800 166.800 C 350.267 166.811,350.267 166.855,350.800 167.200 C 351.331 167.543,351.103 167.764,350.330 167.657 C 350.182 167.637,349.421 168.259,348.640 169.040 C 347.802 169.878,347.027 170.340,346.748 170.168 C 346.452 169.985,346.383 170.049,346.562 170.338 C 346.719 170.592,346.657 170.800,346.424 170.800 C 346.191 170.800,346.045 171.017,346.100 171.282 C 346.155 171.547,345.990 171.772,345.733 171.782 C 345.477 171.792,345.117 171.964,344.933 172.164 C 344.736 172.379,344.846 172.401,345.200 172.217 C 345.530 172.046,345.277 172.377,344.638 172.953 C 343.999 173.529,343.324 174.000,343.138 174.000 C 342.952 174.000,342.845 174.135,342.900 174.300 C 342.955 174.465,342.910 174.608,342.800 174.618 C 342.297 174.664,340.863 176.178,341.044 176.471 C 341.156 176.652,341.062 176.800,340.836 176.800 C 340.610 176.800,340.525 177.059,340.646 177.376 C 340.802 177.783,341.403 177.344,342.699 175.876 C 343.706 174.734,344.951 173.650,345.465 173.467 C 345.979 173.283,346.400 172.878,346.400 172.567 C 346.400 172.255,346.580 172.000,346.800 172.000 C 347.020 172.000,347.155 171.775,347.100 171.500 C 347.045 171.225,347.221 171.044,347.491 171.097 C 347.761 171.150,348.264 170.650,348.608 169.984 C 348.952 169.318,349.411 168.883,349.627 169.017 C 349.843 169.150,349.970 169.084,349.910 168.870 C 349.849 168.655,349.916 168.507,350.058 168.540 C 350.200 168.573,350.694 168.258,351.157 167.839 C 352.012 167.066,351.715 165.992,350.651 166.006 C 350.403 166.009,350.470 166.187,350.800 166.400 M55.483 173.927 C 55.969 174.352,56.239 174.842,56.083 175.014 C 55.927 175.187,56.025 175.199,56.300 175.041 C 56.984 174.647,56.954 174.586,55.700 173.822 L 54.600 173.153 55.483 173.927 M58.857 177.163 C 58.455 177.413,58.436 177.575,58.784 177.790 C 59.333 178.129,59.745 177.829,59.542 177.238 C 59.458 176.996,59.176 176.965,58.857 177.163 M338.700 178.488 C 337.875 178.966,337.200 179.602,337.200 179.902 C 337.200 180.212,337.001 180.324,336.738 180.162 C 336.464 179.993,336.385 180.051,336.542 180.306 C 336.864 180.827,335.684 182.099,335.172 181.783 C 334.973 181.659,334.915 181.833,335.044 182.169 C 335.254 182.716,335.403 182.716,336.471 182.163 C 337.273 181.749,337.587 181.343,337.428 180.928 C 337.259 180.488,337.370 180.380,337.816 180.551 C 338.176 180.689,338.338 180.623,338.197 180.395 C 338.063 180.178,338.246 180.000,338.605 180.000 C 339.422 180.000,340.183 179.217,340.256 178.300 C 340.286 177.915,340.286 177.604,340.256 177.609 C 340.225 177.614,339.525 178.010,338.700 178.488 M331.783 185.172 C 332.099 185.684,330.827 186.864,330.306 186.542 C 330.051 186.385,329.993 186.464,330.162 186.738 C 330.325 187.002,330.211 187.200,329.897 187.200 C 329.595 187.200,328.954 187.900,328.473 188.756 C 327.682 190.163,327.665 190.306,328.299 190.256 C 329.217 190.183,330.000 189.422,330.000 188.605 C 330.000 188.246,330.178 188.063,330.395 188.197 C 330.623 188.338,330.689 188.176,330.551 187.816 C 330.380 187.370,330.488 187.259,330.928 187.428 C 331.343 187.587,331.749 187.273,332.163 186.471 C 332.716 185.403,332.716 185.254,332.169 185.044 C 331.833 184.915,331.659 184.973,331.783 185.172 M72.000 190.776 C 72.000 191.447,72.709 191.613,72.946 190.998 C 73.085 190.635,72.944 190.400,72.587 190.400 C 72.264 190.400,72.000 190.569,72.000 190.776 M326.800 190.836 C 326.800 191.062,326.652 191.156,326.471 191.044 C 326.142 190.841,325.093 191.847,324.850 192.600 C 324.778 192.820,324.558 192.955,324.360 192.900 C 324.162 192.845,324.000 192.952,324.000 193.138 C 324.000 193.324,323.529 193.999,322.953 194.638 C 322.377 195.277,322.046 195.530,322.217 195.200 C 322.401 194.846,322.379 194.736,322.164 194.933 C 321.964 195.117,321.792 195.477,321.782 195.733 C 321.772 195.990,321.547 196.155,321.282 196.100 C 321.017 196.045,320.800 196.191,320.800 196.424 C 320.800 196.657,320.592 196.719,320.338 196.562 C 320.049 196.383,319.985 196.452,320.168 196.748 C 320.340 197.027,319.878 197.802,319.040 198.640 C 318.259 199.421,317.637 200.181,317.657 200.330 C 317.764 201.103,317.543 201.331,317.200 200.800 C 316.855 200.267,316.811 200.267,316.800 200.800 C 316.789 201.333,316.745 201.333,316.400 200.800 C 316.187 200.470,316.009 200.403,316.006 200.651 C 315.985 202.175,317.952 201.816,318.471 200.200 C 318.542 199.980,318.748 199.849,318.930 199.910 C 319.111 199.970,319.150 199.843,319.017 199.627 C 318.883 199.411,319.318 198.952,319.984 198.608 C 320.650 198.264,321.150 197.761,321.097 197.491 C 321.044 197.221,321.225 197.045,321.500 197.100 C 321.775 197.155,322.000 197.020,322.000 196.800 C 322.000 196.580,322.255 196.400,322.567 196.400 C 322.878 196.400,323.283 195.979,323.467 195.465 C 323.650 194.951,324.734 193.706,325.876 192.699 C 327.344 191.403,327.783 190.802,327.376 190.646 C 327.059 190.525,326.800 190.610,326.800 190.836 M74.959 193.700 C 74.801 193.975,74.813 194.073,74.986 193.917 C 75.158 193.761,75.648 194.031,76.073 194.517 L 76.847 195.400 76.178 194.300 C 75.414 193.046,75.353 193.016,74.959 193.700 M315.362 201.538 C 315.537 201.822,315.368 202.002,314.924 202.006 C 314.310 202.011,314.291 202.071,314.800 202.400 C 315.200 202.658,315.233 202.790,314.900 202.794 C 314.625 202.797,314.400 203.067,314.400 203.392 C 314.400 203.718,313.951 204.097,313.403 204.235 C 312.854 204.373,312.496 204.633,312.608 204.812 C 312.719 204.992,312.529 205.198,312.185 205.270 C 311.625 205.387,311.627 205.483,312.213 206.200 C 312.778 206.893,312.835 206.904,312.637 206.279 C 312.496 205.832,312.569 205.657,312.832 205.819 C 313.064 205.963,313.352 205.704,313.472 205.245 C 313.593 204.785,313.816 204.486,313.969 204.581 C 314.305 204.788,315.730 202.957,315.846 202.168 C 315.891 201.857,315.737 201.485,315.503 201.340 C 315.251 201.184,315.193 201.266,315.362 201.538 M87.398 206.403 C 87.256 206.632,87.321 206.770,87.542 206.710 C 87.763 206.649,88.236 206.960,88.594 207.400 C 89.233 208.187,89.237 208.185,88.820 207.322 C 88.288 206.222,87.732 205.863,87.398 206.403 M310.855 206.364 C 310.394 206.650,310.394 206.737,310.855 206.920 C 311.159 207.041,310.986 207.151,310.463 207.168 C 309.880 207.188,309.446 207.501,309.317 207.996 C 309.203 208.433,308.922 208.675,308.693 208.534 C 308.464 208.392,308.392 208.464,308.534 208.693 C 308.675 208.922,308.433 209.203,307.996 209.317 C 307.490 209.449,307.198 209.866,307.194 210.463 C 307.190 211.129,307.090 211.245,306.850 210.866 C 306.577 210.437,306.464 210.456,306.268 210.966 C 305.772 212.259,307.060 211.523,309.340 209.211 C 311.439 207.081,312.298 205.468,310.855 206.364 M92.600 211.406 C 93.040 211.764,93.351 212.237,93.290 212.458 C 93.230 212.679,93.368 212.744,93.597 212.602 C 94.137 212.268,93.778 211.712,92.678 211.180 C 91.815 210.763,91.813 210.767,92.600 211.406 M305.200 212.210 C 305.200 212.560,305.039 212.748,304.843 212.626 C 304.646 212.505,304.373 212.854,304.235 213.403 C 304.097 213.951,303.718 214.400,303.392 214.400 C 303.067 214.400,302.797 214.625,302.794 214.900 C 302.790 215.233,302.658 215.200,302.400 214.800 C 302.071 214.291,302.011 214.310,302.006 214.924 C 302.002 215.368,301.822 215.537,301.538 215.362 C 301.266 215.193,301.184 215.251,301.340 215.503 C 301.485 215.737,301.857 215.891,302.168 215.846 C 302.957 215.730,304.788 214.305,304.581 213.969 C 304.486 213.816,304.785 213.593,305.245 213.472 C 305.704 213.352,305.963 213.064,305.819 212.832 C 305.661 212.575,305.802 212.503,306.179 212.647 C 307.077 212.992,306.942 212.504,306.000 212.000 C 305.356 211.655,305.200 211.696,305.200 212.210 M300.800 216.400 C 301.333 216.745,301.333 216.789,300.800 216.800 C 300.267 216.811,300.267 216.855,300.800 217.200 C 301.331 217.543,301.103 217.764,300.330 217.657 C 300.182 217.637,299.421 218.259,298.640 219.040 C 297.802 219.878,297.027 220.340,296.748 220.168 C 296.452 219.985,296.383 220.049,296.562 220.338 C 296.719 220.592,296.657 220.800,296.424 220.800 C 296.191 220.800,296.045 221.017,296.100 221.282 C 296.155 221.547,295.990 221.772,295.733 221.782 C 295.477 221.792,295.117 221.964,294.933 222.164 C 294.736 222.379,294.846 222.401,295.200 222.217 C 295.530 222.046,295.277 222.377,294.638 222.953 C 293.999 223.529,293.324 224.000,293.138 224.000 C 292.952 224.000,292.845 224.135,292.900 224.300 C 292.955 224.465,292.910 224.608,292.800 224.618 C 292.297 224.664,290.863 226.178,291.044 226.471 C 291.156 226.652,291.062 226.800,290.836 226.800 C 290.610 226.800,290.525 227.059,290.646 227.376 C 290.802 227.783,291.403 227.344,292.699 225.876 C 293.706 224.734,294.951 223.650,295.465 223.467 C 295.979 223.283,296.400 222.878,296.400 222.567 C 296.400 222.255,296.580 222.000,296.800 222.000 C 297.020 222.000,297.155 221.775,297.100 221.500 C 297.045 221.225,297.221 221.044,297.491 221.097 C 297.761 221.150,298.264 220.650,298.608 219.984 C 298.952 219.318,299.411 218.883,299.627 219.017 C 299.843 219.150,299.970 219.084,299.910 218.870 C 299.849 218.655,299.916 218.507,300.058 218.540 C 300.200 218.573,300.694 218.258,301.157 217.839 C 302.012 217.066,301.715 215.992,300.651 216.006 C 300.403 216.009,300.470 216.187,300.800 216.400 M100.800 219.400 C 100.800 219.728,101.100 219.847,101.600 219.716 C 102.040 219.601,102.400 219.459,102.400 219.400 C 102.400 219.341,102.040 219.199,101.600 219.084 C 101.100 218.953,100.800 219.072,100.800 219.400 M105.483 223.960 C 105.969 224.367,106.239 224.842,106.083 225.014 C 105.927 225.187,106.025 225.199,106.300 225.041 C 107.062 224.602,106.901 224.248,105.697 223.710 L 104.600 223.219 105.483 223.960 M108.857 227.163 C 108.455 227.413,108.436 227.575,108.784 227.790 C 109.333 228.129,109.745 227.829,109.542 227.238 C 109.458 226.996,109.176 226.965,108.857 227.163 M288.700 228.488 C 287.875 228.966,287.200 229.602,287.200 229.902 C 287.200 230.212,287.001 230.324,286.738 230.162 C 286.464 229.993,286.385 230.051,286.542 230.306 C 286.864 230.827,285.684 232.099,285.172 231.783 C 284.973 231.659,284.915 231.833,285.044 232.169 C 285.254 232.716,285.403 232.716,286.471 232.163 C 287.273 231.749,287.587 231.343,287.428 230.928 C 287.259 230.488,287.370 230.380,287.816 230.551 C 288.176 230.689,288.338 230.623,288.197 230.395 C 288.063 230.178,288.246 230.000,288.605 230.000 C 289.422 230.000,290.183 229.217,290.256 228.300 C 290.286 227.915,290.286 227.604,290.256 227.609 C 290.225 227.614,289.525 228.010,288.700 228.488 M113.200 230.424 C 113.200 230.657,113.020 230.736,112.800 230.600 C 112.580 230.464,112.400 230.543,112.400 230.776 C 112.400 231.009,112.670 231.200,113.000 231.200 C 113.330 231.200,113.600 230.930,113.600 230.600 C 113.600 230.270,113.510 230.000,113.400 230.000 C 113.290 230.000,113.200 230.191,113.200 230.424 M281.783 235.172 C 282.099 235.684,280.827 236.864,280.306 236.542 C 280.051 236.385,279.993 236.464,280.162 236.738 C 280.325 237.002,280.211 237.200,279.897 237.200 C 279.595 237.200,278.954 237.900,278.473 238.756 C 277.682 240.163,277.665 240.306,278.299 240.256 C 279.217 240.183,280.000 239.422,280.000 238.605 C 280.000 238.246,280.178 238.063,280.395 238.197 C 280.623 238.338,280.689 238.176,280.551 237.816 C 280.380 237.370,280.488 237.259,280.928 237.428 C 281.343 237.587,281.749 237.273,282.163 236.471 C 282.716 235.403,282.716 235.254,282.169 235.044 C 281.833 234.915,281.659 234.973,281.783 235.172 M118.800 237.000 C 118.800 237.330,118.991 237.600,119.224 237.600 C 119.457 237.600,119.545 237.435,119.421 237.234 C 119.297 237.033,119.421 236.777,119.698 236.666 C 120.001 236.544,119.922 236.451,119.500 236.432 C 119.115 236.414,118.800 236.670,118.800 237.000 M122.000 240.776 C 122.000 241.447,122.709 241.613,122.946 240.998 C 123.085 240.635,122.944 240.400,122.587 240.400 C 122.264 240.400,122.000 240.569,122.000 240.776 M276.800 240.836 C 276.800 241.062,276.652 241.156,276.471 241.044 C 276.142 240.841,275.093 241.847,274.850 242.600 C 274.778 242.820,274.558 242.955,274.360 242.900 C 274.162 242.845,274.000 242.952,274.000 243.138 C 274.000 243.324,273.529 243.999,272.953 244.638 C 272.377 245.277,272.046 245.530,272.217 245.200 C 272.401 244.846,272.379 244.736,272.164 244.933 C 271.964 245.117,271.792 245.477,271.782 245.733 C 271.772 245.990,271.547 246.155,271.282 246.100 C 271.017 246.045,270.800 246.191,270.800 246.424 C 270.800 246.657,270.592 246.719,270.338 246.562 C 270.049 246.383,269.985 246.452,270.168 246.748 C 270.340 247.027,269.878 247.802,269.040 248.640 C 268.259 249.421,267.637 250.181,267.657 250.330 C 267.764 251.103,267.543 251.331,267.200 250.800 C 266.855 250.267,266.811 250.267,266.800 250.800 C 266.789 251.333,266.745 251.333,266.400 250.800 C 266.187 250.470,266.009 250.403,266.006 250.651 C 265.985 252.175,267.952 251.816,268.471 250.200 C 268.542 249.980,268.748 249.849,268.930 249.910 C 269.111 249.970,269.150 249.843,269.017 249.627 C 268.883 249.411,269.318 248.952,269.984 248.608 C 270.650 248.264,271.150 247.761,271.097 247.491 C 271.044 247.221,271.225 247.045,271.500 247.100 C 271.775 247.155,272.000 247.020,272.000 246.800 C 272.000 246.580,272.255 246.400,272.567 246.400 C 272.878 246.400,273.283 245.979,273.467 245.465 C 273.650 244.951,274.734 243.706,275.876 242.699 C 277.344 241.403,277.783 240.802,277.376 240.646 C 277.059 240.525,276.800 240.610,276.800 240.836 M124.959 243.700 C 124.801 243.975,124.813 244.073,124.986 243.917 C 125.158 243.761,125.633 244.031,126.040 244.517 L 126.781 245.400 126.290 244.303 C 125.752 243.099,125.398 242.938,124.959 243.700 M130.284 248.400 C 130.153 248.900,130.272 249.200,130.600 249.200 C 130.928 249.200,131.047 248.900,130.916 248.400 C 130.801 247.960,130.659 247.600,130.600 247.600 C 130.541 247.600,130.399 247.960,130.284 248.400 M265.362 251.538 C 265.537 251.822,265.368 252.002,264.924 252.006 C 264.310 252.011,264.291 252.071,264.800 252.400 C 265.200 252.658,265.233 252.790,264.900 252.794 C 264.625 252.797,264.400 253.067,264.400 253.392 C 264.400 253.718,263.951 254.097,263.403 254.235 C 262.854 254.373,262.496 254.633,262.608 254.812 C 262.719 254.992,262.529 255.198,262.185 255.270 C 261.625 255.387,261.627 255.483,262.213 256.200 C 262.778 256.893,262.835 256.904,262.637 256.279 C 262.496 255.832,262.569 255.657,262.832 255.819 C 263.064 255.963,263.352 255.704,263.472 255.245 C 263.593 254.785,263.816 254.486,263.969 254.581 C 264.305 254.788,265.730 252.957,265.846 252.168 C 265.891 251.857,265.737 251.485,265.503 251.340 C 265.251 251.184,265.193 251.266,265.362 251.538 M137.353 256.477 C 137.236 256.665,137.321 256.770,137.542 256.710 C 137.763 256.649,138.196 256.939,138.505 257.353 C 138.984 257.995,139.067 258.009,139.067 257.453 C 139.067 257.094,138.906 256.800,138.710 256.800 C 138.513 256.800,138.445 256.650,138.559 256.467 C 138.672 256.283,138.495 256.133,138.165 256.133 C 137.835 256.133,137.469 256.288,137.353 256.477 M260.855 256.364 C 260.394 256.650,260.394 256.737,260.855 256.920 C 261.159 257.041,260.986 257.151,260.463 257.168 C 259.880 257.188,259.446 257.501,259.317 257.996 C 259.203 258.433,258.922 258.675,258.693 258.534 C 258.464 258.392,258.392 258.464,258.534 258.693 C 258.675 258.922,258.433 259.203,257.996 259.317 C 257.490 259.449,257.198 259.866,257.194 260.463 C 257.190 261.129,257.090 261.245,256.850 260.866 C 256.577 260.437,256.464 260.456,256.268 260.966 C 255.772 262.259,257.060 261.523,259.340 259.211 C 261.439 257.081,262.298 255.468,260.855 256.364 M142.647 261.495 C 143.061 261.804,143.340 262.269,143.267 262.528 C 143.193 262.788,143.274 262.860,143.445 262.688 C 143.895 262.238,143.998 261.154,143.565 261.422 C 143.364 261.546,143.200 261.487,143.200 261.290 C 143.200 261.094,142.906 260.933,142.547 260.933 C 141.991 260.933,142.005 261.016,142.647 261.495 M255.200 262.210 C 255.200 262.560,255.039 262.748,254.843 262.626 C 254.646 262.505,254.373 262.854,254.235 263.403 C 254.097 263.951,253.718 264.400,253.392 264.400 C 253.067 264.400,252.797 264.625,252.794 264.900 C 252.790 265.233,252.658 265.200,252.400 264.800 C 252.071 264.291,252.011 264.310,252.006 264.924 C 252.002 265.368,251.822 265.537,251.538 265.362 C 251.266 265.193,251.184 265.251,251.340 265.503 C 251.485 265.737,251.857 265.891,252.168 265.846 C 252.957 265.730,254.788 264.305,254.581 263.969 C 254.486 263.816,254.785 263.593,255.245 263.472 C 255.704 263.352,255.963 263.064,255.819 262.832 C 255.661 262.575,255.802 262.503,256.179 262.647 C 257.077 262.992,256.942 262.504,256.000 262.000 C 255.356 261.655,255.200 261.696,255.200 262.210 M250.800 266.400 C 251.333 266.745,251.333 266.789,250.800 266.800 C 250.267 266.811,250.267 266.855,250.800 267.200 C 251.331 267.543,251.103 267.764,250.330 267.657 C 250.182 267.637,249.421 268.259,248.640 269.040 C 247.802 269.878,247.027 270.340,246.748 270.168 C 246.452 269.985,246.383 270.049,246.562 270.338 C 246.719 270.592,246.657 270.800,246.424 270.800 C 246.191 270.800,246.045 271.017,246.100 271.282 C 246.155 271.547,245.990 271.772,245.733 271.782 C 245.477 271.792,245.117 271.964,244.933 272.164 C 244.736 272.379,244.846 272.401,245.200 272.217 C 245.530 272.046,245.277 272.377,244.638 272.953 C 243.999 273.529,243.324 274.000,243.138 274.000 C 242.952 274.000,242.845 274.135,242.900 274.300 C 242.955 274.465,242.910 274.608,242.800 274.618 C 242.297 274.664,240.863 276.178,241.044 276.471 C 241.156 276.652,241.062 276.800,240.836 276.800 C 240.610 276.800,240.525 277.059,240.646 277.376 C 240.802 277.783,241.403 277.344,242.699 275.876 C 243.706 274.734,244.951 273.650,245.465 273.467 C 245.979 273.283,246.400 272.878,246.400 272.567 C 246.400 272.255,246.580 272.000,246.800 272.000 C 247.020 272.000,247.155 271.775,247.100 271.500 C 247.045 271.225,247.221 271.044,247.491 271.097 C 247.761 271.150,248.264 270.650,248.608 269.984 C 248.952 269.318,249.411 268.883,249.627 269.017 C 249.843 269.150,249.970 269.084,249.910 268.870 C 249.849 268.655,249.916 268.507,250.058 268.540 C 250.200 268.573,250.694 268.258,251.157 267.839 C 252.012 267.066,251.715 265.992,250.651 266.006 C 250.403 266.009,250.470 266.187,250.800 266.400 M150.800 269.400 C 150.800 269.728,151.100 269.847,151.600 269.716 C 152.040 269.601,152.400 269.459,152.400 269.400 C 152.400 269.341,152.040 269.199,151.600 269.084 C 151.100 268.953,150.800 269.072,150.800 269.400 M155.483 273.960 C 155.969 274.367,156.239 274.842,156.083 275.014 C 155.927 275.187,156.025 275.199,156.300 275.041 C 157.062 274.602,156.901 274.248,155.697 273.710 L 154.600 273.219 155.483 273.960 M158.857 277.163 C 158.455 277.413,158.436 277.575,158.784 277.790 C 159.333 278.129,159.745 277.829,159.542 277.238 C 159.458 276.996,159.176 276.965,158.857 277.163 M238.700 278.488 C 237.875 278.966,237.200 279.602,237.200 279.902 C 237.200 280.212,237.001 280.324,236.738 280.162 C 236.464 279.993,236.385 280.051,236.542 280.306 C 236.864 280.827,235.684 282.099,235.172 281.783 C 234.973 281.659,234.915 281.833,235.044 282.169 C 235.254 282.716,235.403 282.716,236.471 282.163 C 237.273 281.749,237.587 281.343,237.428 280.928 C 237.259 280.488,237.370 280.380,237.816 280.551 C 238.176 280.689,238.338 280.623,238.197 280.395 C 238.063 280.178,238.246 280.000,238.605 280.000 C 239.422 280.000,240.183 279.217,240.256 278.300 C 240.286 277.915,240.286 277.604,240.256 277.609 C 240.225 277.614,239.525 278.010,238.700 278.488 M163.200 280.424 C 163.200 280.657,163.020 280.736,162.800 280.600 C 162.580 280.464,162.400 280.543,162.400 280.776 C 162.400 281.009,162.670 281.200,163.000 281.200 C 163.330 281.200,163.600 280.930,163.600 280.600 C 163.600 280.270,163.510 280.000,163.400 280.000 C 163.290 280.000,163.200 280.191,163.200 280.424 M231.783 285.172 C 232.099 285.684,230.827 286.864,230.306 286.542 C 230.051 286.385,229.993 286.464,230.162 286.738 C 230.325 287.002,230.211 287.200,229.897 287.200 C 229.595 287.200,228.954 287.900,228.473 288.756 C 227.682 290.163,227.665 290.306,228.299 290.256 C 229.217 290.183,230.000 289.422,230.000 288.605 C 230.000 288.246,230.178 288.063,230.395 288.197 C 230.623 288.338,230.689 288.176,230.551 287.816 C 230.380 287.370,230.488 287.259,230.928 287.428 C 231.343 287.587,231.749 287.273,232.163 286.471 C 232.716 285.403,232.716 285.254,232.169 285.044 C 231.833 284.915,231.659 284.973,231.783 285.172 M168.800 287.000 C 168.800 287.330,168.991 287.600,169.224 287.600 C 169.457 287.600,169.545 287.435,169.421 287.234 C 169.297 287.033,169.421 286.777,169.698 286.666 C 170.001 286.544,169.922 286.451,169.500 286.432 C 169.115 286.414,168.800 286.670,168.800 287.000 M172.000 290.776 C 172.000 291.447,172.709 291.613,172.946 290.998 C 173.085 290.635,172.944 290.400,172.587 290.400 C 172.264 290.400,172.000 290.569,172.000 290.776 M226.800 290.836 C 226.800 291.062,226.652 291.156,226.471 291.044 C 226.142 290.841,225.093 291.847,224.850 292.600 C 224.778 292.820,224.558 292.955,224.360 292.900 C 224.162 292.845,224.000 292.952,224.000 293.138 C 224.000 293.324,223.529 293.999,222.953 294.638 C 222.377 295.277,222.046 295.530,222.217 295.200 C 222.401 294.846,222.379 294.736,222.164 294.933 C 221.964 295.117,221.792 295.477,221.782 295.733 C 221.772 295.990,221.547 296.155,221.282 296.100 C 221.017 296.045,220.800 296.191,220.800 296.424 C 220.800 296.657,220.592 296.719,220.338 296.562 C 220.049 296.383,219.985 296.452,220.168 296.748 C 220.340 297.027,219.878 297.802,219.040 298.640 C 218.259 299.421,217.637 300.181,217.657 300.330 C 217.764 301.103,217.543 301.331,217.200 300.800 C 216.855 300.267,216.811 300.267,216.800 300.800 C 216.789 301.333,216.745 301.333,216.400 300.800 C 216.187 300.470,216.009 300.403,216.006 300.651 C 215.985 302.175,217.952 301.816,218.471 300.200 C 218.542 299.980,218.748 299.849,218.930 299.910 C 219.111 299.970,219.150 299.843,219.017 299.627 C 218.883 299.411,219.318 298.952,219.984 298.608 C 220.650 298.264,221.150 297.761,221.097 297.491 C 221.044 297.221,221.225 297.045,221.500 297.100 C 221.775 297.155,222.000 297.020,222.000 296.800 C 222.000 296.580,222.255 296.400,222.567 296.400 C 222.878 296.400,223.283 295.979,223.467 295.465 C 223.650 294.951,224.734 293.706,225.876 292.699 C 227.344 291.403,227.783 290.802,227.376 290.646 C 227.059 290.525,226.800 290.610,226.800 290.836 M174.959 293.700 C 174.801 293.975,174.813 294.073,174.986 293.917 C 175.158 293.761,175.633 294.031,176.040 294.517 L 176.781 295.400 176.290 294.303 C 175.752 293.099,175.398 292.938,174.959 293.700 M180.284 298.400 C 180.153 298.900,180.272 299.200,180.600 299.200 C 180.928 299.200,181.047 298.900,180.916 298.400 C 180.801 297.960,180.659 297.600,180.600 297.600 C 180.541 297.600,180.399 297.960,180.284 298.400 M215.359 301.500 C 215.544 301.821,215.388 302.002,214.924 302.006 C 214.467 302.010,214.368 302.121,214.656 302.306 C 214.989 302.521,214.970 302.732,214.585 303.088 C 214.296 303.357,213.985 303.447,213.895 303.288 C 213.805 303.130,213.798 303.256,213.879 303.568 C 213.961 303.880,213.801 304.276,213.525 304.446 C 213.249 304.617,213.121 304.854,213.240 304.974 C 213.360 305.093,214.013 304.648,214.692 303.984 C 215.888 302.814,216.121 301.955,215.414 301.312 C 215.226 301.140,215.201 301.225,215.359 301.500 M186.585 305.167 C 187.746 306.324,188.092 306.489,188.383 306.023 C 188.627 305.630,188.529 305.290,188.074 304.957 C 187.644 304.643,187.317 304.611,187.158 304.868 C 187.022 305.088,186.821 304.922,186.710 304.500 C 186.600 304.079,186.203 303.733,185.828 303.733 C 185.327 303.733,185.527 304.112,186.585 305.167 M210.240 306.464 C 210.372 306.679,210.115 306.949,209.668 307.066 C 209.221 307.183,208.749 307.557,208.619 307.896 C 208.433 308.380,208.500 308.415,208.928 308.060 C 209.228 307.811,209.592 307.725,209.737 307.870 C 209.882 308.015,210.000 307.929,210.000 307.679 C 210.000 307.429,210.247 307.320,210.548 307.436 C 210.850 307.551,211.198 307.383,211.321 307.062 C 211.459 306.703,211.248 306.401,210.772 306.277 C 210.329 306.161,210.102 306.241,210.240 306.464 M192.400 308.386 C 192.400 308.614,192.681 308.800,193.024 308.800 C 193.367 308.800,193.560 308.941,193.453 309.114 C 193.346 309.287,193.585 309.429,193.984 309.429 C 194.423 309.429,194.629 309.219,194.505 308.897 C 194.393 308.605,194.210 308.457,194.098 308.569 C 193.986 308.680,193.558 308.592,193.147 308.372 C 192.641 308.101,192.400 308.106,192.400 308.386 M202.000 309.800 C 202.000 310.130,202.180 310.400,202.400 310.400 C 202.620 310.400,202.800 310.130,202.800 309.800 C 202.800 309.470,202.620 309.200,202.400 309.200 C 202.180 309.200,202.000 309.470,202.000 309.800 " stroke="none" fill="#a4dcdc" fill-rule="evenodd"></path><path id="path2" d="M13.686 132.946 C 14.189 133.467,14.674 133.828,14.764 133.749 C 14.997 133.545,13.548 132.000,13.124 132.000 C 12.930 132.000,13.183 132.426,13.686 132.946 M16.886 136.146 C 17.389 136.667,17.874 137.028,17.964 136.949 C 18.197 136.745,16.748 135.200,16.324 135.200 C 16.130 135.200,16.383 135.626,16.886 136.146 M63.686 182.946 C 64.189 183.467,64.674 183.828,64.764 183.749 C 64.997 183.545,63.548 182.000,63.124 182.000 C 62.930 182.000,63.183 182.426,63.686 182.946 M66.886 186.146 C 67.389 186.667,67.874 187.028,67.964 186.949 C 68.197 186.745,66.748 185.200,66.324 185.200 C 66.130 185.200,66.383 185.626,66.886 186.146 M113.686 232.946 C 114.189 233.467,114.674 233.828,114.764 233.749 C 114.997 233.545,113.548 232.000,113.124 232.000 C 112.930 232.000,113.183 232.426,113.686 232.946 M116.886 236.146 C 117.389 236.667,117.874 237.028,117.964 236.949 C 118.197 236.745,116.748 235.200,116.324 235.200 C 116.130 235.200,116.383 235.626,116.886 236.146 M163.686 282.946 C 164.189 283.467,164.674 283.828,164.764 283.749 C 164.997 283.545,163.548 282.000,163.124 282.000 C 162.930 282.000,163.183 282.426,163.686 282.946 M166.886 286.146 C 167.389 286.667,167.874 287.028,167.964 286.949 C 168.197 286.745,166.748 285.200,166.324 285.200 C 166.130 285.200,166.383 285.626,166.886 286.146 " stroke="none" fill="#b0dcdc" fill-rule="evenodd"></path><path id="path3" d="M13.686 132.946 C 14.189 133.467,14.674 133.828,14.764 133.749 C 14.997 133.545,13.548 132.000,13.124 132.000 C 12.930 132.000,13.183 132.426,13.686 132.946 M16.886 136.146 C 17.389 136.667,17.874 137.028,17.964 136.949 C 18.197 136.745,16.748 135.200,16.324 135.200 C 16.130 135.200,16.383 135.626,16.886 136.146 M63.686 182.946 C 64.189 183.467,64.674 183.828,64.764 183.749 C 64.997 183.545,63.548 182.000,63.124 182.000 C 62.930 182.000,63.183 182.426,63.686 182.946 M66.886 186.146 C 67.389 186.667,67.874 187.028,67.964 186.949 C 68.197 186.745,66.748 185.200,66.324 185.200 C 66.130 185.200,66.383 185.626,66.886 186.146 M113.686 232.946 C 114.189 233.467,114.674 233.828,114.764 233.749 C 114.997 233.545,113.548 232.000,113.124 232.000 C 112.930 232.000,113.183 232.426,113.686 232.946 M116.886 236.146 C 117.389 236.667,117.874 237.028,117.964 236.949 C 118.197 236.745,116.748 235.200,116.324 235.200 C 116.130 235.200,116.383 235.626,116.886 236.146 M163.686 282.946 C 164.189 283.467,164.674 283.828,164.764 283.749 C 164.997 283.545,163.548 282.000,163.124 282.000 C 162.930 282.000,163.183 282.426,163.686 282.946 M166.886 286.146 C 167.389 286.667,167.874 287.028,167.964 286.949 C 168.197 286.745,166.748 285.200,166.324 285.200 C 166.130 285.200,166.383 285.626,166.886 286.146 " stroke="none" fill="#b0dcdc" fill-rule="evenodd"></path><path id="path4" d="M13.686 132.946 C 14.189 133.467,14.674 133.828,14.764 133.749 C 14.997 133.545,13.548 132.000,13.124 132.000 C 12.930 132.000,13.183 132.426,13.686 132.946 M16.886 136.146 C 17.389 136.667,17.874 137.028,17.964 136.949 C 18.197 136.745,16.748 135.200,16.324 135.200 C 16.130 135.200,16.383 135.626,16.886 136.146 M63.686 182.946 C 64.189 183.467,64.674 183.828,64.764 183.749 C 64.997 183.545,63.548 182.000,63.124 182.000 C 62.930 182.000,63.183 182.426,63.686 182.946 M66.886 186.146 C 67.389 186.667,67.874 187.028,67.964 186.949 C 68.197 186.745,66.748 185.200,66.324 185.200 C 66.130 185.200,66.383 185.626,66.886 186.146 M113.686 232.946 C 114.189 233.467,114.674 233.828,114.764 233.749 C 114.997 233.545,113.548 232.000,113.124 232.000 C 112.930 232.000,113.183 232.426,113.686 232.946 M116.886 236.146 C 117.389 236.667,117.874 237.028,117.964 236.949 C 118.197 236.745,116.748 235.200,116.324 235.200 C 116.130 235.200,116.383 235.626,116.886 236.146 M163.686 282.946 C 164.189 283.467,164.674 283.828,164.764 283.749 C 164.997 283.545,163.548 282.000,163.124 282.000 C 162.930 282.000,163.183 282.426,163.686 282.946 M166.886 286.146 C 167.389 286.667,167.874 287.028,167.964 286.949 C 168.197 286.745,166.748 285.200,166.324 285.200 C 166.130 285.200,166.383 285.626,166.886 286.146 " stroke="none" fill="#b0dcdc" fill-rule="evenodd"></path></g></svg>