<svg id="svg" version="1.1" xmlns="http://www.w3.org/2000/svg" xmlns:xlink="http://www.w3.org/1999/xlink" width="400"
     height="400" viewBox="0, 0, 400,400">
    <g id="svgg">
        <path id="path0"
              d="M195.300 16.497 C 194.805 16.731,194.400 17.153,194.400 17.435 C 194.400 17.759,194.043 17.882,193.424 17.770 C 192.762 17.650,192.096 17.920,191.350 18.611 C 190.746 19.171,190.018 19.539,189.731 19.429 C 189.444 19.319,189.252 19.447,189.305 19.714 C 189.357 19.981,189.082 20.146,188.694 20.081 C 188.284 20.012,188.032 20.180,188.094 20.481 C 188.152 20.766,187.988 20.959,187.728 20.909 C 187.428 20.852,187.324 21.191,187.442 21.841 C 187.565 22.519,187.479 22.772,187.187 22.592 C 186.637 22.252,183.354 27.047,183.555 27.896 C 183.568 27.948,183.506 28.218,183.418 28.496 C 182.625 30.988,182.408 36.081,182.476 50.633 C 182.517 59.635,182.663 65.380,182.800 63.400 C 182.937 61.420,183.000 79.231,182.942 102.980 C 182.873 130.588,182.975 146.329,183.224 146.629 C 183.879 147.418,183.527 167.027,182.861 166.887 C 182.345 166.779,182.354 216.089,182.886 306.300 C 182.949 316.915,182.846 325.600,182.657 325.600 C 182.469 325.600,182.418 325.330,182.545 325.000 C 182.680 324.648,182.550 324.400,182.230 324.400 C 181.931 324.400,181.577 324.118,181.445 323.772 C 181.280 323.343,180.920 323.223,180.302 323.393 C 179.410 323.639,179.409 323.634,180.200 322.975 C 180.978 322.326,180.967 322.313,179.808 322.516 C 178.839 322.685,178.732 322.638,179.239 322.262 C 179.793 321.852,179.762 321.701,178.972 320.926 C 177.923 319.896,177.294 320.198,178.261 321.268 C 179.053 322.143,178.602 322.259,177.744 321.401 C 177.365 321.022,177.246 320.486,177.419 319.941 C 177.639 319.247,177.563 319.129,177.025 319.335 C 176.636 319.484,176.459 319.428,176.601 319.199 C 176.881 318.745,175.006 316.727,174.642 317.091 C 174.509 317.224,174.400 317.119,174.400 316.858 C 174.400 315.893,153.943 295.846,153.566 296.442 C 153.371 296.749,153.209 296.803,153.206 296.561 C 153.203 296.320,152.795 295.909,152.300 295.649 C 151.805 295.388,151.709 295.263,152.087 295.370 C 152.465 295.477,152.868 295.413,152.983 295.228 C 153.097 295.043,152.815 294.793,152.355 294.672 C 151.826 294.534,151.619 294.261,151.789 293.927 C 151.938 293.637,151.797 293.720,151.477 294.112 C 151.006 294.688,150.853 294.716,150.679 294.260 C 150.560 293.951,150.660 293.500,150.902 293.258 C 151.221 292.939,151.103 292.865,150.471 292.986 C 149.869 293.102,149.600 292.956,149.600 292.512 C 149.600 292.159,148.925 291.270,148.100 290.536 C 147.275 289.801,146.743 289.200,146.918 289.200 C 147.093 289.200,146.770 288.734,146.200 288.164 C 145.631 287.594,144.919 287.222,144.620 287.337 C 144.080 287.544,142.920 286.571,142.789 285.800 C 142.751 285.580,142.564 285.443,142.374 285.495 C 142.184 285.548,142.126 285.336,142.245 285.026 C 142.368 284.705,142.103 284.269,141.631 284.017 C 141.174 283.772,140.800 283.308,140.800 282.986 C 140.800 282.457,140.320 282.223,139.500 282.353 C 139.335 282.379,139.200 282.173,139.200 281.896 C 139.200 281.619,138.833 281.163,138.384 280.883 C 137.936 280.603,137.679 280.155,137.814 279.887 C 137.949 279.619,137.776 279.749,137.430 280.176 C 136.782 280.975,136.663 280.823,136.778 279.351 C 136.834 278.635,136.669 278.531,135.722 278.683 C 134.953 278.806,134.767 278.745,135.130 278.489 C 135.563 278.184,135.548 278.005,135.049 277.506 C 134.713 277.170,134.550 276.784,134.686 276.648 C 134.822 276.511,134.623 276.400,134.243 276.400 C 133.823 276.400,133.665 276.219,133.838 275.938 C 134.004 275.670,133.949 275.584,133.707 275.734 C 133.478 275.875,133.068 275.723,132.796 275.396 C 132.524 275.068,132.009 274.786,131.651 274.768 C 131.211 274.747,131.168 274.670,131.517 274.530 C 132.167 274.269,131.390 273.200,130.551 273.200 C 130.248 273.200,130.000 272.919,130.000 272.576 C 130.000 272.233,129.820 272.064,129.600 272.200 C 129.380 272.336,129.194 272.212,129.187 271.924 C 129.163 270.907,128.065 269.848,127.511 270.308 C 126.979 270.749,125.546 270.041,125.547 269.336 C 125.547 269.151,125.254 269.061,124.895 269.136 C 124.358 269.247,124.331 269.165,124.741 268.671 C 125.325 267.968,124.786 267.477,123.832 267.843 C 123.362 268.024,123.257 267.917,123.438 267.445 C 123.625 266.957,123.440 266.800,122.676 266.800 C 122.121 266.800,121.607 266.622,121.533 266.405 C 121.454 266.169,120.962 266.237,120.310 266.576 C 119.544 266.974,119.246 267.002,119.310 266.671 C 119.359 266.412,118.886 266.141,118.257 266.069 C 117.461 265.978,117.203 266.081,117.406 266.409 C 117.618 266.752,117.494 266.776,116.948 266.498 C 116.537 266.289,115.120 266.109,113.800 266.100 C 112.382 266.089,111.716 266.201,112.173 266.372 C 113.089 266.715,112.494 267.206,111.377 267.029 C 110.950 266.961,110.128 267.145,109.551 267.437 C 108.974 267.729,108.360 267.840,108.187 267.684 C 108.013 267.528,108.003 267.628,108.164 267.907 C 108.324 268.185,108.651 268.292,108.889 268.145 C 109.159 267.978,109.208 268.064,109.017 268.373 C 108.848 268.646,108.370 268.781,107.955 268.672 C 107.485 268.550,107.200 268.683,107.200 269.025 C 107.200 269.332,106.953 269.480,106.640 269.360 C 105.871 269.065,105.367 270.002,106.049 270.461 C 106.469 270.745,106.415 270.806,105.822 270.717 C 105.324 270.642,104.859 270.960,104.528 271.600 C 104.244 272.150,104.009 272.368,104.006 272.084 C 104.001 271.663,103.898 271.663,103.443 272.084 C 103.024 272.472,102.991 272.799,103.308 273.400 C 103.687 274.116,103.661 274.142,103.065 273.651 C 102.699 273.349,102.379 273.259,102.354 273.451 C 102.328 273.643,102.283 274.070,102.254 274.400 C 102.224 274.730,101.993 274.961,101.740 274.913 C 101.346 274.839,100.856 275.905,100.826 276.904 C 100.820 277.071,100.567 277.701,100.262 278.304 C 99.462 279.886,99.497 281.910,100.327 282.130 C 100.934 282.290,100.932 282.312,100.300 282.354 C 99.534 282.404,99.265 284.400,100.024 284.400 C 100.265 284.400,100.311 284.615,100.131 284.900 C 99.680 285.612,99.642 287.621,100.084 287.348 C 100.287 287.222,100.420 287.363,100.379 287.660 C 100.188 289.054,100.446 290.000,101.018 290.000 C 101.384 290.000,101.587 290.285,101.518 290.700 C 101.433 291.201,101.628 291.367,102.200 291.283 C 102.762 291.201,102.847 291.271,102.486 291.515 C 102.200 291.709,102.088 292.165,102.234 292.544 C 102.477 293.177,102.532 293.175,103.035 292.512 C 103.598 291.770,103.579 291.742,103.746 293.600 C 103.776 293.930,104.070 294.140,104.400 294.067 C 104.730 293.993,104.870 294.063,104.712 294.222 C 104.216 294.718,106.000 296.800,106.927 296.806 C 107.637 296.811,107.688 296.884,107.200 297.200 C 106.692 297.528,106.712 297.589,107.329 297.594 C 108.029 297.600,109.136 298.431,109.314 299.086 C 109.361 299.259,109.565 299.345,109.768 299.277 C 109.970 299.210,109.880 299.469,109.568 299.852 C 109.060 300.475,109.079 300.520,109.745 300.270 C 110.306 300.060,110.432 300.140,110.257 300.595 C 110.127 300.936,110.243 301.200,110.524 301.200 C 111.136 301.200,112.424 302.643,112.100 302.966 C 111.972 303.095,112.167 303.200,112.533 303.200 C 112.900 303.200,113.200 303.481,113.200 303.824 C 113.200 304.167,113.335 304.375,113.500 304.286 C 113.665 304.197,114.430 304.761,115.200 305.539 C 115.970 306.317,116.240 306.694,115.800 306.377 C 115.060 305.843,115.041 305.853,115.553 306.505 C 116.008 307.085,116.217 307.120,116.730 306.705 C 117.221 306.308,117.290 306.307,117.053 306.700 C 116.862 307.018,116.989 307.200,117.400 307.200 C 117.756 307.200,117.936 307.380,117.800 307.600 C 117.664 307.820,117.853 308.000,118.219 308.000 C 118.641 308.000,118.803 308.216,118.660 308.587 C 118.536 308.910,118.607 309.281,118.817 309.411 C 119.028 309.541,119.218 309.412,119.240 309.124 C 119.262 308.836,119.405 309.050,119.559 309.600 C 119.732 310.219,120.136 310.607,120.619 310.619 C 121.049 310.629,121.355 310.854,121.300 311.119 C 121.245 311.383,121.515 311.603,121.900 311.606 C 122.498 311.611,122.513 311.669,122.000 312.000 C 121.517 312.312,121.581 312.389,122.324 312.394 C 122.832 312.397,123.140 312.574,123.008 312.787 C 122.790 313.139,123.734 314.287,127.500 318.247 C 128.215 318.999,128.800 319.528,128.800 319.422 C 128.800 319.315,129.217 319.627,129.726 320.114 C 130.235 320.601,130.584 321.135,130.502 321.300 C 130.420 321.465,130.633 321.600,130.976 321.600 C 131.319 321.600,131.602 321.825,131.604 322.100 C 131.606 322.375,132.142 323.022,132.795 323.538 C 135.164 325.409,136.799 327.067,136.536 327.331 C 136.388 327.479,136.560 327.600,136.919 327.600 C 137.278 327.600,137.767 327.965,138.006 328.411 C 138.245 328.857,138.584 329.134,138.760 329.025 C 139.040 328.852,140.800 330.532,140.800 330.972 C 140.800 331.403,143.307 333.581,143.596 333.402 C 143.777 333.290,143.830 333.604,143.713 334.099 C 143.503 334.989,143.508 334.990,144.151 334.200 C 144.681 333.548,144.757 333.530,144.558 334.100 C 144.127 335.339,144.667 336.099,145.618 335.591 C 146.325 335.212,146.429 335.254,146.324 335.873 C 146.253 336.288,146.414 336.557,146.700 336.500 C 146.975 336.445,147.200 336.664,147.200 336.987 C 147.200 337.364,147.432 337.486,147.847 337.327 C 148.393 337.117,148.424 337.209,148.045 337.915 C 147.501 338.932,148.018 339.369,149.304 338.981 C 150.008 338.768,150.099 338.816,149.729 339.206 C 149.221 339.741,151.003 341.600,152.024 341.600 C 152.304 341.600,152.432 341.701,152.309 341.825 C 152.185 341.948,152.830 342.775,153.742 343.662 C 154.654 344.548,155.130 345.134,154.800 344.963 C 154.470 344.791,155.685 346.118,157.500 347.910 C 159.315 349.702,160.800 351.361,160.800 351.597 C 160.800 351.832,161.115 352.143,161.500 352.288 C 161.885 352.433,162.671 353.051,163.247 353.661 C 163.823 354.272,164.437 354.643,164.611 354.486 C 164.785 354.329,164.814 354.515,164.676 354.900 C 164.538 355.285,164.609 355.600,164.834 355.600 C 165.058 355.600,167.594 357.951,170.469 360.824 C 173.527 363.879,175.918 365.964,176.228 365.845 C 176.586 365.707,176.678 365.853,176.510 366.290 C 176.329 366.762,176.431 366.874,176.885 366.699 C 177.351 366.521,177.458 366.656,177.308 367.230 C 177.172 367.751,177.312 368.000,177.741 368.000 C 178.168 368.000,178.292 368.217,178.119 368.666 C 177.979 369.032,178.030 369.237,178.232 369.122 C 178.672 368.872,181.250 371.417,180.906 371.761 C 180.774 371.892,180.863 372.000,181.104 372.000 C 181.345 372.000,181.624 371.685,181.724 371.300 C 181.893 370.653,181.911 370.655,181.954 371.324 C 181.979 371.722,182.180 371.936,182.400 371.800 C 182.620 371.664,182.800 371.743,182.800 371.976 C 182.800 372.209,182.575 372.406,182.300 372.413 C 181.995 372.420,182.072 372.632,182.500 372.957 C 182.885 373.249,183.200 373.728,183.200 374.021 C 183.200 374.351,183.419 374.259,183.780 373.776 C 184.343 373.022,184.354 373.025,184.141 373.870 C 183.924 374.734,186.472 377.795,186.983 377.284 C 187.102 377.164,187.200 377.290,187.200 377.562 C 187.200 378.189,188.227 379.239,188.537 378.929 C 188.665 378.801,188.981 379.160,189.240 379.727 C 189.638 380.603,189.892 380.722,190.917 380.517 C 191.798 380.340,192.044 380.405,191.828 380.755 C 191.523 381.247,192.230 382.400,192.836 382.400 C 193.023 382.400,193.079 382.085,192.962 381.700 C 192.845 381.315,193.067 381.540,193.456 382.200 C 194.019 383.155,194.193 383.257,194.311 382.700 C 194.492 381.841,195.200 381.768,195.200 382.608 C 195.200 383.062,195.477 383.155,196.300 382.975 C 197.047 382.812,197.229 382.856,196.866 383.112 C 196.450 383.406,196.517 383.537,197.167 383.707 C 197.626 383.827,197.908 383.775,197.794 383.590 C 197.680 383.406,197.770 383.142,197.993 383.004 C 198.217 382.866,198.400 383.033,198.400 383.376 C 198.400 383.719,198.670 384.000,199.000 384.000 C 199.330 384.000,199.600 383.820,199.600 383.600 C 199.600 383.380,199.881 383.200,200.224 383.200 C 200.567 383.200,200.736 383.020,200.600 382.800 C 200.145 382.064,201.199 382.390,201.893 383.200 C 202.568 383.988,203.455 384.336,203.028 383.645 C 202.750 383.196,203.779 382.312,204.148 382.682 C 204.804 383.337,205.497 383.087,205.324 382.257 C 205.160 381.473,205.184 381.462,205.605 382.122 C 205.966 382.689,206.186 382.744,206.628 382.377 C 206.938 382.120,207.094 381.752,206.975 381.559 C 206.856 381.367,207.038 381.316,207.379 381.447 C 207.733 381.583,208.000 381.474,208.000 381.194 C 208.000 380.828,208.137 380.816,208.537 381.148 C 209.197 381.696,209.741 381.252,209.203 380.603 C 208.934 380.279,208.997 380.133,209.406 380.133 C 209.733 380.133,210.000 380.294,210.000 380.490 C 210.000 380.687,210.180 380.736,210.400 380.600 C 210.620 380.464,210.800 379.984,210.800 379.534 C 210.800 378.938,210.980 378.783,211.457 378.966 C 211.967 379.162,212.015 379.100,211.672 378.687 C 211.322 378.265,211.470 378.173,212.402 378.237 C 213.046 378.282,213.534 378.140,213.486 377.922 C 213.439 377.704,213.755 377.317,214.190 377.063 C 215.243 376.446,217.826 373.554,217.700 373.133 C 217.645 372.950,217.742 372.845,217.915 372.900 C 218.240 373.003,220.173 371.234,220.318 370.700 C 220.363 370.535,220.535 370.363,220.700 370.318 C 221.260 370.165,223.001 368.232,222.890 367.885 C 222.830 367.696,222.925 367.630,223.102 367.739 C 223.423 367.938,227.566 364.331,227.719 363.721 C 227.764 363.544,227.935 363.445,228.100 363.500 C 228.265 363.555,228.355 363.375,228.300 363.100 C 228.245 362.825,228.425 362.645,228.700 362.700 C 228.975 362.755,229.155 362.575,229.100 362.300 C 229.045 362.025,229.225 361.845,229.500 361.900 C 229.775 361.955,229.955 361.865,229.900 361.700 C 229.845 361.535,229.944 361.364,230.121 361.320 C 230.438 361.241,231.498 360.154,233.746 357.604 C 234.668 356.558,234.785 356.228,234.346 355.917 C 233.950 355.637,234.053 355.586,234.723 355.734 C 235.485 355.902,235.563 355.838,235.174 355.369 C 234.799 354.917,234.835 354.800,235.351 354.800 C 235.708 354.800,236.000 354.641,236.000 354.447 C 236.000 354.252,236.360 353.999,236.800 353.884 C 237.287 353.757,237.600 353.338,237.600 352.814 C 237.600 352.340,237.760 352.051,237.955 352.172 C 238.150 352.292,238.407 352.017,238.526 351.560 C 238.693 350.922,238.960 350.782,239.672 350.960 C 240.182 351.088,240.375 351.089,240.100 350.963 C 239.432 350.656,239.455 349.859,240.124 350.115 C 240.414 350.227,242.243 348.806,244.224 346.932 C 246.191 345.070,247.575 343.660,247.300 343.797 C 246.974 343.960,246.800 343.733,246.800 343.144 C 246.800 342.441,246.907 342.347,247.280 342.720 C 247.873 343.313,248.400 343.340,248.400 342.776 C 248.400 342.543,248.220 342.464,248.000 342.600 C 247.780 342.736,247.600 342.556,247.600 342.200 C 247.600 341.844,247.780 341.664,248.000 341.800 C 248.220 341.936,248.400 341.857,248.400 341.624 C 248.400 341.391,248.664 341.200,248.987 341.200 C 249.311 341.200,249.488 340.974,249.382 340.697 C 249.276 340.421,249.596 340.009,250.095 339.783 C 250.593 339.556,250.951 339.139,250.890 338.856 C 250.830 338.572,250.965 338.455,251.190 338.594 C 251.416 338.733,251.600 338.651,251.600 338.410 C 251.600 337.842,254.242 335.200,254.810 335.200 C 255.051 335.200,255.142 335.029,255.013 334.821 C 254.884 334.612,255.158 334.515,255.625 334.605 C 256.367 334.748,256.405 334.686,255.936 334.107 C 255.555 333.638,255.545 333.533,255.900 333.747 C 256.220 333.939,256.400 333.807,256.400 333.381 C 256.400 332.963,256.616 332.797,256.980 332.937 C 257.367 333.085,257.485 332.967,257.337 332.580 C 257.214 332.261,257.314 332.000,257.557 332.000 C 257.801 332.000,258.000 332.180,258.000 332.400 C 258.000 332.620,258.191 332.800,258.424 332.800 C 258.657 332.800,258.736 332.620,258.600 332.400 C 258.464 332.180,258.554 332.000,258.801 332.000 C 259.047 332.000,260.688 330.560,262.448 328.800 C 264.208 327.040,265.458 325.600,265.224 325.600 C 264.991 325.600,264.800 325.399,264.800 325.153 C 264.800 324.904,265.153 324.799,265.600 324.916 C 266.040 325.031,266.400 324.962,266.400 324.763 C 266.400 324.563,266.175 324.394,265.900 324.387 C 265.625 324.380,265.896 324.005,266.502 323.552 C 267.108 323.100,267.526 322.603,267.430 322.448 C 267.334 322.293,267.646 322.137,268.123 322.101 C 268.830 322.047,268.880 322.112,268.395 322.448 C 267.870 322.812,267.871 322.840,268.400 322.680 C 268.730 322.581,268.955 322.297,268.900 322.050 C 268.845 321.802,269.058 321.600,269.374 321.600 C 269.768 321.600,269.890 321.286,269.764 320.590 C 269.602 319.696,269.696 319.602,270.590 319.764 C 271.269 319.887,271.600 319.767,271.600 319.397 C 271.600 319.095,271.808 318.719,272.062 318.562 C 272.367 318.373,272.414 318.454,272.200 318.800 C 271.986 319.146,272.033 319.227,272.338 319.038 C 272.592 318.881,272.800 318.483,272.800 318.153 C 272.800 317.823,272.935 317.635,273.100 317.734 C 273.265 317.834,273.664 317.631,273.987 317.282 C 274.508 316.719,274.495 316.678,273.878 316.915 C 273.267 317.149,273.240 317.072,273.658 316.292 C 273.952 315.742,274.197 315.592,274.300 315.901 C 274.586 316.758,275.163 316.446,274.986 315.529 C 274.865 314.898,274.939 314.779,275.258 315.098 C 275.576 315.416,276.346 314.868,278.064 313.102 C 279.366 311.763,280.265 310.562,280.060 310.433 C 279.856 310.305,279.973 309.936,280.320 309.613 C 280.880 309.093,280.922 309.104,280.689 309.713 C 280.544 310.091,280.522 310.400,280.641 310.400 C 281.034 310.400,282.000 309.266,282.000 308.805 C 282.000 308.556,282.180 308.464,282.400 308.600 C 282.620 308.736,282.800 308.561,282.800 308.211 C 282.800 307.861,283.115 307.456,283.500 307.310 C 284.680 306.863,285.204 306.164,284.720 305.680 C 284.415 305.375,284.465 305.078,284.891 304.651 C 285.300 304.242,285.622 304.182,285.901 304.461 C 286.179 304.739,286.407 304.712,286.617 304.373 C 286.815 304.053,286.759 303.978,286.462 304.162 C 286.191 304.329,286.000 304.199,286.000 303.847 C 286.000 303.453,286.288 303.301,286.836 303.407 C 287.566 303.547,287.604 303.485,287.136 302.915 C 286.663 302.338,286.708 302.289,287.523 302.499 C 288.331 302.707,288.381 302.657,287.923 302.094 C 287.476 301.544,287.499 301.487,288.080 301.705 C 288.565 301.887,288.696 301.794,288.537 301.380 C 288.397 301.016,288.563 300.800,288.981 300.800 C 289.407 300.800,289.539 300.620,289.347 300.300 C 289.173 300.011,289.361 300.053,289.793 300.400 C 290.482 300.955,290.521 300.933,290.310 300.114 C 290.185 299.626,290.199 299.243,290.341 299.261 C 291.034 299.351,291.554 299.133,292.400 298.400 C 292.907 297.960,293.115 297.600,292.861 297.600 C 292.608 297.600,292.400 297.437,292.400 297.237 C 292.400 297.038,292.805 296.964,293.300 297.072 C 294.023 297.231,294.082 297.185,293.600 296.841 C 293.109 296.490,293.181 296.410,294.000 296.400 C 294.576 296.393,294.807 296.263,294.544 296.094 C 294.214 295.881,294.242 295.658,294.644 295.284 C 294.980 294.973,295.200 294.937,295.200 295.193 C 295.200 295.432,295.639 295.331,296.200 294.963 C 296.750 294.603,297.200 294.069,297.200 293.777 C 297.200 293.484,297.600 292.965,298.089 292.623 C 298.578 292.280,298.758 292.000,298.489 292.000 C 298.220 292.000,298.000 291.790,298.000 291.533 C 298.000 291.277,298.119 291.186,298.265 291.331 C 298.788 291.855,300.371 288.933,300.168 287.815 C 300.030 287.049,300.111 286.821,300.448 287.030 C 300.754 287.219,300.818 287.152,300.627 286.844 C 300.464 286.581,300.553 286.097,300.825 285.770 C 301.226 285.286,301.177 285.065,300.559 284.587 C 299.871 284.053,299.867 284.022,300.522 284.250 C 301.165 284.475,301.234 284.275,301.149 282.424 C 301.068 280.633,300.953 280.371,300.327 280.535 C 299.926 280.640,299.700 280.562,299.823 280.363 C 299.946 280.163,300.307 280.000,300.624 280.000 C 301.361 280.000,301.363 279.433,300.628 278.823 C 300.313 278.562,300.126 277.984,300.212 277.539 C 300.302 277.069,299.964 276.295,299.405 275.692 C 298.876 275.121,298.534 274.507,298.645 274.327 C 298.756 274.147,298.678 274.000,298.470 274.000 C 298.263 274.000,298.005 273.660,297.896 273.245 C 297.787 272.830,297.181 272.238,296.549 271.929 C 295.866 271.596,295.445 271.103,295.511 270.714 C 295.573 270.346,295.268 269.948,294.811 269.803 C 294.365 269.662,294.000 269.342,294.000 269.093 C 294.000 268.771,293.862 268.778,293.520 269.120 C 292.856 269.784,292.197 269.726,292.756 269.053 C 293.326 268.367,292.320 267.391,291.405 267.743 C 291.070 267.871,290.797 267.757,290.794 267.487 C 290.790 267.179,290.645 267.221,290.400 267.600 C 290.091 268.078,290.005 267.996,289.978 267.200 C 289.948 266.318,289.908 266.292,289.639 266.979 C 289.352 267.712,289.320 267.704,289.094 266.838 C 288.962 266.333,288.707 266.006,288.527 266.113 C 288.347 266.219,287.750 266.124,287.200 265.901 C 285.567 265.240,284.400 265.199,284.400 265.804 C 284.400 266.106,284.236 266.454,284.036 266.578 C 283.517 266.898,282.361 266.387,282.628 265.955 C 283.142 265.123,281.522 265.133,280.938 265.966 C 280.562 266.504,280.150 266.713,279.864 266.513 C 279.043 265.937,276.539 266.571,276.363 267.400 C 276.316 267.620,275.944 267.743,275.536 267.674 C 275.128 267.605,274.687 267.829,274.555 268.172 C 274.424 268.515,274.155 268.696,273.958 268.574 C 273.618 268.364,273.424 268.971,273.575 269.768 C 273.614 269.970,273.361 269.899,273.013 269.611 C 272.476 269.165,272.419 269.185,272.635 269.748 C 272.826 270.244,272.724 270.346,272.228 270.155 C 271.865 270.016,271.596 270.059,271.631 270.251 C 271.788 271.113,271.552 271.600,270.976 271.600 C 270.633 271.600,270.456 271.768,270.583 271.972 C 270.818 272.353,270.118 272.968,269.400 273.012 C 269.180 273.025,269.045 273.253,269.100 273.518 C 269.155 273.783,268.885 274.003,268.500 274.006 C 267.902 274.011,267.887 274.069,268.400 274.400 C 268.882 274.712,268.818 274.789,268.071 274.794 C 266.960 274.801,266.002 275.666,265.994 276.671 C 265.989 277.223,265.906 277.271,265.649 276.866 C 265.394 276.464,265.255 276.547,265.082 277.206 C 264.936 277.766,264.678 277.972,264.365 277.778 C 264.051 277.584,263.979 277.643,264.165 277.943 C 264.518 278.514,262.175 280.955,261.609 280.606 C 261.377 280.462,261.309 280.620,261.447 280.979 C 261.621 281.431,261.429 281.602,260.743 281.606 C 259.987 281.611,259.919 281.689,260.400 282.000 C 260.904 282.326,260.879 282.389,260.247 282.394 C 259.425 282.401,257.601 284.282,257.600 285.124 C 257.600 285.412,257.440 285.549,257.245 285.428 C 257.050 285.307,256.645 285.511,256.345 285.881 C 255.877 286.459,255.884 286.508,256.400 286.226 C 256.730 286.046,256.513 286.372,255.917 286.949 C 255.322 287.527,254.636 288.000,254.394 288.000 C 254.151 288.000,254.048 288.154,254.164 288.342 C 254.280 288.530,253.891 289.115,253.300 289.642 C 252.482 290.370,252.363 290.408,252.805 289.800 C 253.382 289.006,253.379 289.006,252.484 289.771 C 251.803 290.351,251.706 290.621,252.091 290.864 C 252.435 291.083,252.298 291.190,251.671 291.194 C 250.560 291.201,249.602 292.066,249.594 293.071 C 249.589 293.688,249.528 293.708,249.200 293.200 C 248.888 292.717,248.811 292.781,248.806 293.524 C 248.803 294.036,248.622 294.337,248.400 294.200 C 248.180 294.064,248.000 294.143,248.000 294.376 C 248.000 294.609,247.280 295.520,246.400 296.400 C 245.520 297.280,244.609 298.000,244.376 298.000 C 244.143 298.000,244.064 298.180,244.200 298.400 C 244.337 298.622,244.036 298.803,243.524 298.806 C 242.781 298.811,242.717 298.888,243.200 299.200 C 243.708 299.528,243.688 299.589,243.071 299.594 C 242.066 299.602,241.201 300.560,241.194 301.671 C 241.190 302.298,241.083 302.435,240.864 302.091 C 240.621 301.706,240.351 301.803,239.771 302.484 C 239.006 303.379,239.006 303.382,239.800 302.805 C 240.408 302.363,240.370 302.482,239.642 303.300 C 239.115 303.891,238.530 304.280,238.342 304.164 C 238.154 304.048,238.000 304.151,238.000 304.394 C 238.000 304.636,237.527 305.322,236.949 305.917 C 236.372 306.513,236.046 306.730,236.226 306.400 C 236.508 305.884,236.459 305.877,235.881 306.345 C 235.511 306.645,235.307 307.050,235.428 307.245 C 235.549 307.440,235.412 307.600,235.124 307.600 C 234.282 307.601,232.401 309.425,232.394 310.247 C 232.389 310.879,232.326 310.904,232.000 310.400 C 231.689 309.919,231.611 309.987,231.606 310.743 C 231.602 311.429,231.431 311.621,230.979 311.447 C 230.620 311.309,230.462 311.377,230.606 311.609 C 230.955 312.175,228.514 314.518,227.943 314.165 C 227.643 313.979,227.584 314.051,227.778 314.365 C 227.972 314.678,227.766 314.936,227.206 315.082 C 226.547 315.255,226.464 315.394,226.866 315.649 C 227.271 315.906,227.223 315.989,226.671 315.994 C 225.666 316.002,224.801 316.960,224.794 318.071 C 224.789 318.818,224.712 318.882,224.400 318.400 C 224.069 317.887,224.011 317.902,224.006 318.500 C 224.003 318.885,223.838 319.155,223.640 319.100 C 223.442 319.045,223.307 319.107,223.340 319.239 C 223.453 319.689,222.309 320.791,221.955 320.572 C 221.760 320.451,221.600 320.633,221.600 320.976 C 221.600 321.319,221.319 321.600,220.976 321.600 C 220.633 321.600,220.451 321.760,220.572 321.955 C 220.790 322.308,220.162 323.011,219.400 323.266 C 219.180 323.340,219.045 323.535,219.100 323.700 C 219.155 323.865,218.885 324.003,218.500 324.006 C 217.902 324.011,217.887 324.069,218.400 324.400 C 218.909 324.729,218.890 324.789,218.276 324.794 C 217.812 324.798,217.656 324.979,217.841 325.300 C 217.999 325.575,218.027 325.710,217.904 325.600 C 217.781 325.490,217.574 298.040,217.444 264.600 C 217.118 180.952,217.004 166.582,216.615 160.700 C 216.311 156.089,216.342 155.600,216.939 155.600 C 217.546 155.600,217.594 153.925,217.523 135.100 C 217.481 123.825,217.330 116.310,217.188 118.400 C 217.046 120.490,217.018 114.268,217.126 104.574 C 217.258 92.738,217.151 83.815,216.801 77.413 C 216.321 68.642,216.332 67.839,216.939 67.395 C 217.786 66.776,217.971 32.990,217.129 32.710 C 216.822 32.607,216.785 32.352,217.023 31.976 C 217.519 31.193,217.504 30.763,216.942 29.650 C 216.679 29.128,216.551 28.472,216.658 28.192 C 216.771 27.899,216.377 27.511,215.727 27.274 C 215.033 27.021,214.869 26.851,215.300 26.832 C 216.232 26.790,216.190 25.913,215.221 25.215 C 214.793 24.907,214.534 24.507,214.645 24.327 C 214.756 24.147,214.669 24.000,214.451 24.000 C 214.232 24.000,213.930 23.609,213.778 23.131 C 213.626 22.653,213.138 21.888,212.692 21.431 C 212.247 20.974,212.027 20.853,212.203 21.162 C 212.413 21.530,212.370 21.629,212.079 21.449 C 211.835 21.298,211.748 20.879,211.887 20.518 C 212.081 20.012,211.975 19.924,211.425 20.135 C 210.921 20.328,210.772 20.250,210.917 19.871 C 211.123 19.335,210.828 19.232,208.700 19.101 C 207.403 19.022,207.413 19.044,208.278 18.179 C 208.915 17.542,208.855 17.511,207.269 17.662 C 206.086 17.775,205.636 17.682,205.764 17.351 C 206.143 16.363,199.957 15.617,198.844 16.516 C 198.504 16.792,198.359 16.813,198.507 16.564 C 198.854 15.985,196.488 15.936,195.300 16.497 M183.094 39.100 C 183.012 40.145,182.944 39.290,182.944 37.200 C 182.944 35.110,183.012 34.255,183.094 35.300 C 183.176 36.345,183.176 38.055,183.094 39.100 M183.892 38.912 C 183.808 39.840,183.741 38.980,183.742 37.000 C 183.743 35.020,183.812 34.260,183.895 35.312 C 183.977 36.364,183.976 37.984,183.892 38.912 M217.091 38.300 C 217.005 39.125,216.934 38.450,216.934 36.800 C 216.934 35.150,217.005 34.475,217.091 35.300 C 217.178 36.125,217.178 37.475,217.091 38.300 M183.600 203.600 C 183.600 205.580,183.465 207.200,183.300 207.201 C 183.135 207.201,183.058 205.581,183.128 203.601 C 183.294 198.948,183.600 198.948,183.600 203.600 M217.097 247.720 C 217.023 249.524,216.963 247.940,216.964 244.200 C 216.964 240.460,217.025 238.984,217.098 240.920 C 217.172 242.855,217.171 245.915,217.097 247.720 M183.097 250.120 C 183.023 251.924,182.963 250.340,182.964 246.600 C 182.964 242.860,183.025 241.384,183.098 243.320 C 183.172 245.255,183.171 248.315,183.097 250.120 M216.808 291.299 L 216.615 293.800 216.484 291.851 C 216.368 290.139,216.545 288.801,216.887 288.799 C 216.949 288.799,216.913 289.924,216.808 291.299 M261.791 328.809 C 260.712 329.904,259.553 330.779,259.215 330.754 C 258.755 330.719,258.778 330.661,259.305 330.523 C 259.693 330.422,259.907 330.173,259.781 329.970 C 259.656 329.766,259.844 329.600,260.200 329.600 C 260.556 329.600,260.736 329.420,260.600 329.200 C 260.464 328.980,260.633 328.800,260.976 328.800 C 261.319 328.800,261.555 328.575,261.500 328.300 C 261.445 328.025,261.625 327.845,261.900 327.900 C 262.175 327.955,262.400 327.719,262.400 327.376 C 262.400 327.033,262.580 326.864,262.800 327.000 C 263.020 327.136,263.200 327.027,263.200 326.757 C 263.200 326.487,263.324 326.391,263.476 326.543 C 263.628 326.694,262.869 327.714,261.791 328.809 M228.253 361.773 C 227.469 362.558,226.694 363.200,226.532 363.200 C 226.370 363.200,226.937 362.483,227.793 361.607 C 228.648 360.731,229.423 360.089,229.514 360.181 C 229.605 360.272,229.038 360.989,228.253 361.773 "
              stroke="none" fill="#e63946" fill-rule="evenodd"></path>
        <path id="path1"
              d="M193.333 17.400 C 193.333 17.657,193.573 17.867,193.867 17.867 C 194.160 17.867,194.400 17.657,194.400 17.400 C 194.400 17.143,194.160 16.933,193.867 16.933 C 193.573 16.933,193.333 17.143,193.333 17.400 M205.867 17.067 C 205.313 17.620,205.636 17.882,206.637 17.691 C 207.394 17.546,207.529 17.401,207.137 17.152 C 206.482 16.738,206.214 16.720,205.867 17.067 M190.700 18.264 C 190.095 18.583,189.600 19.024,189.600 19.245 C 189.600 19.466,189.420 19.536,189.200 19.400 C 188.980 19.264,188.800 19.436,188.800 19.782 C 188.800 20.283,189.127 20.195,190.400 19.353 C 191.598 18.560,192.701 17.303,191.900 17.642 C 191.845 17.666,191.305 17.946,190.700 18.264 M207.870 18.561 C 207.730 18.928,207.887 19.076,208.328 18.991 C 208.697 18.920,209.180 18.845,209.400 18.824 C 209.620 18.804,209.530 18.613,209.200 18.400 C 208.383 17.872,208.123 17.903,207.870 18.561 M186.900 21.606 C 186.185 22.257,185.600 23.006,185.600 23.271 C 185.600 23.536,185.843 23.421,186.139 23.015 C 186.473 22.560,186.874 22.399,187.191 22.595 C 187.534 22.807,187.638 22.728,187.504 22.356 C 187.394 22.050,187.579 21.485,187.914 21.100 C 188.836 20.041,188.357 20.281,186.900 21.606 M213.609 22.671 C 213.604 22.931,213.861 23.404,214.181 23.724 C 214.500 24.043,214.650 24.416,214.514 24.552 C 214.378 24.689,214.477 24.800,214.733 24.800 C 214.990 24.800,215.196 24.665,215.191 24.500 C 215.176 23.978,213.618 22.178,213.609 22.671 M184.200 25.600 C 183.881 26.116,184.310 26.809,184.924 26.768 C 185.291 26.744,185.291 26.692,184.922 26.543 C 184.660 26.436,184.544 26.090,184.665 25.774 C 184.916 25.122,184.575 24.994,184.200 25.600 M215.421 26.778 C 214.701 27.044,214.714 27.084,215.604 27.317 C 216.677 27.598,217.142 27.368,216.573 26.839 C 216.368 26.647,215.850 26.620,215.421 26.778 M182.944 37.200 C 182.944 39.290,183.012 40.145,183.094 39.100 C 183.176 38.055,183.176 36.345,183.094 35.300 C 183.012 34.255,182.944 35.110,182.944 37.200 M183.742 37.000 C 183.741 38.980,183.808 39.840,183.892 38.912 C 183.976 37.984,183.977 36.364,183.895 35.312 C 183.812 34.260,183.743 35.020,183.742 37.000 M216.934 36.800 C 216.934 38.450,217.005 39.125,217.091 38.300 C 217.178 37.475,217.178 36.125,217.091 35.300 C 217.005 34.475,216.934 35.150,216.934 36.800 M182.659 65.230 C 182.060 77.047,182.370 167.723,183.006 167.195 C 183.710 166.611,183.910 147.039,183.217 146.610 C 182.974 146.460,182.900 130.511,183.016 103.187 C 183.117 79.434,183.137 60.000,183.061 60.000 C 182.985 60.000,182.804 62.353,182.659 65.230 M216.535 67.825 C 216.403 68.168,216.526 72.533,216.808 77.525 C 217.153 83.633,217.254 92.420,217.116 104.400 C 217.004 114.190,217.045 120.310,217.207 118.000 C 217.685 111.199,217.668 67.200,217.187 67.200 C 216.961 67.200,216.667 67.481,216.535 67.825 M216.586 160.300 C 216.750 162.885,216.951 178.211,217.033 194.358 C 217.115 210.504,217.276 223.809,217.391 223.924 C 217.506 224.039,217.600 208.713,217.600 189.867 C 217.600 158.378,217.547 155.600,216.944 155.600 C 216.357 155.600,216.319 156.090,216.586 160.300 M183.128 203.601 C 183.058 205.581,183.135 207.201,183.300 207.201 C 183.465 207.200,183.600 205.580,183.600 203.600 C 183.600 198.948,183.294 198.948,183.128 203.601 M216.964 244.200 C 216.963 247.940,217.023 249.524,217.097 247.720 C 217.171 245.915,217.172 242.855,217.098 240.920 C 217.025 238.984,216.964 240.460,216.964 244.200 M182.964 246.600 C 182.963 250.340,183.023 251.924,183.097 250.120 C 183.171 248.315,183.172 245.255,183.098 243.320 C 183.025 241.384,182.964 242.860,182.964 246.600 M278.999 265.887 C 278.378 266.369,278.353 266.455,278.887 266.271 C 279.265 266.141,279.686 266.216,279.823 266.437 C 280.124 266.924,281.216 266.125,281.168 265.451 C 281.150 265.183,281.053 265.210,280.930 265.517 C 280.792 265.858,280.566 265.903,280.260 265.650 C 279.955 265.397,279.526 265.477,278.999 265.887 M282.533 265.783 C 282.533 266.431,283.471 266.927,284.036 266.578 C 284.771 266.124,284.389 265.200,283.467 265.200 C 282.916 265.200,282.533 265.439,282.533 265.783 M111.070 266.562 C 110.970 266.823,111.225 267.062,111.636 267.093 C 112.665 267.170,112.969 266.537,112.021 266.290 C 111.598 266.179,111.170 266.302,111.070 266.562 M119.333 266.594 C 119.333 266.962,119.498 267.059,119.767 266.847 C 120.005 266.660,120.470 266.407,120.800 266.285 C 121.158 266.153,120.983 266.050,120.367 266.032 C 119.706 266.011,119.333 266.214,119.333 266.594 M290.006 267.500 C 290.011 268.098,290.069 268.113,290.400 267.600 C 290.682 267.164,290.789 267.143,290.794 267.524 C 290.797 267.812,290.983 267.934,291.207 267.796 C 291.737 267.468,291.315 266.800,290.576 266.800 C 290.259 266.800,290.003 267.115,290.006 267.500 M107.600 268.265 C 107.600 268.615,107.887 268.803,108.300 268.724 C 108.685 268.650,109.000 268.429,109.000 268.233 C 109.000 268.037,108.685 267.830,108.300 267.774 C 107.901 267.715,107.600 267.927,107.600 268.265 M124.769 267.680 C 124.498 268.748,124.553 269.200,124.946 269.110 C 125.209 269.049,125.476 269.180,125.540 269.400 C 125.669 269.840,126.732 270.526,127.472 270.645 C 128.286 270.776,127.589 269.687,126.165 268.601 C 125.414 268.028,124.786 267.613,124.769 267.680 M292.194 268.010 C 292.055 268.235,292.089 268.394,292.270 268.363 C 293.077 268.222,293.261 268.444,292.800 269.000 C 292.222 269.696,292.819 269.821,293.494 269.146 C 293.833 268.807,293.810 268.553,293.403 268.146 C 292.750 267.492,292.529 267.468,292.194 268.010 M182.400 296.333 C 182.400 311.110,182.314 323.200,182.209 323.200 C 182.103 323.200,179.928 321.130,177.374 318.600 C 174.821 316.070,172.534 314.000,172.294 314.000 C 172.053 314.000,172.473 314.556,173.228 315.236 C 173.983 315.916,174.551 316.650,174.490 316.866 C 174.430 317.082,174.535 317.164,174.725 317.046 C 174.915 316.929,175.766 317.546,176.616 318.417 C 177.467 319.287,177.946 320.000,177.681 320.000 C 177.028 320.000,177.074 320.732,177.771 321.429 C 178.610 322.267,179.038 322.126,178.261 321.268 C 177.290 320.195,177.981 319.842,179.062 320.858 C 179.926 321.670,179.940 321.759,179.292 322.284 C 178.669 322.788,178.687 322.802,179.476 322.421 C 179.979 322.178,180.446 322.151,180.573 322.357 C 180.696 322.555,180.501 322.829,180.140 322.968 C 179.780 323.106,179.597 323.330,179.733 323.466 C 179.869 323.603,180.281 323.465,180.648 323.160 C 181.247 322.663,181.289 322.708,181.061 323.603 C 180.922 324.151,180.911 324.375,181.037 324.100 C 181.163 323.825,181.442 323.600,181.657 323.600 C 181.872 323.600,181.936 323.780,181.800 324.000 C 181.664 324.220,181.828 324.400,182.164 324.400 C 182.543 324.400,182.687 324.628,182.545 325.000 C 182.418 325.330,182.469 325.600,182.657 325.600 C 183.018 325.600,182.969 270.036,182.608 269.675 C 182.494 269.560,182.400 281.557,182.400 296.333 M104.293 270.562 C 103.859 270.891,103.686 271.358,103.845 271.772 C 104.068 272.354,104.167 272.320,104.574 271.523 C 104.868 270.947,105.337 270.644,105.822 270.717 C 106.467 270.813,106.497 270.763,106.000 270.423 C 105.241 269.904,105.151 269.911,104.293 270.562 M129.074 271.562 C 129.193 272.018,129.450 272.292,129.645 272.172 C 129.840 272.051,130.000 272.233,130.000 272.576 C 130.000 272.919,130.315 273.203,130.700 273.206 C 131.305 273.211,131.319 273.271,130.800 273.644 C 130.290 274.010,130.304 274.042,130.887 273.855 C 131.683 273.600,132.254 274.231,131.502 274.534 C 131.143 274.679,131.163 274.746,131.574 274.768 C 131.890 274.786,132.552 275.179,133.045 275.642 C 133.600 276.163,133.909 276.278,133.857 275.942 C 133.810 275.644,132.666 274.350,131.315 273.066 C 129.641 271.477,128.926 270.997,129.074 271.562 M269.704 272.221 C 269.431 272.516,269.366 272.855,269.559 272.974 C 269.752 273.094,270.118 272.939,270.374 272.631 C 270.979 271.902,270.353 271.518,269.704 272.221 M135.001 277.458 C 135.536 277.993,135.560 278.186,135.130 278.489 C 134.767 278.745,134.953 278.806,135.722 278.683 C 136.669 278.531,136.834 278.635,136.778 279.351 C 136.663 280.823,136.782 280.975,137.430 280.176 C 137.776 279.749,137.949 279.619,137.814 279.887 C 137.679 280.155,137.936 280.603,138.384 280.883 C 138.833 281.163,139.200 281.613,139.200 281.884 C 139.200 282.154,139.464 282.274,139.787 282.150 C 140.435 281.901,135.701 276.800,134.821 276.800 C 134.523 276.800,134.591 277.048,135.001 277.458 M264.490 277.070 C 264.551 277.252,264.462 277.442,264.294 277.494 C 263.522 277.733,261.338 280.239,261.627 280.555 C 261.808 280.754,262.447 280.401,263.075 279.755 C 264.952 277.827,265.284 277.299,264.810 277.006 C 264.573 276.860,264.430 276.889,264.490 277.070 M140.800 282.912 C 140.800 283.275,141.174 283.772,141.631 284.017 C 142.103 284.269,142.368 284.705,142.245 285.026 C 142.126 285.336,142.157 285.548,142.314 285.495 C 142.471 285.443,142.600 285.516,142.600 285.658 C 142.600 286.264,144.121 287.528,144.620 287.337 C 144.919 287.222,145.631 287.594,146.200 288.164 C 146.770 288.734,147.093 289.200,146.918 289.200 C 146.743 289.200,147.275 289.801,148.100 290.536 C 148.925 291.270,149.600 292.159,149.600 292.512 C 149.600 292.956,149.869 293.102,150.471 292.986 C 151.103 292.865,151.221 292.939,150.902 293.258 C 150.660 293.500,150.560 293.951,150.679 294.260 C 150.853 294.716,151.006 294.688,151.477 294.112 C 151.797 293.720,151.938 293.637,151.789 293.927 C 151.619 294.261,151.826 294.534,152.355 294.672 C 152.815 294.793,153.097 295.043,152.983 295.228 C 152.868 295.413,152.465 295.469,152.087 295.352 C 151.596 295.200,151.628 295.281,152.200 295.636 C 152.640 295.908,153.132 296.327,153.294 296.566 C 153.488 296.853,153.590 296.816,153.594 296.457 C 153.597 296.140,153.849 296.010,154.200 296.145 C 155.115 296.496,155.249 296.641,147.800 289.223 C 143.845 285.284,140.800 282.539,140.800 282.912 M256.162 285.938 C 256.319 286.192,256.244 286.400,255.995 286.400 C 255.412 286.400,254.236 287.569,254.526 287.860 C 254.648 287.981,255.228 287.635,255.816 287.090 C 256.602 286.362,256.751 286.017,256.380 285.788 C 256.053 285.586,255.976 285.638,256.162 285.938 M300.562 286.062 C 300.051 286.889,300.045 288.358,300.554 288.162 C 300.817 288.062,301.072 287.444,301.122 286.790 C 301.218 285.535,301.035 285.297,300.562 286.062 M253.292 288.607 C 253.012 288.925,252.742 289.323,252.692 289.492 C 252.641 289.661,252.452 289.751,252.270 289.690 C 252.089 289.630,252.063 289.778,252.212 290.020 C 252.391 290.310,252.808 290.156,253.430 289.572 C 253.950 289.083,254.280 288.530,254.164 288.342 C 253.899 287.914,253.904 287.912,253.292 288.607 M216.564 289.351 C 216.447 289.654,216.411 290.779,216.484 291.851 L 216.615 293.800 216.808 291.299 C 217.002 288.773,216.949 288.347,216.564 289.351 M103.067 292.267 C 102.920 292.413,102.800 292.747,102.800 293.007 C 102.800 293.722,107.225 298.432,107.650 298.169 C 107.853 298.043,107.972 298.089,107.913 298.270 C 107.631 299.142,109.076 300.432,109.611 299.786 C 109.900 299.439,109.970 299.210,109.768 299.277 C 109.565 299.345,109.361 299.259,109.314 299.086 C 109.136 298.431,108.029 297.600,107.329 297.594 C 106.712 297.589,106.692 297.528,107.200 297.200 C 107.676 296.892,107.593 296.810,106.800 296.800 C 105.979 296.790,105.908 296.710,106.400 296.356 C 106.908 295.991,106.893 295.959,106.306 296.147 C 105.646 296.359,104.506 295.037,104.715 294.300 C 104.762 294.135,104.582 294.045,104.316 294.100 C 104.050 294.155,103.804 293.789,103.770 293.287 C 103.699 292.242,103.451 291.882,103.067 292.267 M245.709 295.835 C 244.779 296.786,244.187 297.668,244.394 297.796 C 244.901 298.110,248.172 294.803,247.740 294.414 C 247.553 294.245,246.639 294.885,245.709 295.835 M294.512 295.410 C 294.127 295.828,294.127 295.983,294.512 296.139 C 294.780 296.248,294.550 296.354,294.000 296.375 C 293.179 296.406,293.107 296.489,293.600 296.841 C 294.082 297.185,294.023 297.231,293.300 297.072 C 292.805 296.964,292.400 297.038,292.400 297.237 C 292.400 297.437,292.608 297.600,292.861 297.600 C 293.115 297.600,292.907 297.960,292.400 298.400 C 291.554 299.133,291.034 299.351,290.341 299.261 C 290.199 299.243,290.185 299.626,290.310 300.114 C 290.521 300.933,290.482 300.955,289.793 300.400 C 289.361 300.053,289.173 300.011,289.347 300.300 C 289.539 300.620,289.407 300.800,288.981 300.800 C 288.563 300.800,288.397 301.016,288.537 301.380 C 288.696 301.794,288.565 301.887,288.080 301.705 C 287.483 301.481,287.468 301.534,287.957 302.135 C 288.263 302.511,288.398 302.935,288.257 303.076 C 288.116 303.218,288.000 303.123,288.000 302.867 C 288.000 302.610,287.708 302.400,287.351 302.400 C 286.815 302.400,286.790 302.506,287.208 303.010 C 287.486 303.345,287.598 303.735,287.457 303.876 C 287.316 304.018,287.200 303.953,287.200 303.733 C 287.200 303.513,286.930 303.333,286.600 303.333 C 286.270 303.333,286.000 303.584,286.000 303.890 C 286.000 304.197,286.180 304.336,286.400 304.200 C 286.620 304.064,286.800 304.143,286.800 304.376 C 286.800 304.914,286.126 304.928,285.798 304.397 C 285.644 304.148,285.314 304.228,284.935 304.608 C 284.445 305.098,284.419 305.341,284.809 305.811 C 285.197 306.278,285.191 306.400,284.782 306.400 C 284.499 306.400,284.382 306.516,284.524 306.657 C 284.912 307.046,286.029 305.971,285.734 305.493 C 285.592 305.264,285.659 305.189,285.882 305.327 C 286.246 305.552,288.104 303.733,294.564 296.822 C 295.684 295.624,296.303 294.866,295.939 295.138 C 295.566 295.418,295.217 295.469,295.139 295.256 C 295.063 295.049,294.780 295.118,294.512 295.410 M156.000 297.631 C 156.000 297.830,168.131 310.005,168.713 310.390 C 169.070 310.627,164.772 306.048,162.562 303.838 C 158.956 300.232,156.000 297.436,156.000 297.631 M110.400 301.429 C 110.400 301.819,111.521 302.800,111.968 302.800 C 112.201 302.800,112.084 302.440,111.707 302.000 C 111.050 301.232,110.400 300.948,110.400 301.429 M239.690 302.470 C 239.751 302.762,239.620 302.972,239.400 302.938 C 238.842 302.852,237.933 303.911,238.346 304.167 C 238.532 304.281,239.083 303.950,239.572 303.430 C 240.156 302.808,240.310 302.391,240.020 302.212 C 239.773 302.060,239.628 302.173,239.690 302.470 M113.600 304.429 C 113.600 304.993,114.622 306.000,115.195 306.000 C 115.444 306.000,115.533 306.184,115.394 306.410 C 115.255 306.635,115.316 306.770,115.530 306.710 C 115.745 306.649,115.956 306.717,116.001 306.859 C 116.117 307.231,125.727 316.806,125.855 316.678 C 125.914 316.619,125.358 315.912,124.620 315.106 C 123.882 314.300,123.395 313.571,123.539 313.486 C 123.683 313.401,123.555 313.394,123.255 313.470 C 122.910 313.558,122.796 313.388,122.943 313.005 C 123.107 312.578,122.914 312.398,122.287 312.394 C 121.568 312.389,121.513 312.314,122.000 312.000 C 122.513 311.669,122.498 311.611,121.900 311.606 C 121.515 311.603,121.245 311.375,121.300 311.100 C 121.356 310.822,121.092 310.652,120.706 310.716 C 120.200 310.801,120.075 310.639,120.244 310.116 C 120.438 309.516,120.405 309.497,120.044 310.000 C 119.689 310.494,119.606 310.423,119.575 309.600 C 119.554 309.050,119.446 308.826,119.334 309.102 C 119.223 309.379,118.975 309.508,118.783 309.390 C 118.592 309.271,118.536 308.910,118.660 308.587 C 118.803 308.216,118.641 308.000,118.219 308.000 C 117.853 308.000,117.664 307.820,117.800 307.600 C 117.936 307.380,117.756 307.200,117.400 307.200 C 117.013 307.200,116.867 307.015,117.038 306.738 C 117.198 306.479,117.149 306.384,116.927 306.521 C 116.709 306.656,115.871 306.144,115.065 305.384 C 114.259 304.624,113.600 304.194,113.600 304.429 M236.900 304.998 C 236.625 305.311,236.400 305.764,236.400 306.007 C 236.400 306.249,236.192 306.319,235.938 306.162 C 235.638 305.976,235.586 306.053,235.788 306.380 C 236.073 306.841,238.000 305.305,238.000 304.617 C 238.000 304.218,237.406 304.424,236.900 304.998 M228.894 312.646 C 228.176 313.384,227.546 314.126,227.494 314.294 C 227.442 314.462,227.252 314.551,227.070 314.490 C 226.889 314.430,226.860 314.573,227.006 314.810 C 227.299 315.284,227.827 314.952,229.755 313.075 C 230.401 312.447,230.754 311.808,230.555 311.627 C 230.360 311.448,229.612 311.907,228.894 312.646 M273.671 316.268 C 273.387 316.798,273.385 317.226,273.666 317.622 C 274.003 318.098,274.037 318.081,273.860 317.525 C 273.734 317.131,273.880 316.798,274.212 316.725 C 274.587 316.642,274.662 316.413,274.432 316.046 C 274.153 315.598,274.006 315.641,273.671 316.268 M271.707 319.233 C 271.578 319.727,271.238 319.881,270.553 319.757 C 269.708 319.604,269.604 319.708,269.758 320.555 C 269.925 321.479,268.638 322.323,267.470 322.056 C 267.289 322.014,267.245 322.149,267.372 322.355 C 267.500 322.562,267.128 323.077,266.546 323.501 C 265.656 324.149,265.593 324.312,266.144 324.523 C 266.564 324.685,266.800 324.568,266.800 324.200 C 266.800 323.884,267.025 323.680,267.300 323.747 C 267.575 323.814,267.667 323.794,267.504 323.702 C 267.341 323.611,267.463 323.280,267.775 322.968 C 268.477 322.266,268.944 322.226,268.568 322.900 C 268.414 323.175,269.393 322.326,270.744 321.013 C 273.574 318.261,273.377 318.533,272.545 318.533 C 272.185 318.533,271.808 318.848,271.707 319.233 M128.662 319.523 C 128.576 319.676,128.923 320.202,129.433 320.694 C 129.943 321.186,130.425 321.456,130.506 321.294 C 130.695 320.913,128.868 319.159,128.662 319.523 M222.104 319.821 C 221.831 320.116,221.766 320.455,221.959 320.574 C 222.152 320.694,222.518 320.539,222.774 320.231 C 223.379 319.502,222.753 319.118,222.104 319.821 M219.704 322.221 C 219.431 322.516,219.366 322.855,219.559 322.974 C 219.752 323.094,220.118 322.939,220.374 322.631 C 220.979 321.902,220.353 321.518,219.704 322.221 M133.200 324.125 C 133.200 324.537,135.996 327.200,136.430 327.200 C 136.651 327.200,136.420 326.790,135.916 326.288 C 134.519 324.898,133.200 323.847,133.200 324.125 M217.451 324.612 C 217.332 324.922,217.435 325.298,217.679 325.449 C 217.937 325.608,218.012 325.543,217.857 325.292 C 217.710 325.055,217.907 324.797,218.295 324.718 C 218.938 324.589,218.941 324.553,218.333 324.313 C 217.931 324.155,217.581 324.274,217.451 324.612 M264.800 325.200 C 264.800 325.420,265.070 325.600,265.400 325.600 C 265.730 325.600,266.000 325.420,266.000 325.200 C 266.000 324.980,265.730 324.800,265.400 324.800 C 265.070 324.800,264.800 324.980,264.800 325.200 M263.200 326.824 C 263.200 327.057,263.020 327.136,262.800 327.000 C 262.580 326.864,262.400 327.033,262.400 327.376 C 262.400 327.719,262.175 327.955,261.900 327.900 C 261.625 327.845,261.445 328.025,261.500 328.300 C 261.555 328.575,261.319 328.800,260.976 328.800 C 260.633 328.800,260.464 328.980,260.600 329.200 C 260.736 329.420,260.556 329.600,260.200 329.600 C 259.844 329.600,259.656 329.766,259.781 329.970 C 259.907 330.173,259.693 330.423,259.305 330.525 C 258.917 330.627,259.082 330.693,259.671 330.671 C 260.260 330.648,260.672 330.517,260.587 330.379 C 260.390 330.061,262.985 327.518,263.242 327.776 C 263.347 327.880,263.459 327.613,263.491 327.183 C 263.524 326.752,263.471 326.400,263.375 326.400 C 263.279 326.400,263.200 326.591,263.200 326.824 M137.134 327.951 C 137.428 328.137,137.632 328.425,137.588 328.591 C 137.520 328.847,182.762 374.400,183.085 374.400 C 183.148 374.400,183.200 374.130,183.200 373.800 C 183.200 373.470,182.930 373.200,182.600 373.200 C 182.270 373.200,182.000 373.020,182.000 372.800 C 182.000 372.580,182.180 372.400,182.400 372.400 C 182.620 372.400,182.800 372.209,182.800 371.976 C 182.800 371.743,182.634 371.656,182.430 371.781 C 182.227 371.907,181.978 371.693,181.877 371.305 C 181.703 370.639,181.690 370.639,181.646 371.300 C 181.621 371.685,181.409 372.000,181.176 372.000 C 180.943 372.000,180.828 371.865,180.920 371.700 C 181.162 371.265,178.536 368.804,178.175 369.128 C 178.009 369.277,177.986 369.085,178.124 368.700 C 178.295 368.222,178.174 368.000,177.741 368.000 C 177.312 368.000,177.172 367.751,177.308 367.230 C 177.458 366.656,177.351 366.521,176.885 366.699 C 176.431 366.874,176.329 366.762,176.510 366.290 C 176.678 365.853,176.586 365.707,176.228 365.845 C 175.918 365.964,173.527 363.879,170.469 360.824 C 167.594 357.951,165.058 355.600,164.834 355.600 C 164.609 355.600,164.538 355.285,164.676 354.900 C 164.814 354.515,164.785 354.329,164.611 354.486 C 164.437 354.643,163.796 354.238,163.187 353.586 C 162.578 352.934,161.871 352.400,161.616 352.400 C 161.361 352.400,161.281 352.192,161.438 351.938 C 161.615 351.652,161.548 351.585,161.262 351.762 C 161.008 351.919,160.800 351.850,160.800 351.608 C 160.800 351.366,159.315 349.702,157.500 347.910 C 155.685 346.118,154.470 344.791,154.800 344.963 C 155.130 345.134,154.654 344.548,153.742 343.662 C 152.830 342.775,152.185 341.948,152.309 341.825 C 152.432 341.701,152.223 341.600,151.843 341.600 C 151.463 341.600,151.267 341.416,151.406 341.190 C 151.545 340.965,151.511 340.823,151.330 340.875 C 150.544 341.101,149.236 339.838,149.690 339.291 C 150.058 338.849,149.926 338.800,148.970 339.022 C 147.840 339.286,147.828 339.273,148.600 338.647 C 149.358 338.032,149.360 338.012,148.631 338.268 C 148.010 338.487,147.914 338.401,148.135 337.825 C 148.339 337.293,148.255 337.170,147.805 337.343 C 147.434 337.485,147.200 337.347,147.200 336.987 C 147.200 336.664,146.975 336.445,146.700 336.500 C 146.414 336.557,146.253 336.288,146.324 335.873 C 146.429 335.254,146.325 335.212,145.618 335.591 C 144.667 336.099,144.127 335.339,144.558 334.100 C 144.757 333.530,144.681 333.548,144.151 334.200 C 143.508 334.990,143.503 334.989,143.713 334.099 C 143.830 333.604,143.777 333.290,143.596 333.402 C 143.307 333.581,140.800 331.403,140.800 330.972 C 140.800 330.532,139.040 328.852,138.760 329.025 C 138.584 329.134,138.245 328.857,138.006 328.411 C 137.767 327.965,137.353 327.603,137.086 327.606 C 136.741 327.610,136.756 327.711,137.134 327.951 M257.337 332.580 C 257.485 332.967,257.367 333.085,256.980 332.937 C 256.616 332.797,256.400 332.963,256.400 333.381 C 256.400 333.807,256.220 333.939,255.900 333.747 C 255.545 333.533,255.555 333.638,255.936 334.107 C 256.405 334.686,256.367 334.748,255.625 334.605 C 255.158 334.515,254.884 334.612,255.013 334.821 C 255.142 335.029,255.051 335.200,254.810 335.200 C 254.570 335.200,253.749 335.824,252.987 336.587 C 252.224 337.349,251.600 338.170,251.600 338.410 C 251.600 338.651,251.416 338.733,251.190 338.594 C 250.965 338.455,250.830 338.579,250.890 338.870 C 250.951 339.162,250.762 339.351,250.470 339.290 C 250.179 339.230,250.055 339.365,250.194 339.590 C 250.333 339.816,250.147 340.000,249.781 340.000 C 249.353 340.000,249.197 340.215,249.345 340.600 C 249.485 340.965,249.345 341.200,248.987 341.200 C 248.664 341.200,248.400 341.391,248.400 341.624 C 248.400 341.857,248.220 341.936,248.000 341.800 C 247.780 341.664,247.600 341.817,247.600 342.141 C 247.600 342.465,247.848 342.693,248.152 342.648 C 248.893 342.539,251.600 340.137,251.600 339.589 C 251.600 339.349,251.756 339.249,251.947 339.367 C 252.412 339.655,253.683 338.216,253.301 337.834 C 253.135 337.669,253.270 337.593,253.600 337.667 C 253.932 337.740,254.151 337.564,254.090 337.270 C 254.030 336.979,254.141 336.840,254.337 336.961 C 254.809 337.253,256.088 335.821,255.701 335.434 C 255.535 335.269,255.606 335.193,255.858 335.267 C 256.499 335.453,258.373 333.196,258.122 332.540 C 258.008 332.243,257.734 332.000,257.514 332.000 C 257.294 332.000,257.214 332.261,257.337 332.580 M246.800 343.187 C 246.800 343.729,246.991 343.902,247.410 343.741 C 247.881 343.560,247.915 343.380,247.561 342.953 C 246.945 342.210,246.800 342.255,246.800 343.187 M239.600 350.400 C 239.600 350.620,240.005 350.797,240.500 350.794 C 241.228 350.789,241.285 350.714,240.800 350.400 C 240.024 349.899,239.600 349.899,239.600 350.400 M238.517 351.596 C 238.403 352.033,238.150 352.292,237.955 352.172 C 237.760 352.051,237.600 352.340,237.600 352.814 C 237.600 353.338,237.287 353.757,236.800 353.884 C 236.360 353.999,236.000 354.252,236.000 354.447 C 236.000 354.641,235.708 354.800,235.351 354.800 C 234.800 354.800,234.783 354.897,235.236 355.444 C 235.571 355.847,235.826 355.922,235.919 355.644 C 236.000 355.400,236.245 355.200,236.462 355.200 C 236.999 355.200,238.000 354.162,238.000 353.605 C 238.000 353.356,238.180 353.264,238.400 353.400 C 238.620 353.536,238.800 353.367,238.800 353.024 C 238.800 352.681,238.991 352.400,239.224 352.400 C 239.457 352.400,239.536 352.220,239.400 352.000 C 239.264 351.780,239.478 351.597,239.876 351.594 C 240.490 351.589,240.509 351.529,240.000 351.200 C 239.103 350.620,238.747 350.715,238.517 351.596 M227.793 361.607 C 226.937 362.483,226.370 363.200,226.532 363.200 C 226.940 363.200,229.719 360.386,229.514 360.181 C 229.423 360.089,228.648 360.731,227.793 361.607 M228.581 362.500 L 227.000 364.200 228.700 362.619 C 230.281 361.148,230.584 360.800,230.281 360.800 C 230.216 360.800,229.451 361.565,228.581 362.500 M183.594 374.011 C 183.214 374.722,183.490 375.142,185.826 377.411 C 188.320 379.832,189.459 380.578,189.123 379.570 C 189.044 379.334,188.805 379.141,188.590 379.141 C 187.970 379.144,186.797 377.929,187.039 377.537 C 187.160 377.341,187.111 377.230,186.929 377.290 C 186.105 377.564,183.623 374.705,184.028 373.948 C 184.248 373.537,184.338 373.200,184.228 373.200 C 184.118 373.200,183.833 373.565,183.594 374.011 M213.378 377.625 C 212.942 378.106,212.324 378.369,211.893 378.256 C 211.288 378.098,211.241 378.167,211.634 378.641 C 212.024 379.111,211.991 379.172,211.457 378.966 C 211.016 378.797,210.800 378.926,210.800 379.357 C 210.800 380.355,211.307 380.134,213.000 378.400 C 213.859 377.520,214.464 376.800,214.343 376.800 C 214.223 376.800,213.788 377.171,213.378 377.625 M190.492 380.875 C 190.739 381.616,191.476 381.700,191.738 381.017 C 191.904 380.585,191.729 380.400,191.154 380.400 C 190.698 380.400,190.404 380.611,190.492 380.875 M208.123 381.344 C 208.341 381.912,208.257 381.951,207.585 381.592 C 206.976 381.266,206.813 381.287,206.894 381.683 C 206.952 381.967,206.762 382.151,206.470 382.090 C 206.156 382.025,206.046 382.187,206.200 382.490 C 206.343 382.771,206.198 382.681,205.879 382.291 C 205.324 381.613,205.290 381.613,205.108 382.308 C 204.967 382.846,205.163 383.056,205.859 383.113 C 206.377 383.156,206.800 383.013,206.800 382.796 C 206.800 382.578,207.250 382.400,207.800 382.400 C 208.845 382.400,209.183 381.484,208.332 380.958 C 208.016 380.763,207.948 380.888,208.123 381.344 M194.400 382.600 C 194.400 382.930,194.580 383.200,194.800 383.200 C 195.020 383.200,195.200 382.930,195.200 382.600 C 195.200 382.270,195.020 382.000,194.800 382.000 C 194.580 382.000,194.400 382.270,194.400 382.600 M200.600 382.800 C 200.736 383.020,200.567 383.200,200.224 383.200 C 198.929 383.200,199.662 383.843,201.000 383.881 C 202.596 383.926,202.631 383.888,201.771 383.029 C 201.078 382.336,200.208 382.166,200.600 382.800 M203.226 382.969 C 202.908 383.352,202.893 383.611,203.181 383.788 C 203.412 383.931,203.613 383.722,203.628 383.324 C 203.653 382.678,203.693 382.686,204.000 383.400 C 204.280 384.052,204.349 384.075,204.372 383.524 C 204.411 382.593,203.788 382.292,203.226 382.969 M195.817 383.172 C 195.491 383.700,196.144 384.012,197.360 383.912 C 197.973 383.861,198.400 383.582,198.400 383.233 C 198.400 382.772,198.293 382.747,197.920 383.120 C 197.656 383.384,197.161 383.597,196.820 383.594 C 196.274 383.588,196.271 383.542,196.800 383.200 C 197.317 382.866,197.307 382.811,196.724 382.806 C 196.352 382.803,195.944 382.968,195.817 383.172 "
              stroke="none" fill="#e63946" fill-rule="evenodd"></path>
        <path id="path2"
              d="M279.002 311.998 C 278.603 312.439,278.407 312.800,278.567 312.800 C 278.988 312.800,280.128 311.595,279.912 311.379 C 279.811 311.278,279.402 311.556,279.002 311.998 "
              stroke="none" fill="#e63946" fill-rule="evenodd"></path>
        <path id="path3"
              d="M279.002 311.998 C 278.603 312.439,278.407 312.800,278.567 312.800 C 278.988 312.800,280.128 311.595,279.912 311.379 C 279.811 311.278,279.402 311.556,279.002 311.998 "
              stroke="none" fill="#e63946" fill-rule="evenodd"></path>
        <path id="path4"
              d="M279.002 311.998 C 278.603 312.439,278.407 312.800,278.567 312.800 C 278.988 312.800,280.128 311.595,279.912 311.379 C 279.811 311.278,279.402 311.556,279.002 311.998 "
              stroke="none" fill="#e63946" fill-rule="evenodd"></path>
    </g>
</svg>
