<svg id="svg" version="1.1" xmlns="http://www.w3.org/2000/svg" xmlns:xlink="http://www.w3.org/1999/xlink" width="400"
     height="400" viewBox="0, 0, 400,400">
    <g id="svgg">
        <path id="path0"
              d="M47.400 14.800 C 47.264 15.020,46.533 15.200,45.776 15.200 C 45.019 15.200,44.400 15.345,44.400 15.522 C 44.400 15.699,43.635 15.888,42.700 15.943 C 41.765 15.998,40.829 16.213,40.620 16.421 C 40.411 16.630,39.725 16.800,39.096 16.800 C 38.467 16.800,38.042 16.944,38.151 17.120 C 38.344 17.433,34.893 18.658,34.300 18.487 C 34.135 18.439,34.000 18.580,34.000 18.800 C 34.000 19.020,33.578 19.200,33.062 19.200 C 32.546 19.200,31.805 19.553,31.414 19.984 C 31.024 20.415,30.591 20.754,30.452 20.737 C 29.540 20.623,28.791 20.862,29.000 21.200 C 29.136 21.420,28.989 21.600,28.673 21.600 C 28.357 21.600,27.879 21.864,27.611 22.187 C 27.343 22.510,27.006 22.742,26.862 22.702 C 26.377 22.569,24.800 23.788,24.800 24.296 C 24.800 24.573,24.440 24.800,24.000 24.800 C 23.560 24.800,23.200 24.991,23.200 25.224 C 23.200 25.457,23.019 25.535,22.797 25.398 C 22.576 25.261,22.282 25.441,22.146 25.798 C 22.009 26.154,21.641 26.348,21.328 26.228 C 21.015 26.107,20.849 26.155,20.959 26.333 C 21.069 26.511,20.808 26.958,20.380 27.325 C 19.951 27.692,19.600 27.906,19.600 27.800 C 19.600 27.694,19.249 27.908,18.820 28.275 C 18.392 28.642,18.129 29.085,18.237 29.260 C 18.345 29.434,17.977 29.691,17.419 29.831 C 16.862 29.971,16.505 30.246,16.626 30.443 C 16.748 30.639,16.567 30.800,16.224 30.800 C 15.881 30.800,15.600 31.041,15.600 31.336 C 15.600 31.630,15.150 32.077,14.600 32.327 C 14.050 32.578,13.600 33.057,13.600 33.391 C 13.600 33.726,13.409 34.000,13.176 34.000 C 12.943 34.000,12.864 34.180,13.000 34.400 C 13.136 34.620,12.967 34.800,12.624 34.800 C 12.062 34.800,11.821 35.267,11.953 36.100 C 11.979 36.265,11.595 36.403,11.100 36.406 C 10.578 36.410,10.387 36.536,10.645 36.706 C 10.916 36.885,10.967 37.313,10.774 37.800 C 10.584 38.278,10.445 38.368,10.428 38.022 C 10.394 37.324,8.400 39.934,8.400 40.678 C 8.400 40.965,8.220 41.200,8.000 41.200 C 7.780 41.200,7.600 41.571,7.600 42.024 C 7.600 42.477,7.420 42.736,7.200 42.600 C 6.980 42.464,6.794 42.678,6.787 43.076 C 6.773 43.881,5.834 45.300,5.521 44.988 C 5.412 44.878,5.305 45.373,5.285 46.086 C 5.265 46.800,5.057 47.448,4.824 47.525 C 4.591 47.603,4.400 47.932,4.400 48.257 C 4.400 48.582,4.220 48.736,4.000 48.600 C 3.774 48.461,3.600 48.785,3.600 49.343 C 3.600 49.888,3.375 50.424,3.100 50.535 C 2.718 50.689,2.724 50.744,3.127 50.768 C 3.501 50.791,3.414 51.137,2.827 51.962 C 2.372 52.601,2.000 53.580,2.000 54.138 C 2.000 54.696,1.820 55.264,1.600 55.400 C 1.380 55.536,1.200 56.051,1.200 56.544 C 1.200 57.037,0.975 57.682,0.700 57.979 C 0.293 58.417,0.312 58.455,0.800 58.182 C 1.333 57.884,1.333 57.928,0.800 58.585 C 0.182 59.345,-0.168 335.778,0.443 339.800 C 0.577 340.680,0.781 341.670,0.896 342.000 C 1.267 343.062,2.129 346.187,2.165 346.600 C 2.184 346.820,2.334 347.100,2.498 347.222 C 2.662 347.345,2.836 347.930,2.885 348.522 C 2.934 349.115,3.115 349.600,3.287 349.600 C 3.459 349.600,3.600 350.061,3.600 350.624 C 3.600 351.204,3.773 351.540,4.000 351.400 C 4.382 351.164,4.580 351.983,4.421 353.140 C 4.380 353.437,4.494 353.591,4.673 353.482 C 4.853 353.373,5.232 353.535,5.516 353.842 C 5.813 354.164,5.856 354.400,5.616 354.400 C 5.387 354.400,5.200 354.591,5.200 354.824 C 5.200 355.057,5.360 355.149,5.555 355.028 C 5.750 354.907,6.155 355.111,6.455 355.481 C 6.887 356.014,6.890 356.088,6.470 355.835 C 5.818 355.442,6.582 356.884,7.700 358.155 C 8.085 358.593,8.400 359.152,8.400 359.398 C 8.400 359.643,8.850 360.455,9.400 361.200 C 9.950 361.945,10.403 362.385,10.406 362.178 C 10.409 361.970,10.580 362.065,10.785 362.389 C 11.031 362.778,10.995 363.083,10.679 363.283 C 10.378 363.475,10.534 363.590,11.100 363.594 C 11.595 363.597,11.960 363.735,11.911 363.900 C 11.740 364.476,13.244 366.318,14.059 366.531 C 14.511 366.649,14.774 366.918,14.645 367.128 C 14.515 367.338,14.675 367.730,15.000 368.000 C 15.325 368.270,15.490 368.655,15.366 368.855 C 15.242 369.056,15.379 369.170,15.670 369.110 C 15.962 369.049,16.157 369.219,16.105 369.486 C 16.050 369.766,16.261 369.875,16.605 369.743 C 16.932 369.617,17.200 369.727,17.200 369.986 C 17.200 370.557,18.192 371.600,18.736 371.600 C 18.952 371.600,19.575 372.130,20.120 372.778 C 20.665 373.426,21.223 373.844,21.360 373.707 C 21.497 373.570,21.958 373.805,22.385 374.229 C 23.656 375.490,26.328 377.369,26.880 377.390 C 27.034 377.395,27.385 377.625,27.660 377.900 C 27.935 378.175,28.424 378.400,28.747 378.400 C 29.069 378.400,29.216 378.517,29.073 378.661 C 28.667 379.066,30.757 380.000,32.069 380.000 C 32.753 380.000,33.143 380.168,33.000 380.400 C 32.864 380.620,33.033 380.800,33.376 380.800 C 33.719 380.800,34.000 380.942,34.000 381.115 C 34.000 381.288,34.389 381.459,34.864 381.495 C 35.339 381.531,35.834 381.704,35.964 381.880 C 36.094 382.056,36.560 382.263,37.000 382.340 C 37.440 382.417,37.932 382.687,38.094 382.940 C 38.294 383.253,38.392 383.208,38.400 382.800 C 38.410 382.303,38.472 382.295,38.761 382.751 C 38.953 383.054,39.312 383.178,39.558 383.026 C 39.804 382.874,40.096 382.986,40.207 383.275 C 40.318 383.564,41.052 383.835,41.838 383.879 C 42.624 383.922,43.476 384.116,43.733 384.310 C 43.990 384.505,44.879 384.700,45.708 384.745 C 46.538 384.790,47.693 385.007,48.275 385.229 C 49.062 385.528,49.418 385.499,49.661 385.116 C 49.915 384.714,49.989 384.711,49.994 385.101 C 50.003 385.833,369.441 385.826,369.737 385.094 C 369.895 384.704,369.943 384.703,369.968 385.093 C 369.990 385.437,370.411 385.355,371.353 384.826 C 372.325 384.280,372.828 384.188,373.140 384.500 C 373.452 384.812,373.645 384.747,373.829 384.270 C 374.009 383.800,374.363 383.676,375.042 383.846 C 375.621 383.992,376.000 383.911,376.000 383.643 C 376.000 383.400,376.450 383.200,377.000 383.200 C 377.550 383.200,378.000 383.020,378.000 382.800 C 378.000 382.580,378.450 382.400,379.000 382.400 C 379.550 382.400,380.000 382.220,380.000 382.000 C 380.000 381.780,380.360 381.600,380.800 381.600 C 381.240 381.600,381.600 381.420,381.600 381.200 C 381.600 380.980,381.971 380.800,382.424 380.800 C 382.877 380.800,383.136 380.620,383.000 380.400 C 382.864 380.180,382.954 380.000,383.200 380.000 C 383.446 380.000,383.536 379.820,383.400 379.600 C 383.264 379.380,383.534 379.200,384.000 379.200 C 384.466 379.200,384.736 379.020,384.600 378.800 C 384.460 378.574,384.787 378.400,385.349 378.400 C 385.995 378.400,386.436 378.118,386.600 377.600 C 386.841 376.841,387.304 376.605,388.200 376.786 C 388.420 376.830,388.480 376.746,388.332 376.599 C 387.982 376.248,389.622 374.366,390.049 374.630 C 390.229 374.741,390.490 374.382,390.628 373.831 C 390.766 373.280,391.222 372.720,391.640 372.587 C 392.058 372.455,392.400 372.078,392.400 371.749 C 392.400 371.421,392.580 371.264,392.800 371.400 C 393.020 371.536,393.200 371.356,393.200 371.000 C 393.200 370.644,393.380 370.464,393.600 370.600 C 393.820 370.736,394.004 370.612,394.009 370.324 C 394.014 370.036,394.370 369.350,394.800 368.800 C 395.230 368.250,395.586 367.435,395.591 366.988 C 395.596 366.542,395.960 365.917,396.400 365.600 C 396.840 365.283,397.200 364.613,397.200 364.112 C 397.200 363.610,397.399 363.200,397.643 363.200 C 397.886 363.200,397.979 362.923,397.850 362.585 C 397.715 362.235,397.869 361.872,398.207 361.742 C 398.546 361.612,398.800 361.008,398.800 360.334 C 398.800 359.684,398.941 359.240,399.114 359.347 C 399.816 359.781,400.354 129.925,399.653 129.046 C 399.457 128.801,399.370 127.925,399.460 127.100 C 399.554 126.234,399.449 125.600,399.211 125.600 C 398.985 125.600,398.800 125.139,398.800 124.576 C 398.800 123.996,398.627 123.660,398.400 123.800 C 398.167 123.944,398.000 123.545,398.000 122.847 C 398.000 122.187,397.820 121.536,397.600 121.400 C 397.380 121.264,397.200 120.798,397.200 120.364 C 397.200 119.930,396.920 119.467,396.577 119.336 C 396.234 119.204,396.052 118.841,396.172 118.528 C 396.293 118.212,396.214 118.067,395.995 118.203 C 395.649 118.417,395.536 118.163,395.626 117.370 C 395.641 117.243,395.253 116.793,394.765 116.370 C 394.277 115.946,394.090 115.600,394.350 115.600 C 394.910 115.600,391.274 111.815,390.400 111.488 C 390.059 111.360,390.011 111.250,390.287 111.232 C 391.127 111.177,390.388 110.072,388.941 109.218 C 388.178 108.768,387.664 108.220,387.800 108.000 C 387.936 107.780,387.666 107.600,387.200 107.600 C 386.734 107.600,386.464 107.420,386.600 107.200 C 386.736 106.980,386.567 106.800,386.224 106.800 C 385.881 106.800,385.600 106.620,385.600 106.400 C 385.600 106.180,385.330 106.000,385.000 106.000 C 384.670 106.000,384.400 105.820,384.400 105.600 C 384.400 105.380,384.034 105.200,383.587 105.200 C 383.141 105.200,382.667 104.920,382.536 104.577 C 382.393 104.205,382.041 104.052,381.661 104.198 C 381.311 104.332,381.145 104.321,381.293 104.174 C 381.441 104.026,381.313 103.656,381.010 103.352 C 380.331 102.674,379.846 102.627,380.249 103.279 C 380.411 103.542,379.989 103.362,379.310 102.879 C 378.632 102.395,377.689 102.000,377.215 102.000 C 376.741 102.000,376.464 101.820,376.600 101.600 C 376.740 101.374,376.412 101.200,375.847 101.200 C 375.297 101.200,374.736 101.020,374.600 100.800 C 374.464 100.580,373.733 100.400,372.976 100.400 C 372.219 100.400,371.600 100.258,371.600 100.085 C 371.600 99.911,370.205 99.719,368.500 99.657 C 366.795 99.595,365.337 99.369,365.261 99.155 C 365.181 98.930,364.853 98.984,364.484 99.283 C 364.002 99.674,363.920 99.678,364.147 99.300 C 364.376 98.919,363.776 98.800,361.624 98.800 L 358.800 98.800 358.800 71.946 C 358.800 46.413,358.713 43.995,357.689 41.200 C 357.568 40.870,357.454 40.278,357.435 39.885 C 357.416 39.492,357.202 39.042,356.960 38.885 C 356.717 38.728,356.399 38.060,356.252 37.400 C 356.106 36.740,355.932 35.967,355.867 35.683 C 355.801 35.398,355.459 34.828,355.107 34.416 C 354.754 34.005,354.571 33.562,354.700 33.434 C 354.828 33.305,354.723 33.200,354.467 33.200 C 354.210 33.200,354.045 32.975,354.100 32.700 C 354.155 32.425,353.981 32.243,353.714 32.295 C 353.447 32.348,353.321 32.149,353.434 31.854 C 353.548 31.560,353.196 31.028,352.654 30.672 C 351.957 30.216,351.718 29.758,351.838 29.113 C 351.932 28.611,351.906 28.414,351.779 28.675 C 351.489 29.275,350.199 28.058,349.803 26.811 C 349.650 26.328,349.299 26.030,349.014 26.139 C 348.712 26.255,348.520 26.060,348.550 25.669 C 348.581 25.259,348.249 24.951,347.694 24.872 C 347.196 24.801,346.857 24.621,346.941 24.471 C 347.094 24.201,345.219 22.200,344.813 22.200 C 344.696 22.200,344.649 22.052,344.710 21.870 C 344.770 21.689,344.659 21.640,344.462 21.762 C 344.264 21.884,343.697 21.631,343.200 21.200 C 342.703 20.769,342.136 20.516,341.938 20.638 C 341.741 20.760,341.630 20.684,341.690 20.470 C 341.751 20.255,341.652 20.107,341.472 20.140 C 341.291 20.173,340.962 19.875,340.740 19.478 C 340.517 19.081,339.855 18.556,339.268 18.311 C 337.932 17.755,338.147 17.828,335.924 17.187 C 334.892 16.890,334.114 16.539,334.196 16.406 C 334.278 16.274,333.968 16.138,333.508 16.103 C 333.048 16.068,332.563 15.864,332.430 15.648 C 332.296 15.432,331.420 15.305,330.483 15.364 C 329.536 15.425,328.473 15.242,328.089 14.952 C 327.089 14.196,49.000 14.142,48.067 14.898 C 47.574 15.297,47.508 15.297,47.747 14.900 C 47.912 14.625,47.957 14.400,47.847 14.400 C 47.737 14.400,47.536 14.580,47.400 14.800 M325.001 41.202 C 325.136 41.421,325.563 41.600,325.948 41.600 C 326.334 41.600,327.024 41.949,327.482 42.376 C 327.940 42.803,328.449 43.028,328.612 42.876 C 328.776 42.724,328.827 42.863,328.726 43.185 C 328.626 43.507,329.145 44.372,329.881 45.108 C 330.617 45.844,331.135 46.581,331.033 46.746 C 330.931 46.911,331.242 47.342,331.724 47.704 C 332.318 48.150,332.584 48.754,332.550 49.581 C 332.523 50.251,332.478 61.600,332.450 74.800 L 332.400 98.800 194.200 98.800 C 83.924 98.800,55.994 98.901,55.968 99.300 C 55.944 99.683,55.888 99.679,55.730 99.283 C 55.570 98.887,55.392 98.875,54.961 99.232 C 54.556 99.568,54.400 99.573,54.400 99.249 C 54.400 98.978,53.618 98.800,52.424 98.800 C 51.337 98.800,50.326 98.604,50.178 98.365 C 50.031 98.126,49.577 98.017,49.170 98.124 C 48.762 98.230,48.221 98.066,47.966 97.759 C 47.711 97.451,47.299 97.203,47.051 97.206 C 46.785 97.210,46.823 97.353,47.143 97.556 C 47.476 97.768,47.531 97.995,47.285 98.148 C 47.064 98.284,46.781 98.126,46.654 97.798 C 46.528 97.469,46.149 97.200,45.813 97.200 C 45.476 97.200,45.200 97.001,45.200 96.757 C 45.200 96.514,44.930 96.418,44.600 96.545 C 44.270 96.671,44.000 96.571,44.000 96.321 C 44.000 96.071,43.889 95.978,43.752 96.114 C 43.616 96.250,43.242 96.099,42.920 95.777 C 42.599 95.456,42.170 95.295,41.968 95.420 C 41.765 95.545,41.600 95.446,41.600 95.200 C 41.600 94.954,41.420 94.864,41.200 95.000 C 40.980 95.136,40.800 94.937,40.800 94.557 C 40.800 94.177,40.682 93.985,40.537 94.130 C 40.392 94.275,39.997 94.170,39.660 93.897 C 39.152 93.485,39.104 93.503,39.385 94.000 C 39.619 94.416,39.489 94.384,38.961 93.897 C 36.587 91.704,35.476 90.800,35.158 90.800 C 34.961 90.800,34.800 90.628,34.800 90.418 C 34.800 90.208,34.340 89.577,33.778 89.015 C 33.217 88.453,32.866 87.817,32.999 87.601 C 33.142 87.370,32.960 87.317,32.555 87.473 C 32.075 87.657,31.960 87.588,32.171 87.246 C 32.357 86.946,32.035 86.379,31.337 85.780 C 30.712 85.242,30.200 84.654,30.200 84.473 C 30.200 84.291,29.901 83.844,29.536 83.478 C 29.129 83.072,28.959 82.477,29.099 81.944 C 29.255 81.348,29.181 81.165,28.863 81.361 C 28.397 81.649,28.247 81.198,28.379 79.900 C 28.418 79.515,28.298 79.200,28.112 79.200 C 27.730 79.200,26.577 75.651,26.725 74.930 C 26.778 74.672,26.636 74.346,26.411 74.207 C 26.170 74.058,26.000 72.130,26.000 69.553 C 26.000 66.721,26.143 65.241,26.400 65.400 C 26.638 65.547,26.800 65.071,26.800 64.224 C 26.800 63.441,26.980 62.800,27.200 62.800 C 27.420 62.800,27.600 62.260,27.600 61.600 C 27.600 60.940,27.780 60.400,28.000 60.400 C 28.220 60.400,28.400 59.939,28.400 59.376 C 28.400 58.796,28.573 58.460,28.800 58.600 C 29.020 58.736,29.200 58.511,29.200 58.099 C 29.200 57.688,29.560 56.964,30.000 56.492 C 30.440 56.020,30.800 55.345,30.800 54.993 C 30.800 54.641,30.960 54.451,31.155 54.572 C 31.478 54.772,32.140 53.395,32.048 52.714 C 32.027 52.557,32.232 52.503,32.505 52.593 C 32.777 52.683,33.419 52.227,33.930 51.579 C 35.015 50.204,34.804 50.000,33.616 51.275 C 33.167 51.757,32.800 51.929,32.800 51.657 C 32.800 51.385,33.339 50.856,33.997 50.481 C 34.656 50.107,35.196 49.654,35.197 49.476 C 35.199 49.298,35.425 49.282,35.700 49.441 C 35.975 49.599,36.067 49.581,35.903 49.401 C 35.470 48.923,36.372 48.000,37.273 48.000 C 37.699 48.000,37.953 47.847,37.837 47.660 C 37.722 47.473,38.065 47.086,38.600 46.800 C 39.135 46.514,39.461 46.099,39.325 45.878 C 39.188 45.657,39.263 45.592,39.491 45.733 C 39.719 45.874,40.377 45.618,40.953 45.166 C 41.529 44.713,42.000 44.473,42.000 44.632 C 42.000 44.792,42.336 44.535,42.747 44.061 C 43.158 43.587,43.967 43.200,44.547 43.200 C 45.126 43.200,45.600 43.020,45.600 42.800 C 45.600 42.580,46.151 42.400,46.824 42.400 C 47.537 42.400,47.944 42.233,47.800 42.000 C 47.572 41.631,49.178 41.408,50.865 41.573 C 51.230 41.609,51.645 41.451,51.786 41.223 C 52.137 40.655,324.650 40.634,325.001 41.202 M26.400 117.200 C 26.400 117.420,26.681 117.600,27.024 117.600 C 27.367 117.600,27.560 117.742,27.452 117.915 C 27.345 118.088,27.740 118.270,28.329 118.319 C 28.918 118.367,29.460 118.586,29.534 118.806 C 29.608 119.025,29.831 119.105,30.030 118.982 C 30.228 118.859,30.278 119.051,30.141 119.409 C 29.979 119.831,30.087 120.033,30.446 119.983 C 31.543 119.829,32.042 120.008,31.766 120.455 C 31.563 120.783,31.914 120.830,33.018 120.623 C 34.396 120.365,34.498 120.401,34.019 120.977 C 33.560 121.530,33.583 121.581,34.184 121.351 C 34.589 121.196,35.017 121.304,35.206 121.611 C 35.386 121.900,36.073 122.163,36.735 122.194 C 37.396 122.225,38.176 122.440,38.469 122.672 C 39.446 123.448,40.913 124.107,40.625 123.640 C 40.475 123.398,40.543 123.200,40.776 123.200 C 41.009 123.200,41.200 123.391,41.200 123.624 C 41.200 123.857,41.348 123.956,41.529 123.844 C 41.709 123.732,42.348 123.896,42.948 124.207 C 43.585 124.537,44.529 124.674,45.219 124.536 C 45.967 124.387,46.400 124.465,46.400 124.750 C 46.400 125.058,47.911 125.200,51.200 125.200 C 54.141 125.200,56.000 125.355,56.000 125.601 C 56.000 125.868,107.811 126.001,211.402 125.999 C 335.324 125.997,366.983 126.098,367.687 126.498 C 368.172 126.774,368.829 127.240,369.147 127.533 C 369.464 127.827,370.146 128.227,370.662 128.424 C 371.239 128.643,371.600 129.107,371.600 129.628 C 371.600 130.138,371.918 130.558,372.400 130.684 C 372.967 130.832,373.200 131.230,373.200 132.047 C 373.200 132.681,373.380 133.200,373.600 133.200 C 373.820 133.200,374.000 133.974,374.000 134.920 C 374.000 135.866,374.181 136.821,374.403 137.043 C 374.667 137.307,374.771 145.875,374.703 161.925 L 374.600 186.404 326.300 186.408 C 294.886 186.411,278.000 186.550,278.000 186.806 C 278.000 187.034,276.556 187.200,274.576 187.200 C 271.954 187.200,271.219 187.317,271.435 187.700 C 271.658 188.096,271.607 188.098,271.188 187.710 C 270.873 187.417,270.485 187.361,270.230 187.571 C 269.993 187.764,269.260 187.978,268.600 188.046 C 267.940 188.114,267.220 188.276,267.000 188.406 C 266.780 188.535,265.970 188.695,265.200 188.761 C 264.430 188.827,263.710 188.998,263.600 189.142 C 263.490 189.285,262.899 189.461,262.287 189.532 C 260.912 189.691,259.120 190.587,259.473 190.939 C 259.616 191.083,259.523 191.200,259.267 191.200 C 259.010 191.200,258.786 190.975,258.768 190.700 C 258.743 190.300,258.696 190.300,258.535 190.700 C 258.424 190.975,258.078 191.200,257.767 191.200 C 257.455 191.200,257.200 191.410,257.200 191.667 C 257.200 191.923,257.087 192.020,256.949 191.883 C 256.811 191.745,256.106 191.879,255.382 192.182 C 254.658 192.484,253.946 192.612,253.799 192.466 C 253.653 192.320,253.593 192.380,253.667 192.600 C 253.740 192.820,253.640 193.030,253.445 193.066 C 253.249 193.102,252.937 193.372,252.751 193.666 C 252.473 194.104,252.411 194.105,252.406 193.671 C 252.402 193.276,252.241 193.302,251.768 193.775 C 251.420 194.123,250.942 194.288,250.706 194.142 C 250.470 193.996,250.389 194.059,250.527 194.281 C 250.664 194.504,249.977 195.097,249.000 195.600 C 248.023 196.103,247.319 196.668,247.435 196.857 C 247.630 197.172,247.046 197.368,246.287 197.243 C 246.115 197.215,245.487 197.643,244.891 198.196 C 244.296 198.748,243.652 199.200,243.461 199.200 C 243.271 199.200,243.224 199.485,243.357 199.833 C 243.509 200.228,243.418 200.406,243.115 200.305 C 242.848 200.216,242.263 200.532,241.815 201.007 C 241.367 201.482,240.505 202.190,239.900 202.581 C 239.295 202.972,238.800 203.626,238.800 204.033 C 238.800 204.505,238.596 204.697,238.239 204.560 C 237.898 204.429,237.394 204.826,236.953 205.572 C 236.554 206.247,236.086 206.800,235.914 206.800 C 235.741 206.800,235.600 207.036,235.600 207.325 C 235.600 207.613,235.055 208.252,234.389 208.745 C 233.676 209.272,233.291 209.838,233.453 210.120 C 233.604 210.384,233.590 210.475,233.421 210.323 C 233.065 210.003,230.800 212.351,230.800 213.040 C 230.800 213.294,230.532 213.724,230.204 213.996 C 229.877 214.268,229.700 214.638,229.811 214.818 C 229.922 214.998,229.675 215.383,229.260 215.673 C 228.447 216.242,228.403 216.345,228.394 217.700 C 228.389 218.428,228.314 218.485,228.000 218.000 C 227.699 217.534,227.611 217.651,227.606 218.524 C 227.603 219.142,227.429 219.542,227.221 219.413 C 227.012 219.284,226.909 219.529,226.992 219.958 C 227.074 220.386,226.885 220.835,226.571 220.956 C 226.257 221.076,226.000 221.530,226.000 221.964 C 226.000 222.398,225.813 222.869,225.584 223.010 C 225.355 223.152,225.272 223.597,225.400 224.000 C 225.528 224.403,225.445 224.848,225.216 224.990 C 224.987 225.131,224.800 225.607,224.800 226.047 C 224.800 226.487,224.620 226.736,224.400 226.600 C 224.162 226.453,224.000 226.921,224.000 227.753 C 224.000 228.523,223.820 229.264,223.600 229.400 C 223.380 229.536,223.200 229.827,223.200 230.047 C 223.200 230.267,223.368 230.344,223.573 230.217 C 223.778 230.090,223.651 230.575,223.291 231.293 C 221.973 233.922,220.833 255.600,222.012 255.600 C 222.226 255.600,222.400 256.320,222.400 257.200 C 222.400 258.080,222.580 258.800,222.800 258.800 C 223.020 258.800,223.200 259.441,223.200 260.224 C 223.200 261.071,223.362 261.547,223.600 261.400 C 223.845 261.249,224.000 261.870,224.000 263.000 C 224.000 264.130,224.155 264.751,224.400 264.600 C 224.639 264.452,224.800 264.948,224.800 265.832 C 224.800 266.756,225.063 267.527,225.500 267.886 C 225.958 268.261,225.993 268.370,225.600 268.200 C 225.119 267.992,225.126 268.046,225.635 268.470 C 225.984 268.762,226.201 269.204,226.117 269.454 C 226.033 269.703,226.234 270.177,226.563 270.506 C 226.892 270.835,227.061 271.206,226.937 271.329 C 226.814 271.453,227.092 272.087,227.556 272.739 C 228.020 273.390,228.400 274.191,228.400 274.519 C 228.400 274.846,228.681 275.222,229.025 275.354 C 229.369 275.486,229.546 275.765,229.417 275.973 C 229.288 276.181,229.473 276.513,229.827 276.711 C 230.182 276.910,230.444 277.146,230.410 277.236 C 230.261 277.632,231.006 279.055,231.672 279.647 C 232.073 280.003,232.400 280.498,232.400 280.747 C 232.400 280.996,232.580 281.200,232.800 281.200 C 233.020 281.200,233.200 281.430,233.200 281.712 C 233.200 281.993,233.560 282.483,234.000 282.800 C 234.440 283.117,234.800 283.617,234.800 283.912 C 234.800 284.206,234.980 284.336,235.200 284.200 C 235.420 284.064,235.600 284.334,235.600 284.800 C 235.600 285.266,235.780 285.536,236.000 285.400 C 236.220 285.264,236.400 285.433,236.400 285.776 C 236.400 286.119,236.625 286.401,236.900 286.401 C 237.175 286.402,237.760 286.943,238.200 287.603 C 238.640 288.264,239.199 288.729,239.441 288.637 C 239.985 288.432,241.237 289.822,240.867 290.221 C 240.720 290.380,240.848 290.432,241.150 290.338 C 241.802 290.135,244.370 292.437,244.078 292.962 C 243.967 293.161,244.054 293.214,244.271 293.079 C 244.799 292.754,247.685 294.738,247.387 295.221 C 247.258 295.430,247.373 295.600,247.642 295.600 C 248.373 295.600,251.200 296.909,251.200 297.248 C 251.200 297.616,253.536 298.800,254.261 298.800 C 254.558 298.800,254.800 298.999,254.800 299.243 C 254.800 299.486,255.065 299.584,255.388 299.460 C 255.712 299.336,256.211 299.451,256.498 299.717 C 256.785 299.983,257.240 300.245,257.510 300.300 C 257.779 300.355,258.225 300.445,258.500 300.500 C 258.775 300.555,259.277 300.899,259.615 301.263 C 260.062 301.745,260.419 301.821,260.919 301.541 C 261.429 301.256,261.671 301.321,261.851 301.790 C 262.002 302.183,262.368 302.337,262.814 302.196 C 263.209 302.070,263.644 302.147,263.779 302.366 C 263.915 302.586,264.290 302.664,264.613 302.540 C 264.981 302.398,265.200 302.558,265.200 302.967 C 265.200 303.477,265.510 303.585,266.624 303.462 C 267.486 303.367,268.264 303.521,268.595 303.853 C 269.216 304.473,270.172 304.602,269.810 304.016 C 269.659 303.771,269.976 303.772,270.686 304.017 C 271.299 304.229,272.659 304.351,273.710 304.288 C 274.993 304.211,275.563 304.320,275.447 304.621 C 275.338 304.907,275.875 305.068,276.938 305.067 C 277.852 305.067,300.245 305.096,326.700 305.133 L 374.800 305.200 374.800 326.600 C 374.800 338.370,374.665 348.000,374.500 348.001 C 374.335 348.001,374.153 348.766,374.097 349.701 C 373.982 351.582,373.370 353.064,372.303 354.047 C 371.916 354.403,371.600 354.988,371.600 355.347 C 371.600 355.733,371.273 356.000,370.800 356.000 C 370.084 356.000,369.813 356.416,369.953 357.300 C 369.979 357.465,369.640 357.600,369.200 357.600 C 368.760 357.600,368.400 357.760,368.400 357.956 C 368.400 358.152,367.725 358.452,366.900 358.623 C 364.610 359.098,50.400 359.266,50.400 358.793 C 50.400 358.577,49.948 358.400,49.395 358.400 C 48.842 358.400,48.077 358.233,47.695 358.029 C 46.974 357.645,45.744 357.218,45.386 357.228 C 45.015 357.238,42.607 355.809,42.306 355.400 C 42.144 355.180,42.009 355.157,42.006 355.349 C 42.003 355.541,41.730 355.474,41.400 355.200 C 41.070 354.926,40.800 354.806,40.800 354.933 C 40.800 355.060,40.358 354.722,39.818 354.182 C 39.278 353.642,38.648 353.200,38.418 353.200 C 38.188 353.200,38.000 352.930,38.000 352.600 C 38.000 352.229,37.624 352.000,37.013 352.000 C 36.303 352.000,36.089 351.833,36.253 351.406 C 36.403 351.016,36.122 350.674,35.438 350.414 C 34.864 350.196,34.440 349.797,34.497 349.527 C 34.554 349.257,34.407 349.028,34.171 349.018 C 33.544 348.992,32.231 347.600,32.833 347.600 C 33.102 347.600,32.935 347.264,32.461 346.853 C 31.988 346.442,31.600 345.963,31.600 345.789 C 31.600 345.614,31.015 344.934,30.300 344.277 C 29.585 343.619,29.225 343.209,29.500 343.364 C 29.775 343.520,30.000 343.457,30.000 343.224 C 30.000 342.991,29.820 342.800,29.600 342.800 C 29.380 342.800,29.200 342.440,29.200 342.000 C 29.200 341.560,29.020 341.200,28.800 341.200 C 28.580 341.200,28.400 340.930,28.400 340.600 C 28.400 340.270,28.220 340.000,28.000 340.000 C 27.780 340.000,27.600 339.550,27.600 339.000 C 27.600 338.450,27.375 337.997,27.100 337.994 C 26.767 337.990,26.800 337.858,27.200 337.600 C 27.600 337.342,27.633 337.210,27.300 337.206 C 26.983 337.202,26.800 336.605,26.800 335.576 C 26.800 334.683,26.635 334.055,26.433 334.180 C 26.228 334.306,25.990 333.121,25.894 331.503 C 25.505 324.932,25.606 116.800,25.999 116.800 C 26.219 116.800,26.400 116.980,26.400 117.200 M280.400 213.203 C 280.400 213.472,296.110 213.603,327.500 213.597 L 374.600 213.587 374.702 245.985 L 374.805 278.384 373.902 278.608 C 372.038 279.071,277.749 278.621,277.161 278.146 C 276.853 277.896,275.970 277.730,275.200 277.778 C 274.400 277.826,273.470 277.592,273.031 277.232 C 272.608 276.884,272.394 276.825,272.555 277.100 C 272.716 277.375,272.657 277.600,272.424 277.600 C 272.191 277.600,272.000 277.397,272.000 277.150 C 272.000 276.860,271.559 276.788,270.758 276.948 C 269.787 277.143,269.563 277.073,269.732 276.632 C 269.902 276.191,269.625 276.104,268.475 276.236 C 267.664 276.330,267.218 276.264,267.484 276.089 C 267.833 275.861,267.738 275.629,267.142 275.257 C 266.688 274.973,266.436 274.934,266.582 275.170 C 267.010 275.863,266.436 275.665,265.508 274.800 C 265.036 274.360,264.324 274.000,263.926 274.000 C 263.527 274.000,262.542 273.378,261.735 272.617 C 260.929 271.856,260.091 271.344,259.873 271.479 C 259.651 271.616,259.602 271.521,259.762 271.262 C 259.922 271.002,259.817 270.800,259.520 270.800 C 259.230 270.800,258.763 270.433,258.483 269.984 C 258.203 269.536,257.772 269.294,257.525 269.446 C 257.257 269.612,257.188 269.544,257.353 269.276 C 257.652 268.792,256.218 267.116,255.833 267.500 C 255.616 267.717,255.445 266.984,255.553 266.300 C 255.579 266.135,255.285 265.997,254.900 265.994 C 254.345 265.989,254.314 265.915,254.753 265.638 C 255.187 265.363,255.123 265.229,254.453 265.017 C 253.972 264.864,253.600 264.411,253.600 263.976 C 253.600 263.553,253.240 262.982,252.800 262.707 C 252.360 262.432,252.000 262.003,252.000 261.753 C 252.000 261.503,251.722 261.067,251.382 260.785 C 251.042 260.503,250.854 260.036,250.964 259.749 C 251.075 259.461,250.993 259.119,250.783 258.989 C 250.572 258.859,250.400 258.303,250.400 257.753 C 250.400 257.188,250.226 256.860,250.000 257.000 C 249.773 257.140,249.600 256.804,249.600 256.224 C 249.600 255.661,249.409 255.200,249.176 255.200 C 248.943 255.200,248.856 255.032,248.983 254.828 C 249.109 254.623,249.038 254.347,248.824 254.215 C 248.610 254.083,248.543 253.692,248.676 253.347 C 248.808 253.002,248.699 252.585,248.433 252.421 C 247.779 252.016,247.767 240.383,248.419 239.164 C 248.673 238.691,248.880 237.668,248.880 236.893 C 248.880 235.920,248.990 235.656,249.234 236.041 C 249.503 236.465,249.589 236.391,249.594 235.733 C 249.597 235.257,249.778 234.807,249.997 234.733 C 250.215 234.660,250.434 234.105,250.484 233.500 C 250.534 232.895,250.710 232.400,250.875 232.400 C 251.040 232.400,251.072 232.132,250.946 231.803 C 250.815 231.463,250.992 231.101,251.358 230.961 C 251.711 230.825,252.000 230.464,252.000 230.157 C 252.000 229.851,252.191 229.600,252.424 229.600 C 252.657 229.600,252.745 229.435,252.620 229.232 C 252.495 229.030,252.664 228.593,252.996 228.261 C 253.328 227.929,253.600 227.464,253.600 227.229 C 253.600 226.993,253.780 226.800,254.000 226.800 C 254.220 226.800,254.400 226.500,254.400 226.133 C 254.400 225.767,254.508 225.575,254.641 225.707 C 255.070 226.137,256.671 224.222,256.486 223.500 C 256.371 223.053,256.535 222.800,256.940 222.800 C 257.288 222.800,258.095 222.305,258.733 221.700 C 260.455 220.067,261.600 219.175,261.600 219.465 C 261.600 219.607,261.915 219.363,262.300 218.924 C 262.685 218.485,263.270 218.212,263.600 218.317 C 263.930 218.423,264.064 218.363,263.897 218.185 C 263.488 217.747,265.573 216.415,266.257 216.677 C 266.556 216.792,266.800 216.686,266.800 216.443 C 266.800 216.199,267.160 216.000,267.600 216.000 C 268.040 216.000,268.400 215.809,268.400 215.576 C 268.400 215.343,268.568 215.256,268.772 215.383 C 268.977 215.509,269.253 215.438,269.385 215.224 C 269.517 215.010,269.890 214.936,270.213 215.060 C 270.536 215.184,270.800 215.086,270.800 214.843 C 270.800 214.599,271.394 214.400,272.120 214.400 C 272.846 214.400,273.618 214.222,273.836 214.004 C 274.054 213.786,275.354 213.582,276.725 213.551 C 278.096 213.520,279.314 213.339,279.432 213.148 C 279.727 212.670,280.400 212.709,280.400 213.203 M281.100 227.362 C 281.227 227.568,281.049 227.628,280.705 227.496 C 280.360 227.363,279.958 227.375,279.811 227.522 C 279.664 227.669,279.331 227.811,279.072 227.837 C 278.084 227.937,276.800 228.508,276.800 228.847 C 276.800 229.041,276.549 229.200,276.243 229.200 C 275.936 229.200,275.583 229.467,275.458 229.793 C 275.328 230.131,274.965 230.285,274.615 230.150 C 274.277 230.021,274.000 230.124,274.000 230.381 C 274.000 230.637,273.820 230.736,273.600 230.600 C 273.380 230.464,273.200 230.644,273.200 231.000 C 273.200 231.356,273.039 231.548,272.842 231.426 C 272.645 231.304,272.381 231.474,272.254 231.802 C 272.128 232.131,271.739 232.400,271.389 232.400 C 271.039 232.400,270.852 232.561,270.974 232.758 C 271.096 232.955,270.926 233.219,270.598 233.346 C 270.269 233.472,270.000 233.823,270.000 234.125 C 270.000 234.428,269.640 235.002,269.200 235.400 C 268.760 235.798,268.400 236.366,268.400 236.662 C 268.400 236.958,268.220 237.200,268.000 237.200 C 267.780 237.200,267.600 237.549,267.600 237.976 C 267.600 238.403,267.415 238.867,267.189 239.007 C 266.964 239.146,266.805 239.472,266.837 239.730 C 267.005 241.095,266.774 242.178,266.430 241.635 C 266.207 241.282,266.056 242.821,266.030 245.735 C 266.003 248.655,266.139 250.400,266.394 250.400 C 266.617 250.400,266.806 250.715,266.813 251.100 C 266.820 251.485,267.071 252.123,267.370 252.519 C 267.670 252.914,267.829 253.634,267.723 254.119 C 267.568 254.830,267.613 254.884,267.959 254.400 C 268.317 253.898,268.389 253.941,268.394 254.658 C 268.397 255.129,268.940 256.093,269.600 256.800 C 270.260 257.507,270.800 258.147,270.800 258.224 C 270.800 258.561,272.877 260.400,273.258 260.400 C 273.489 260.400,274.193 260.951,274.822 261.624 C 275.451 262.296,276.333 262.875,276.782 262.909 C 277.232 262.943,277.600 263.112,277.600 263.285 C 277.600 263.458,277.960 263.600,278.400 263.600 C 278.840 263.600,279.200 263.780,279.200 264.000 C 279.200 264.220,279.391 264.400,279.624 264.400 C 279.857 264.400,279.920 264.175,279.765 263.900 C 279.539 263.500,279.590 263.500,280.021 263.900 C 280.701 264.531,289.028 264.602,289.412 263.981 C 289.586 263.699,289.881 263.731,290.312 264.081 C 290.793 264.470,290.878 264.475,290.653 264.100 C 290.467 263.790,290.577 263.600,290.943 263.600 C 291.268 263.600,291.624 263.375,291.735 263.100 C 291.883 262.734,291.945 262.728,291.968 263.080 C 292.008 263.681,295.082 262.144,296.129 261.000 C 296.532 260.560,296.736 260.470,296.584 260.800 C 296.431 261.130,296.867 260.825,297.553 260.122 C 298.239 259.419,298.800 258.624,298.800 258.355 C 298.800 258.086,298.911 257.978,299.048 258.114 C 299.452 258.519,300.477 257.248,300.160 256.735 C 299.963 256.417,300.085 256.347,300.534 256.519 C 300.930 256.671,301.201 256.577,301.202 256.287 C 301.204 256.019,301.466 255.299,301.786 254.687 C 302.175 253.940,302.207 253.666,301.883 253.856 C 301.617 254.011,301.715 253.777,302.100 253.337 C 302.485 252.897,302.800 252.326,302.800 252.069 C 302.800 251.811,302.942 251.600,303.115 251.600 C 303.289 251.600,303.443 250.745,303.457 249.700 C 303.489 247.482,303.656 246.704,304.182 246.326 C 304.414 246.159,304.342 245.640,303.998 244.996 C 303.687 244.415,303.461 243.228,303.495 242.359 C 303.530 241.490,303.412 240.869,303.232 240.980 C 303.053 241.091,302.907 240.871,302.908 240.491 C 302.913 238.641,302.765 237.974,302.400 238.200 C 302.052 238.415,301.810 237.604,301.953 236.700 C 301.979 236.535,301.747 236.400,301.437 236.400 C 301.062 236.400,300.941 236.100,301.072 235.500 C 301.211 234.866,301.159 234.756,300.894 235.127 C 300.612 235.524,300.394 235.351,300.011 234.427 C 299.732 233.752,299.244 233.200,298.928 233.200 C 298.612 233.200,298.430 233.065,298.524 232.900 C 298.618 232.735,298.268 232.189,297.747 231.686 C 297.226 231.183,296.800 230.908,296.800 231.075 C 296.800 231.242,296.518 230.975,296.173 230.482 C 295.828 229.990,295.390 229.683,295.200 229.800 C 295.011 229.917,294.740 229.827,294.600 229.600 C 294.460 229.373,294.176 229.291,293.970 229.419 C 293.763 229.546,293.487 229.370,293.355 229.028 C 293.224 228.685,292.970 228.495,292.790 228.606 C 292.611 228.717,292.225 228.576,291.932 228.294 C 291.640 228.012,291.085 227.763,290.700 227.740 C 288.998 227.642,288.764 227.582,288.943 227.293 C 289.047 227.124,287.273 226.986,285.001 226.987 C 282.540 226.987,280.962 227.139,281.100 227.362 "
              stroke="none" fill="#70747c" fill-rule="evenodd"></path>
        <path id="path1"
              d="M343.213 21.100 C 343.219 21.265,343.714 21.746,344.313 22.168 L 345.400 22.936 344.430 21.868 C 343.411 20.746,343.192 20.607,343.213 21.100 M20.856 26.434 C 20.336 26.855,20.066 27.194,20.256 27.187 C 20.744 27.169,22.176 26.043,21.971 25.839 C 21.877 25.745,21.375 26.013,20.856 26.434 M350.000 27.139 C 350.000 27.392,350.360 27.960,350.800 28.400 C 351.240 28.840,351.600 29.048,351.600 28.861 C 351.600 28.675,351.240 28.107,350.800 27.600 C 350.360 27.093,350.000 26.885,350.000 27.139 M121.332 41.100 C 158.475 41.156,219.135 41.156,256.132 41.100 C 293.130 41.044,262.740 40.998,188.600 40.998 C 114.460 40.998,84.190 41.044,121.332 41.100 M35.762 48.862 L 35.000 49.724 36.100 49.016 C 37.234 48.286,37.449 48.000,36.862 48.000 C 36.676 48.000,36.181 48.388,35.762 48.862 M33.544 50.766 C 33.025 51.187,32.693 51.624,32.806 51.738 C 32.919 51.852,33.433 51.507,33.948 50.973 C 35.068 49.809,34.857 49.701,33.544 50.766 M29.043 82.967 C 29.176 83.315,29.461 83.600,29.676 83.600 C 30.202 83.600,29.873 82.691,29.275 82.492 C 28.982 82.394,28.893 82.577,29.043 82.967 M37.200 92.391 C 37.200 92.616,37.373 92.800,37.584 92.800 C 37.796 92.800,38.347 93.205,38.809 93.700 C 39.391 94.324,39.570 94.392,39.391 93.924 C 39.084 93.120,37.200 91.802,37.200 92.391 M390.700 111.612 C 391.195 111.811,391.600 112.160,391.600 112.387 C 391.600 112.614,391.782 112.800,392.003 112.800 C 392.243 112.800,392.203 112.474,391.907 112.000 C 391.632 111.560,391.046 111.211,390.604 111.225 C 389.862 111.249,389.870 111.279,390.700 111.612 M25.698 222.500 C 25.752 280.635,25.842 311.010,25.898 290.000 C 26.170 187.893,26.171 116.800,25.900 116.800 C 25.735 116.800,25.644 164.365,25.698 222.500 M33.200 120.773 C 33.200 121.223,34.763 121.770,35.097 121.437 C 35.227 121.306,35.023 121.200,34.643 121.200 C 34.263 121.200,34.064 121.020,34.200 120.800 C 34.336 120.580,34.167 120.400,33.824 120.400 C 33.481 120.400,33.200 120.568,33.200 120.773 M374.000 161.800 C 374.000 178.396,374.135 186.764,374.400 186.600 C 374.660 186.440,374.800 177.737,374.800 161.800 C 374.800 145.863,374.660 137.160,374.400 137.000 C 374.135 136.836,374.000 145.204,374.000 161.800 M374.000 245.776 L 374.000 278.400 327.300 278.498 L 280.600 278.597 326.800 278.708 C 352.210 278.769,373.405 278.722,373.900 278.602 L 374.800 278.385 374.800 246.016 C 374.800 224.868,374.661 213.562,374.400 213.400 C 374.135 213.236,374.000 224.129,374.000 245.776 M256.400 223.449 C 256.400 223.980,256.509 224.008,257.000 223.600 C 257.330 223.326,257.600 223.034,257.600 222.951 C 257.600 222.868,257.330 222.800,257.000 222.800 C 256.670 222.800,256.400 223.092,256.400 223.449 M284.100 227.076 C 284.485 227.176,285.115 227.176,285.500 227.076 C 285.885 226.975,285.570 226.893,284.800 226.893 C 284.030 226.893,283.715 226.975,284.100 227.076 M273.200 260.704 C 273.200 260.871,273.560 261.232,274.000 261.507 C 274.930 262.088,275.054 261.797,274.229 260.971 C 273.598 260.341,273.200 260.237,273.200 260.704 M223.378 261.635 C 223.231 261.874,223.310 262.270,223.555 262.515 C 223.882 262.842,224.000 262.726,224.000 262.080 C 224.000 261.114,223.792 260.965,223.378 261.635 M262.600 302.400 C 262.464 302.620,262.734 302.800,263.200 302.800 C 263.666 302.800,263.936 302.620,263.800 302.400 C 263.664 302.180,263.394 302.000,263.200 302.000 C 263.006 302.000,262.736 302.180,262.600 302.400 M274.600 304.400 C 273.720 304.778,273.782 304.857,275.066 304.995 C 275.654 305.058,275.865 304.913,275.723 304.544 C 275.608 304.245,275.489 304.013,275.457 304.028 C 275.426 304.044,275.040 304.211,274.600 304.400 M374.000 326.600 C 374.000 340.600,374.138 348.000,374.400 348.000 C 374.662 348.000,374.800 340.600,374.800 326.600 C 374.800 312.600,374.662 305.200,374.400 305.200 C 374.138 305.200,374.000 312.600,374.000 326.600 M33.083 348.388 C 33.454 348.821,33.838 349.096,33.936 348.998 C 34.174 348.759,33.195 347.600,32.755 347.600 C 32.564 347.600,32.711 347.955,33.083 348.388 M131.900 359.100 C 174.635 359.156,244.565 359.156,287.300 359.100 C 330.035 359.044,295.070 358.998,209.600 358.998 C 124.130 358.998,89.165 359.044,131.900 359.100 M13.928 367.054 C 14.414 367.946,17.200 370.682,17.200 370.266 C 17.200 370.106,16.575 369.427,15.811 368.756 C 15.047 368.085,14.462 367.348,14.511 367.118 C 14.560 366.888,14.358 366.612,14.061 366.504 C 13.647 366.353,13.616 366.480,13.928 367.054 "
              stroke="none" fill="#70747c" fill-rule="evenodd"></path>
        <path id="path2"
              d="M343.213 21.100 C 343.219 21.265,343.714 21.746,344.313 22.168 L 345.400 22.936 344.430 21.868 C 343.411 20.746,343.192 20.607,343.213 21.100 M20.856 26.434 C 20.336 26.855,20.066 27.194,20.256 27.187 C 20.744 27.169,22.176 26.043,21.971 25.839 C 21.877 25.745,21.375 26.013,20.856 26.434 M350.000 27.139 C 350.000 27.392,350.360 27.960,350.800 28.400 C 351.240 28.840,351.600 29.048,351.600 28.861 C 351.600 28.675,351.240 28.107,350.800 27.600 C 350.360 27.093,350.000 26.885,350.000 27.139 M121.332 41.100 C 158.475 41.156,219.135 41.156,256.132 41.100 C 293.130 41.044,262.740 40.998,188.600 40.998 C 114.460 40.998,84.190 41.044,121.332 41.100 M35.762 48.862 L 35.000 49.724 36.100 49.016 C 37.234 48.286,37.449 48.000,36.862 48.000 C 36.676 48.000,36.181 48.388,35.762 48.862 M33.544 50.766 C 33.025 51.187,32.693 51.624,32.806 51.738 C 32.919 51.852,33.433 51.507,33.948 50.973 C 35.068 49.809,34.857 49.701,33.544 50.766 M29.043 82.967 C 29.176 83.315,29.461 83.600,29.676 83.600 C 30.202 83.600,29.873 82.691,29.275 82.492 C 28.982 82.394,28.893 82.577,29.043 82.967 M37.200 92.391 C 37.200 92.616,37.373 92.800,37.584 92.800 C 37.796 92.800,38.347 93.205,38.809 93.700 C 39.391 94.324,39.570 94.392,39.391 93.924 C 39.084 93.120,37.200 91.802,37.200 92.391 M390.700 111.612 C 391.195 111.811,391.600 112.160,391.600 112.387 C 391.600 112.614,391.782 112.800,392.003 112.800 C 392.243 112.800,392.203 112.474,391.907 112.000 C 391.632 111.560,391.046 111.211,390.604 111.225 C 389.862 111.249,389.870 111.279,390.700 111.612 M25.698 222.500 C 25.752 280.635,25.842 311.010,25.898 290.000 C 26.170 187.893,26.171 116.800,25.900 116.800 C 25.735 116.800,25.644 164.365,25.698 222.500 M33.200 120.773 C 33.200 121.223,34.763 121.770,35.097 121.437 C 35.227 121.306,35.023 121.200,34.643 121.200 C 34.263 121.200,34.064 121.020,34.200 120.800 C 34.336 120.580,34.167 120.400,33.824 120.400 C 33.481 120.400,33.200 120.568,33.200 120.773 M374.000 161.800 C 374.000 178.396,374.135 186.764,374.400 186.600 C 374.660 186.440,374.800 177.737,374.800 161.800 C 374.800 145.863,374.660 137.160,374.400 137.000 C 374.135 136.836,374.000 145.204,374.000 161.800 M374.000 245.776 L 374.000 278.400 327.300 278.498 L 280.600 278.597 326.800 278.708 C 352.210 278.769,373.405 278.722,373.900 278.602 L 374.800 278.385 374.800 246.016 C 374.800 224.868,374.661 213.562,374.400 213.400 C 374.135 213.236,374.000 224.129,374.000 245.776 M256.400 223.449 C 256.400 223.980,256.509 224.008,257.000 223.600 C 257.330 223.326,257.600 223.034,257.600 222.951 C 257.600 222.868,257.330 222.800,257.000 222.800 C 256.670 222.800,256.400 223.092,256.400 223.449 M284.100 227.076 C 284.485 227.176,285.115 227.176,285.500 227.076 C 285.885 226.975,285.570 226.893,284.800 226.893 C 284.030 226.893,283.715 226.975,284.100 227.076 M273.200 260.704 C 273.200 260.871,273.560 261.232,274.000 261.507 C 274.930 262.088,275.054 261.797,274.229 260.971 C 273.598 260.341,273.200 260.237,273.200 260.704 M223.378 261.635 C 223.231 261.874,223.310 262.270,223.555 262.515 C 223.882 262.842,224.000 262.726,224.000 262.080 C 224.000 261.114,223.792 260.965,223.378 261.635 M262.600 302.400 C 262.464 302.620,262.734 302.800,263.200 302.800 C 263.666 302.800,263.936 302.620,263.800 302.400 C 263.664 302.180,263.394 302.000,263.200 302.000 C 263.006 302.000,262.736 302.180,262.600 302.400 M274.600 304.400 C 273.720 304.778,273.782 304.857,275.066 304.995 C 275.654 305.058,275.865 304.913,275.723 304.544 C 275.608 304.245,275.489 304.013,275.457 304.028 C 275.426 304.044,275.040 304.211,274.600 304.400 M374.000 326.600 C 374.000 340.600,374.138 348.000,374.400 348.000 C 374.662 348.000,374.800 340.600,374.800 326.600 C 374.800 312.600,374.662 305.200,374.400 305.200 C 374.138 305.200,374.000 312.600,374.000 326.600 M33.083 348.388 C 33.454 348.821,33.838 349.096,33.936 348.998 C 34.174 348.759,33.195 347.600,32.755 347.600 C 32.564 347.600,32.711 347.955,33.083 348.388 M131.900 359.100 C 174.635 359.156,244.565 359.156,287.300 359.100 C 330.035 359.044,295.070 358.998,209.600 358.998 C 124.130 358.998,89.165 359.044,131.900 359.100 M13.928 367.054 C 14.414 367.946,17.200 370.682,17.200 370.266 C 17.200 370.106,16.575 369.427,15.811 368.756 C 15.047 368.085,14.462 367.348,14.511 367.118 C 14.560 366.888,14.358 366.612,14.061 366.504 C 13.647 366.353,13.616 366.480,13.928 367.054 "
              stroke="none" fill="#70747c" fill-rule="evenodd"></path>
        <path id="path3"
              d="M343.213 21.100 C 343.219 21.265,343.714 21.746,344.313 22.168 L 345.400 22.936 344.430 21.868 C 343.411 20.746,343.192 20.607,343.213 21.100 M20.856 26.434 C 20.336 26.855,20.066 27.194,20.256 27.187 C 20.744 27.169,22.176 26.043,21.971 25.839 C 21.877 25.745,21.375 26.013,20.856 26.434 M350.000 27.139 C 350.000 27.392,350.360 27.960,350.800 28.400 C 351.240 28.840,351.600 29.048,351.600 28.861 C 351.600 28.675,351.240 28.107,350.800 27.600 C 350.360 27.093,350.000 26.885,350.000 27.139 M121.332 41.100 C 158.475 41.156,219.135 41.156,256.132 41.100 C 293.130 41.044,262.740 40.998,188.600 40.998 C 114.460 40.998,84.190 41.044,121.332 41.100 M35.762 48.862 L 35.000 49.724 36.100 49.016 C 37.234 48.286,37.449 48.000,36.862 48.000 C 36.676 48.000,36.181 48.388,35.762 48.862 M33.544 50.766 C 33.025 51.187,32.693 51.624,32.806 51.738 C 32.919 51.852,33.433 51.507,33.948 50.973 C 35.068 49.809,34.857 49.701,33.544 50.766 M29.043 82.967 C 29.176 83.315,29.461 83.600,29.676 83.600 C 30.202 83.600,29.873 82.691,29.275 82.492 C 28.982 82.394,28.893 82.577,29.043 82.967 M37.200 92.391 C 37.200 92.616,37.373 92.800,37.584 92.800 C 37.796 92.800,38.347 93.205,38.809 93.700 C 39.391 94.324,39.570 94.392,39.391 93.924 C 39.084 93.120,37.200 91.802,37.200 92.391 M390.700 111.612 C 391.195 111.811,391.600 112.160,391.600 112.387 C 391.600 112.614,391.782 112.800,392.003 112.800 C 392.243 112.800,392.203 112.474,391.907 112.000 C 391.632 111.560,391.046 111.211,390.604 111.225 C 389.862 111.249,389.870 111.279,390.700 111.612 M25.698 222.500 C 25.752 280.635,25.842 311.010,25.898 290.000 C 26.170 187.893,26.171 116.800,25.900 116.800 C 25.735 116.800,25.644 164.365,25.698 222.500 M33.200 120.773 C 33.200 121.223,34.763 121.770,35.097 121.437 C 35.227 121.306,35.023 121.200,34.643 121.200 C 34.263 121.200,34.064 121.020,34.200 120.800 C 34.336 120.580,34.167 120.400,33.824 120.400 C 33.481 120.400,33.200 120.568,33.200 120.773 M374.000 161.800 C 374.000 178.396,374.135 186.764,374.400 186.600 C 374.660 186.440,374.800 177.737,374.800 161.800 C 374.800 145.863,374.660 137.160,374.400 137.000 C 374.135 136.836,374.000 145.204,374.000 161.800 M374.000 245.776 L 374.000 278.400 327.300 278.498 L 280.600 278.597 326.800 278.708 C 352.210 278.769,373.405 278.722,373.900 278.602 L 374.800 278.385 374.800 246.016 C 374.800 224.868,374.661 213.562,374.400 213.400 C 374.135 213.236,374.000 224.129,374.000 245.776 M256.400 223.449 C 256.400 223.980,256.509 224.008,257.000 223.600 C 257.330 223.326,257.600 223.034,257.600 222.951 C 257.600 222.868,257.330 222.800,257.000 222.800 C 256.670 222.800,256.400 223.092,256.400 223.449 M284.100 227.076 C 284.485 227.176,285.115 227.176,285.500 227.076 C 285.885 226.975,285.570 226.893,284.800 226.893 C 284.030 226.893,283.715 226.975,284.100 227.076 M273.200 260.704 C 273.200 260.871,273.560 261.232,274.000 261.507 C 274.930 262.088,275.054 261.797,274.229 260.971 C 273.598 260.341,273.200 260.237,273.200 260.704 M223.378 261.635 C 223.231 261.874,223.310 262.270,223.555 262.515 C 223.882 262.842,224.000 262.726,224.000 262.080 C 224.000 261.114,223.792 260.965,223.378 261.635 M262.600 302.400 C 262.464 302.620,262.734 302.800,263.200 302.800 C 263.666 302.800,263.936 302.620,263.800 302.400 C 263.664 302.180,263.394 302.000,263.200 302.000 C 263.006 302.000,262.736 302.180,262.600 302.400 M274.600 304.400 C 273.720 304.778,273.782 304.857,275.066 304.995 C 275.654 305.058,275.865 304.913,275.723 304.544 C 275.608 304.245,275.489 304.013,275.457 304.028 C 275.426 304.044,275.040 304.211,274.600 304.400 M374.000 326.600 C 374.000 340.600,374.138 348.000,374.400 348.000 C 374.662 348.000,374.800 340.600,374.800 326.600 C 374.800 312.600,374.662 305.200,374.400 305.200 C 374.138 305.200,374.000 312.600,374.000 326.600 M33.083 348.388 C 33.454 348.821,33.838 349.096,33.936 348.998 C 34.174 348.759,33.195 347.600,32.755 347.600 C 32.564 347.600,32.711 347.955,33.083 348.388 M131.900 359.100 C 174.635 359.156,244.565 359.156,287.300 359.100 C 330.035 359.044,295.070 358.998,209.600 358.998 C 124.130 358.998,89.165 359.044,131.900 359.100 M13.928 367.054 C 14.414 367.946,17.200 370.682,17.200 370.266 C 17.200 370.106,16.575 369.427,15.811 368.756 C 15.047 368.085,14.462 367.348,14.511 367.118 C 14.560 366.888,14.358 366.612,14.061 366.504 C 13.647 366.353,13.616 366.480,13.928 367.054 "
              stroke="none" fill="#70747c" fill-rule="evenodd"></path>
        <path id="path4"
              d="M343.213 21.100 C 343.219 21.265,343.714 21.746,344.313 22.168 L 345.400 22.936 344.430 21.868 C 343.411 20.746,343.192 20.607,343.213 21.100 M20.856 26.434 C 20.336 26.855,20.066 27.194,20.256 27.187 C 20.744 27.169,22.176 26.043,21.971 25.839 C 21.877 25.745,21.375 26.013,20.856 26.434 M350.000 27.139 C 350.000 27.392,350.360 27.960,350.800 28.400 C 351.240 28.840,351.600 29.048,351.600 28.861 C 351.600 28.675,351.240 28.107,350.800 27.600 C 350.360 27.093,350.000 26.885,350.000 27.139 M121.332 41.100 C 158.475 41.156,219.135 41.156,256.132 41.100 C 293.130 41.044,262.740 40.998,188.600 40.998 C 114.460 40.998,84.190 41.044,121.332 41.100 M35.762 48.862 L 35.000 49.724 36.100 49.016 C 37.234 48.286,37.449 48.000,36.862 48.000 C 36.676 48.000,36.181 48.388,35.762 48.862 M33.544 50.766 C 33.025 51.187,32.693 51.624,32.806 51.738 C 32.919 51.852,33.433 51.507,33.948 50.973 C 35.068 49.809,34.857 49.701,33.544 50.766 M29.043 82.967 C 29.176 83.315,29.461 83.600,29.676 83.600 C 30.202 83.600,29.873 82.691,29.275 82.492 C 28.982 82.394,28.893 82.577,29.043 82.967 M37.200 92.391 C 37.200 92.616,37.373 92.800,37.584 92.800 C 37.796 92.800,38.347 93.205,38.809 93.700 C 39.391 94.324,39.570 94.392,39.391 93.924 C 39.084 93.120,37.200 91.802,37.200 92.391 M390.700 111.612 C 391.195 111.811,391.600 112.160,391.600 112.387 C 391.600 112.614,391.782 112.800,392.003 112.800 C 392.243 112.800,392.203 112.474,391.907 112.000 C 391.632 111.560,391.046 111.211,390.604 111.225 C 389.862 111.249,389.870 111.279,390.700 111.612 M25.698 222.500 C 25.752 280.635,25.842 311.010,25.898 290.000 C 26.170 187.893,26.171 116.800,25.900 116.800 C 25.735 116.800,25.644 164.365,25.698 222.500 M33.200 120.773 C 33.200 121.223,34.763 121.770,35.097 121.437 C 35.227 121.306,35.023 121.200,34.643 121.200 C 34.263 121.200,34.064 121.020,34.200 120.800 C 34.336 120.580,34.167 120.400,33.824 120.400 C 33.481 120.400,33.200 120.568,33.200 120.773 M374.000 161.800 C 374.000 178.396,374.135 186.764,374.400 186.600 C 374.660 186.440,374.800 177.737,374.800 161.800 C 374.800 145.863,374.660 137.160,374.400 137.000 C 374.135 136.836,374.000 145.204,374.000 161.800 M374.000 245.776 L 374.000 278.400 327.300 278.498 L 280.600 278.597 326.800 278.708 C 352.210 278.769,373.405 278.722,373.900 278.602 L 374.800 278.385 374.800 246.016 C 374.800 224.868,374.661 213.562,374.400 213.400 C 374.135 213.236,374.000 224.129,374.000 245.776 M256.400 223.449 C 256.400 223.980,256.509 224.008,257.000 223.600 C 257.330 223.326,257.600 223.034,257.600 222.951 C 257.600 222.868,257.330 222.800,257.000 222.800 C 256.670 222.800,256.400 223.092,256.400 223.449 M284.100 227.076 C 284.485 227.176,285.115 227.176,285.500 227.076 C 285.885 226.975,285.570 226.893,284.800 226.893 C 284.030 226.893,283.715 226.975,284.100 227.076 M273.200 260.704 C 273.200 260.871,273.560 261.232,274.000 261.507 C 274.930 262.088,275.054 261.797,274.229 260.971 C 273.598 260.341,273.200 260.237,273.200 260.704 M223.378 261.635 C 223.231 261.874,223.310 262.270,223.555 262.515 C 223.882 262.842,224.000 262.726,224.000 262.080 C 224.000 261.114,223.792 260.965,223.378 261.635 M262.600 302.400 C 262.464 302.620,262.734 302.800,263.200 302.800 C 263.666 302.800,263.936 302.620,263.800 302.400 C 263.664 302.180,263.394 302.000,263.200 302.000 C 263.006 302.000,262.736 302.180,262.600 302.400 M274.600 304.400 C 273.720 304.778,273.782 304.857,275.066 304.995 C 275.654 305.058,275.865 304.913,275.723 304.544 C 275.608 304.245,275.489 304.013,275.457 304.028 C 275.426 304.044,275.040 304.211,274.600 304.400 M374.000 326.600 C 374.000 340.600,374.138 348.000,374.400 348.000 C 374.662 348.000,374.800 340.600,374.800 326.600 C 374.800 312.600,374.662 305.200,374.400 305.200 C 374.138 305.200,374.000 312.600,374.000 326.600 M33.083 348.388 C 33.454 348.821,33.838 349.096,33.936 348.998 C 34.174 348.759,33.195 347.600,32.755 347.600 C 32.564 347.600,32.711 347.955,33.083 348.388 M131.900 359.100 C 174.635 359.156,244.565 359.156,287.300 359.100 C 330.035 359.044,295.070 358.998,209.600 358.998 C 124.130 358.998,89.165 359.044,131.900 359.100 M13.928 367.054 C 14.414 367.946,17.200 370.682,17.200 370.266 C 17.200 370.106,16.575 369.427,15.811 368.756 C 15.047 368.085,14.462 367.348,14.511 367.118 C 14.560 366.888,14.358 366.612,14.061 366.504 C 13.647 366.353,13.616 366.480,13.928 367.054 "
              stroke="none" fill="#70747c" fill-rule="evenodd"></path>
    </g>
</svg>
